<svg version="1.1" xmlns="http://www.w3.org/2000/svg" xmlns:xlink="http://www.w3.org/1999/xlink" width="47.22753" height="50.78562" viewBox="0,0,47.22753,50.78562"><g transform="translate(-216.20103,-156.57143)"><g data-paper-data="{&quot;isPaintingLayer&quot;:true}" fill-rule="nonzero" stroke-linecap="butt" stroke-linejoin="miter" stroke-miterlimit="10" stroke-dasharray="" stroke-dashoffset="0" style="mix-blend-mode: normal"><path d="M253.3701,190.04662c3.06705,-0.85555 6.41373,1.5352 7.47504,5.33989c1.06132,3.80468 -0.56467,7.58254 -3.63172,8.43809c-3.06705,0.85555 -6.41373,-1.5352 -7.47504,-5.33989c-1.06132,-3.80468 0.56467,-7.58254 3.63172,-8.43809z" data-paper-data="{&quot;index&quot;:null}" fill="#000000" stroke="#ffffff" stroke-width="5"/><path d="M219.07143,180c0,-11.55853 9.37004,-20.92857 20.92857,-20.92857c11.55853,0 20.92857,9.37004 20.92857,20.92857c0,11.55853 -9.37004,20.92857 -20.92857,20.92857c-11.55853,0 -20.92857,-9.37004 -20.92857,-20.92857z" fill="#000000" stroke="#ffffff" stroke-width="5"/><path d="M227.0977,197.74535c-1.52771,3.46688 -4.69334,5.42811 -7.07063,4.38055c-2.37729,-1.04756 -3.06601,-4.70726 -1.5383,-8.17415c1.52771,-3.46688 4.69334,-5.42811 7.07063,-4.38055c2.37729,1.04756 3.06601,4.70726 1.5383,8.17415z" fill="#000000" stroke="#ffffff" stroke-width="5"/><path d="M243.34848,199.97891c-1.12129,3.48173 -4.30555,5.57147 -7.11225,4.66758c-2.8067,-0.9039 -4.17299,-4.45914 -3.0517,-7.94087c1.12129,-3.48173 4.30555,-5.57147 7.11225,-4.66758c2.8067,0.9039 4.17299,4.45914 3.0517,7.94087z" fill="#000000" stroke="#ffffff" stroke-width="5"/><path d="M252.52855,182.01237c-2.47487,0.35355 -2.82843,-2.12132 -2.82843,-2.12132l-0.19606,-1.37341c-0.14229,-1.31341 -0.78679,-2.6092 -1.66396,-3.59705c0,0 -1.58309,-1.93489 0.3518,-3.51799c1.93489,-1.58309 3.51799,0.3518 3.51799,0.3518c1.34916,1.73651 2.34346,3.83925 2.73604,6.00295l0.20394,1.42659c0,0 0.35355,2.47487 -2.12132,2.82843z" fill="#225db1" stroke="none" stroke-width="0.5"/><path d="M243.986,183.80348c-2.46598,0.411 -2.87698,-2.05499 -2.87698,-2.05499l-0.17852,-1.08717c-0.30548,-1.50124 -0.80044,-2.9907 -1.55023,-4.32669c0,0 -1.19713,-2.19474 0.99761,-3.39187c2.19474,-1.19713 3.39187,0.99761 3.39187,0.99761c0.94684,1.77387 1.61266,3.71065 2.04977,5.67331l0.22148,1.31283c0,0 0.411,2.46598 -2.05499,2.87698z" fill="#225db1" stroke="none" stroke-width="0.5"/><path d="M225.5902,177.23536c-2.29786,-0.9848 -1.31306,-3.28266 -1.31306,-3.28266l0.66179,-1.53324c1.70915,-3.2692 3.41325,-4.5346 6.44932,-6.56209c0,0 2.08013,-1.38675 3.46688,0.69338c1.38675,2.08013 -0.69338,3.46688 -0.69338,3.46688c-2.33697,1.55512 -3.5728,2.11333 -4.75068,4.63791l-0.53821,1.26676c0,0 -0.9848,2.29786 -3.28266,1.31306z" fill="#ececec" stroke="none" stroke-width="0.5"/><path d="M237.075,164.9375c0,-1.38071 1.11929,-2.5 2.5,-2.5c1.38071,0 2.5,1.11929 2.5,2.5c0,1.38071 -1.11929,2.5 -2.5,2.5c-1.38071,0 -2.5,-1.11929 -2.5,-2.5z" fill="#ececec" stroke="none" stroke-width="0.5"/></g></g></svg>