<svg version="1.1" xmlns="http://www.w3.org/2000/svg" xmlns:xlink="http://www.w3.org/1999/xlink" width="283.5" height="206.5" viewBox="0,0,283.5,206.5"><g transform="translate(-98.25,-76.75)"><g data-paper-data="{&quot;isPaintingLayer&quot;:true}" fill-rule="nonzero" stroke-linecap="butt" stroke-linejoin="miter" stroke-miterlimit="10" stroke-dasharray="" stroke-dashoffset="0" style="mix-blend-mode: normal"><path d="M143,180c0,-53.57162 43.42838,-97 97,-97c53.57162,0 97,43.42838 97,97c0,53.57162 -43.42838,97 -97,97c-53.57162,0 -97,-43.42838 -97,-97z" fill="#000000" stroke="#e8c200" stroke-width="12.5"/><path d="M156.5,180c0,-46.11577 37.38423,-83.5 83.5,-83.5c46.11577,0 83.5,37.38423 83.5,83.5c0,46.11577 -37.38423,83.5 -83.5,83.5c-46.11577,0 -83.5,-37.38423 -83.5,-83.5z" fill="#000000" stroke="#ffd600" stroke-width="18"/><path d="M159,180c0,-44.73506 36.26494,-81 81,-81c44.73507,0 81,36.26494 81,81c0,44.73506 -36.26493,81 -81,81c-44.73506,0 -81,-36.26494 -81,-81z" fill="#000000" stroke="#ffee9a" stroke-width="9"/><path d="M104.5,186c0,-23.19596 60.66542,-42 135.5,-42c74.83459,0 135.5,18.80404 135.5,42c0,23.19596 -60.66541,42 -135.5,42c-74.83458,0 -135.5,-18.80404 -135.5,-42z" fill="#000000" stroke="#e8c200" stroke-width="12.5"/><path d="M123.35825,182c0,-18.2197 52.22229,-32.98969 116.64176,-32.98969c64.41946,0 116.64175,14.76999 116.64175,32.98969c0,18.2197 -52.22229,32.98969 -116.64175,32.98969c-64.41946,0 -116.64175,-14.76999 -116.64175,-32.98969z" fill="#000000" stroke="#ffd600" stroke-width="26.5"/><path d="M126.85052,183.5c0,-18.5357 50.65875,-33.56185 113.14949,-33.56185c62.49073,0 113.14949,15.02615 113.14949,33.56185c0,18.5357 -50.65875,33.56186 -113.14949,33.56186c-62.49073,0 -113.14948,-15.02615 -113.14948,-33.56186z" fill="#000000" stroke="#ffee9a" stroke-width="9"/><path d="M159,180c0,-44.73506 36.26494,-81 81,-81c44.73507,0 81,36.26494 81,81c0,44.73506 -162,44.73506 -162,0z" fill="#000000" stroke="none" stroke-width="0"/><path d="M224.36794,157.159c-2.69295,8.63452 -14.25108,14.00425 -25.8158,11.99362c-11.56472,-2.01063 -18.75671,-10.64023 -16.06376,-19.27475c2.69295,-8.63452 44.57251,-1.35339 41.87956,7.28113z" fill="#ffffff" stroke="none" stroke-width="0"/><path d="M297.85839,147.39662c3.3421,9.62116 -3.18532,19.7084 -14.5794,22.53047c-11.39408,2.82207 -23.34012,-2.68969 -26.68222,-12.31085c-3.3421,-9.62116 37.91952,-19.84079 41.26162,-10.21962z" fill="#ffffff" stroke="none" stroke-width="0"/><path d="M222.48052,202.00009c0.50283,0.68416 1.23655,1.96201 1.11246,3.47064c2.45659,-0.06318 4.98565,-0.28176 7.32764,-0.3975c-0.72134,-2.16403 -1.44269,-4.32806 -2.16403,-6.49209c0,0 -0.60668,-1.82005 0.05895,-3.58114c-1.77402,0 -3.54805,0 -5.32207,0c-0.0282,0.91559 -0.25005,1.58114 -0.25005,1.58114c-0.72,1.97808 -0.77903,3.56325 -0.7629,5.41895zM249.5,200c0,-1.44208 0,-3.26612 0,-5c-3.80994,0 -7.61988,0 -11.42983,0c0.11886,0.25571 0.17324,0.41886 0.17324,0.41886c0.71318,2.13955 1.42637,4.27911 2.13955,6.41866c0.77212,0.47422 1.49431,1.21696 1.86251,2.38025c2.65152,-0.44701 5.26473,-1.04915 7.88416,-1.70852c-0.62964,-1.25308 -0.62964,-2.50926 -0.62964,-2.50926zM259.5,199v1c0,0 0,0.03519 -0.00295,0.09967c2.31522,-0.52754 4.75301,-0.43014 7.05741,-1.00945c1.06571,-0.26791 6.09924,-1.86315 7.07883,-3.26016c0.18998,-0.27093 0.50458,-0.86775 0.89488,-1.59067c-3.01987,0.82204 -5.72303,0.76061 -9.02817,0.76061c-2,0 -4,0 -6,0c0,1.33333 0,2.66667 0,4zM209.5,195c-0.46919,0 -1.69197,0.00567 -3,0c0,1.33333 0,2.66667 0,4v2c0,0 0,0.44153 -0.1312,1.06217c0.11449,0.02982 0.2291,0.05893 0.34388,0.08712c1.94823,0.47855 3.86376,1.08704 5.78738,1.66143c0.00219,-3.24655 0.06686,-5.82724 0.80973,-8.81072c-1.26993,0 -2.53986,0 -3.80979,0zM196.5,201c0,-2.31413 0,-5.81832 0,-8.67659c-1.9556,-0.50464 -3.97851,-0.75366 -5.98419,-1.06994c0.16145,2.4098 1.14343,2.51139 2.47576,5.54977c0.22245,0.5073 -0.3731,1.29666 0.04396,1.66122c0.64294,0.56201 1.8384,0.02139 2.49943,0.562c0.5776,0.47238 0.64747,1.34451 0.96627,2.03035c-0.00124,-0.03705 -0.00124,-0.05682 -0.00124,-0.05682zM185.3857,183.00771c1.70644,-2.5883 5.09488,-1.91061 5.09488,-1.91061c0.81306,0.16261 10.19686,2.02606 10.6421,2.17354c1.26193,0.41797 2.26057,1.45613 3.52608,1.86312c1.54001,0.49527 3.23354,-0.13376 4.85124,-0.13376c4.33333,0 8.66667,0 13,0c14.33333,0 28.66667,0 43,0c1.73316,0 3.48833,0.34232 5.19909,0.06456c2.76368,-0.44871 5.06868,-2.70299 7.85537,-2.97434c2.35191,-0.22902 5.39226,-0.74178 7.0226,0.96875c2.22442,2.33385 2.79323,6.05199 2.74151,9.2757c-0.02588,1.61303 -2.00625,2.52823 -2.95186,3.83528c-2.25925,3.12279 -3.83294,6.9274 -7.23806,9.08331c-3.82376,2.42096 -8.72827,3.10982 -13.01774,3.70928c-8.13677,1.13713 -15.81842,4.99107 -24,6c-0.36967,0.04559 -6.48387,0.03746 -7.61092,0.03746c-5.55337,0 -12.24925,0.99786 -17.69351,-0.04833c-4.90276,-0.94213 -9.91031,-3.36155 -14.91741,-3.98913c-2.83189,-0.35494 -6.01158,0.81729 -8.74837,-0.55416c-1.29753,-0.65022 -1.53627,-2.53588 -2.67568,-3.43484c-0.99035,-0.78135 -2.63435,-0.52095 -3.50057,-1.438c-1.08937,-1.15329 -1.20326,-2.94231 -1.95604,-4.33878c-2.18448,-4.05239 -3.42777,-6.44829 -3.50842,-11.19676l1.52786,-4.23607c0,0 1.11928,-2.23856 3.35783,-2.75622z" fill="#ffffff" stroke="none" stroke-width="0.5"/></g></g></svg>