<svg version="1.1" xmlns="http://www.w3.org/2000/svg" xmlns:xlink="http://www.w3.org/1999/xlink" width="283.5" height="207.31543" viewBox="0,0,283.5,207.31543"><g transform="translate(-98.25,-75.93461)"><g data-paper-data="{&quot;isPaintingLayer&quot;:true}" fill-rule="nonzero" stroke-linecap="butt" stroke-linejoin="miter" stroke-miterlimit="10" stroke-dasharray="" stroke-dashoffset="0" style="mix-blend-mode: normal"><path d="M143,180.00001c0,-43.23331 28.28401,-79.86053 67.35754,-92.38718l1.89936,1.62803l0.19928,0.09964l0.01114,0.03961l2.1915,1.1688l1.09931,0.65959l0.22593,0.22593l0.14865,0.08919l0.08546,0.17092v0.24449l-0.06199,0.80582l-0.12269,0.49076l-0.20588,0.61765l-0.02288,0.29739l-0.03843,0.15371v0.34585l-0.06199,0.80582l-0.38988,1.55951v0.52796l-0.25015,1.50089l-0.355,1.42002v1.23106l-0.29857,1.1943v0.81726l-0.25767,1.28835l0.04738,0.99489l-0.24157,0.96628v9.28852l-0.06231,0.09346l0.06231,0.28038v0.27864l0.45186,1.80745v0.45186l0.47848,1.91392l-0.2012,0.73773l0.66108,1.1018l0.31164,1.24655l0.66392,0.37938l0.28376,0.47294l0.6655,1.331l1.04615,1.22051l0.82705,1.37842l0.92836,0.92836l0.01677,0.30193l0.39538,0.3389l0.07394,0.14788l0.06966,0.27864l0.09752,0.05573l0.16007,0.32013l0.75173,0.87701v0.97694l-0.45186,1.80745v0.27864l-0.06231,0.28038l0.06231,0.09346v9.53977l-0.06231,0.09346l0.06231,0.28038v0.27864l0.45186,1.80745v0.90373l0.29857,1.1943v1.23106l0.60515,2.42061v0.125c-0.23911,8.39877 1.98137,17.80572 1.3556,25.68033c-0.12334,1.55206 -5.72242,8.46457 -6.71665,10.92085c-5.14438,12.70943 -6.5427,13.19169 -5.48366,30.27408c0.1063,1.71467 0.03522,3.78522 1.25,5c2.37537,2.37537 5.39073,5 8.75,5c16.67835,0 6.02978,-19.94641 11.4515,-25.83576c4.1606,-4.51945 10.05708,-9.14502 10.78177,-15.66528c0.05164,-0.4646 3.32157,-1.3687 3.69075,-1.68513c2.53608,-2.17379 11.2536,-9.78072 12.1971,-12.42252c3.62477,-10.14935 -2.82193,-16.56891 -7.48741,-24.83549c-1.67027,-2.95949 -4.23291,-5.58277 -4.36663,-9.25699c-0.04095,-1.12515 -0.01409,-2.16332 0.05203,-3.14631l0.24264,-0.40441l0.73699,-0.66999l0.35447,-0.5317l0.19405,-0.19405l0.11014,-0.02203l0.1542,-0.24231l0.19703,-0.19703l1.18217,-1.97029l0.9143,-1.43676l0.03432,-0.01961l0.01413,-0.05653l0.27084,-0.4256l0.08811,-0.26434l0.14777,-0.24629l-0.02955,-0.10837l0.24553,-0.7366l0.12329,-1.60277l0.38988,-1.55951v-2.71118l-0.38988,-1.55951l-0.12329,-1.60277l-0.23727,-0.71181v-0.81058l-0.90373,-3.61491l-0.11886,-0.22286l0.58,-0.29l0.68138,-0.22713l1.12686,-0.71709l1.25786,-0.44924l1.24571,-0.83047l0.15305,-0.0085l1.68355,-1.96414l1.74016,-1.91417l-0.01055,-0.15292l0.11438,-0.22876l0.55838,-0.83757l1.73344,-4.85363l-0.0348,-0.06961l0.04317,-0.06475l-0.51417,-2.31376v-0.50457l-0.38988,-1.55951l-0.12329,-1.60277l-0.45186,-1.35559l-0.27084,-0.4256l-0.01413,-0.05653l-0.03432,-0.01961l-0.00282,-0.00444l-0.36702,-1.46808l-0.18452,-0.34597l-0.03007,-0.39095l-0.45186,-1.35559l-0.38642,-0.60724l-0.0652,-0.29342l-0.00024,-0.00307l-0.00134,-0.00402l-0.08936,-0.40212l-0.13404,-0.26808l-0.22713,-0.68138l-0.38642,-0.60724l-0.0652,-0.29342l-0.00024,-0.00307l-0.00134,-0.00402l-0.08936,-0.40212l-0.13404,-0.26808l-0.0208,-0.06239l0.02955,-0.10837l-0.14777,-0.24629l-0.08811,-0.26434l-1.23359,-1.9385l-0.48086,-0.80144c45.89349,7.68225 80.86814,47.58907 80.86814,95.66467c0,53.57162 -43.42838,97 -97,97c-53.57162,0 -97,-43.42838 -97,-97z" fill="#000000" stroke="#e8c200" stroke-width="12.5"/><path d="M156.5,180.00001c0,-37.30626 24.46544,-68.89833 58.22714,-79.60701l-0.01785,0.0714v1.23106l-0.29857,1.1943v0.81726l-0.25767,1.28835l0.04738,0.99489l-0.24157,0.96628v9.28852l-0.06231,0.09346l0.06231,0.28038v0.27864l0.45186,1.80745v0.45186l0.47848,1.91392l-0.2012,0.73773l0.66108,1.1018l0.31164,1.24655l0.66392,0.37938l0.28376,0.47294l0.6655,1.331l1.04615,1.22051l0.82705,1.37842l0.92836,0.92836l0.01677,0.30193l0.39538,0.3389l0.07394,0.14788l0.06966,0.27864l0.09752,0.05573l0.16007,0.32013l0.75173,0.87701v0.97694l-0.45186,1.80745v0.27864l-0.06231,0.28038l0.06231,0.09346v9.53977l-0.06231,0.09346l0.06231,0.28038v0.27864l0.45186,1.80745v0.90373l0.29857,1.1943v1.23106l0.60515,2.42061v0.12466c-0.23919,8.39886 1.98137,17.80597 1.35559,25.68068c-0.12334,1.55206 -5.72242,8.46457 -6.71665,10.92085c-5.14438,12.70943 -6.5427,13.19169 -5.48366,30.27408c0.1063,1.71467 0.03522,3.78522 1.25,5c2.37537,2.37537 5.39073,5 8.75,5c16.67835,0 6.02978,-19.94641 11.4515,-25.83576c4.1606,-4.51945 10.05708,-9.14502 10.78177,-15.66528c0.05164,-0.4646 3.32157,-1.3687 3.69075,-1.68513c2.53608,-2.17379 11.2536,-9.78072 12.1971,-12.42252c3.62477,-10.14935 -2.82193,-16.56891 -7.48741,-24.83549c-1.67027,-2.95949 -4.23291,-5.58277 -4.36663,-9.25699c-0.04095,-1.12515 -0.01409,-2.16332 0.05203,-3.1463l0.24265,-0.40443l0.73699,-0.66999l0.35447,-0.5317l0.19405,-0.19405l0.11014,-0.02203l0.1542,-0.24231l0.19703,-0.19703l1.18217,-1.97029l0.9143,-1.43676l0.03432,-0.01961l0.01413,-0.05653l0.27084,-0.4256l0.08811,-0.26434l0.14777,-0.24629l-0.02955,-0.10837l0.24553,-0.7366l0.12329,-1.60277l0.38988,-1.55951v-2.71118l-0.38988,-1.55951l-0.12329,-1.60277l-0.23727,-0.71181v-0.81058l-0.90373,-3.61491l-0.11886,-0.22286l0.58,-0.29l0.68138,-0.22713l1.12686,-0.71709l1.25786,-0.44924l1.24571,-0.83047l0.15305,-0.0085l1.68355,-1.96414l1.74016,-1.91417l-0.01055,-0.15292l0.11438,-0.22876l0.55838,-0.83757l1.73344,-4.85363l-0.0348,-0.06961l0.04317,-0.06475l-0.51417,-2.31376v-0.50457l-0.20297,-0.81187c35.5584,9.57743 61.72858,42.04919 61.72858,80.6333c0,46.11577 -37.38423,83.5 -83.5,83.5c-46.11577,0 -83.5,-37.38423 -83.5,-83.5z" fill="#000000" stroke="#ffd600" stroke-width="18"/><path d="M159,180.00001c0,-35.79286 23.2158,-66.16338 55.41071,-76.87489v0.58189l-0.25767,1.28835l0.04738,0.99489l-0.24157,0.96628v9.28852l-0.06231,0.09346l0.06231,0.28038v0.27864l0.45186,1.80745v0.45186l0.47848,1.91392l-0.2012,0.73773l0.66108,1.1018l0.31164,1.24655l0.66392,0.37938l0.28376,0.47294l0.6655,1.331l1.04615,1.22051l0.82705,1.37842l0.92836,0.92836l0.01677,0.30193l0.39538,0.3389l0.07394,0.14788l0.06966,0.27864l0.09752,0.05573l0.16007,0.32013l0.75173,0.87701v0.97694l-0.45186,1.80745v0.27864l-0.06231,0.28038l0.06231,0.09346v9.53977l-0.06231,0.09346l0.06231,0.28038v0.27864l0.45186,1.80745v0.90373l0.29857,1.1943v1.23106l0.60515,2.42061v0.12502c-0.23911,8.39877 1.98137,17.80572 1.3556,25.68033c-0.12334,1.55206 -5.72242,8.46457 -6.71665,10.92085c-5.14438,12.70943 -6.5427,13.19169 -5.48366,30.27408c0.1063,1.71467 0.03522,3.78522 1.25,5c2.37537,2.37537 5.39073,5 8.75,5c16.67835,0 6.02978,-19.94641 11.4515,-25.83576c4.1606,-4.51945 10.05708,-9.14502 10.78177,-15.66528c0.05164,-0.4646 3.32157,-1.3687 3.69075,-1.68513c2.53608,-2.17379 11.2536,-9.78072 12.1971,-12.42252c3.62477,-10.14935 -2.82193,-16.56891 -7.48741,-24.83549c-1.67027,-2.95949 -4.23291,-5.58277 -4.36663,-9.25699c-0.04095,-1.12516 -0.01409,-2.16334 0.05203,-3.14633l0.24264,-0.40441l0.73699,-0.66999l0.35447,-0.5317l0.19405,-0.19405l0.11014,-0.02203l0.1542,-0.24231l0.19703,-0.19703l1.18217,-1.97029l0.9143,-1.43676l0.03432,-0.01961l0.01413,-0.05653l0.27084,-0.4256l0.08811,-0.26434l0.14777,-0.24629l-0.02955,-0.10837l0.24553,-0.7366l0.12329,-1.60277l0.38988,-1.55951v-2.71118l-0.38988,-1.55951l-0.12329,-1.60277l-0.23727,-0.71181v-0.81058l-0.90373,-3.61491l-0.11886,-0.22286l0.58,-0.29l0.68138,-0.22713l1.12686,-0.71709l1.25786,-0.44924l1.24571,-0.83047l0.15305,-0.0085l1.68355,-1.96414l1.74016,-1.91417l-0.01055,-0.15292l0.11438,-0.22876l0.55838,-0.83757l1.73344,-4.85363l-0.0348,-0.06961l0.04317,-0.06475l-0.19803,-0.89113c33.89583,9.68156 58.70948,40.89014 58.70948,77.89424c0,44.73506 -36.26493,81 -81,81c-44.73506,0 -81,-36.26494 -81,-81z" fill="#000000" stroke="#ffee9a" stroke-width="9"/><path d="M375.5,186.00004c0,23.19596 -60.66541,42 -135.5,42c-3.64375,0 -7.25391,-0.04458 -10.8251,-0.13208c5.31403,-5.54573 -0.25989,-18.72811 3.97614,-23.3295c4.1606,-4.51945 10.05708,-9.14502 10.78177,-15.66528c0.05164,-0.4646 3.32157,-1.3687 3.69075,-1.68513c2.53608,-2.17379 11.2536,-9.78072 12.1971,-12.42252c3.62477,-10.14935 -2.82193,-16.56891 -7.48741,-24.83549c-1.10658,-1.9607 -2.60483,-3.77383 -3.52897,-5.84276c70.73116,1.40609 126.69572,19.63362 126.69572,41.91276z" fill="#000000" stroke="#e8c200" stroke-width="12.5"/><path d="M104.5,186.00001c0,-21.21742 50.75766,-38.7602 116.68866,-41.59851v0.7628l-0.06231,0.09346l0.06231,0.28038v0.27864l0.45186,1.80745v0.90373l0.29857,1.1943v1.23106l0.60515,2.42061l0,0.12503c-0.23911,8.39877 1.98137,17.80572 1.3556,25.68033c-0.12334,1.55206 -5.72242,8.46457 -6.71665,10.92085c-5.14438,12.70943 -6.5427,13.19169 -5.48366,30.27408c0.1063,1.71467 0.03522,3.78522 1.25,5c0.63798,0.63798 1.32213,1.29395 2.04671,1.91221c-62.8901,-3.63653 -110.49624,-20.73822 -110.49624,-41.28639z" fill="#000000" stroke="#e8c200" stroke-width="12.5"/><path d="M356.64177,182.00004c0,18.2197 -52.22229,32.98969 -116.64175,32.98969c-2.85015,0 -5.67642,-0.02891 -8.47534,-0.08576c-0.19173,-4.22392 -0.34509,-8.22403 1.62636,-10.36551c4.1606,-4.51945 10.05708,-9.14502 10.78177,-15.66528c0.05164,-0.4646 3.32157,-1.3687 3.69075,-1.68513c2.53608,-2.17379 11.2536,-9.78072 12.1971,-12.42252c3.62477,-10.14935 -2.82193,-16.56891 -7.48741,-24.83549c-0.14239,-0.2523 -0.29127,-0.50216 -0.44458,-0.75044c58.8352,1.68453 104.7531,15.73586 104.7531,32.82044z" fill="#000000" stroke="#ffd600" stroke-width="26.5"/><path d="M123.35825,182.00001c0,-16.47459 42.69751,-30.12865 98.50201,-32.59313l0.07884,0.31537v1.23106l0.60515,2.42061v0.12469c-0.23919,8.39886 1.98137,17.80597 1.35559,25.68068c-0.12334,1.55206 -5.72242,8.46457 -6.71665,10.92085c-4.41017,10.89553 -6.06725,12.80498 -5.78319,23.89064c-50.59249,-3.60679 -88.04174,-16.56185 -88.04174,-31.99074z" fill="#000000" stroke="#ffd600" stroke-width="26.5"/><path d="M353.14951,183.50003c0,18.5357 -50.65875,33.56186 -113.14949,33.56186c-2.82127,0 -5.61842,-0.03063 -8.38789,-0.09082c-0.17345,-4.94377 -0.75248,-9.94359 1.5389,-12.43261c4.1606,-4.51945 10.05708,-9.14502 10.78177,-15.66528c0.05164,-0.4646 3.32157,-1.3687 3.69075,-1.68513c2.53608,-2.17379 11.2536,-9.78072 12.1971,-12.42252c3.59416,-10.06364 -2.71376,-16.46021 -7.36882,-24.62644c56.63205,1.83877 100.69768,16.07347 100.69768,33.36094z" fill="#000000" stroke="#ffee9a" stroke-width="9"/><path d="M126.85052,183.50001c0,-16.71237 41.1825,-30.57169 95.08858,-33.13662v0.58992l0.60515,2.42061v0.12469c-0.23919,8.39886 1.98137,17.80597 1.35559,25.68068c-0.12334,1.55206 -5.72242,8.46457 -6.71665,10.92085c-4.66233,11.51852 -6.24775,12.99395 -5.71558,25.88561c-48.67776,-3.75094 -84.61708,-16.87342 -84.61708,-32.48572z" fill="#000000" stroke="#ffee9a" stroke-width="9"/><path d="M248.26129,137.12231l0.73699,-0.66999l0.35447,-0.5317l0.19405,-0.19405l0.11014,-0.02203l0.1542,-0.24231l0.19703,-0.19703l1.18217,-1.97029l0.9143,-1.43676l0.03432,-0.01961l0.01413,-0.05653l0.27084,-0.4256l0.08811,-0.26434l0.14777,-0.24629l-0.02955,-0.10837l0.24553,-0.7366l0.12329,-1.60277l0.38988,-1.55951v-2.71118l-0.38988,-1.55951l-0.12329,-1.60277l-0.23727,-0.71181v-0.81058l-0.90373,-3.61491l-0.11886,-0.22286l0.58,-0.29l0.68138,-0.22713l1.12686,-0.71709l1.25786,-0.44924l1.24571,-0.83047l0.15305,-0.0085l1.68355,-1.96414l1.74016,-1.91417l-0.01055,-0.15292l0.11438,-0.22876l0.55838,-0.83757l1.73344,-4.85363l-0.0348,-0.06961l0.04317,-0.06475l-0.19803,-0.89113c33.89583,9.68156 58.70948,40.89014 58.70948,77.89424c0,23.9422 -46.40311,35.07054 -89.53945,33.38501c-0.1336,-3.64482 -0.04265,-6.96394 1.69052,-8.84659c4.1606,-4.51945 10.05708,-9.14502 10.78177,-15.66528c0.05164,-0.4646 3.32157,-1.3687 3.69075,-1.68513c2.53608,-2.17379 11.2536,-9.78072 12.1971,-12.42252c3.62477,-10.14935 -2.82193,-16.56891 -7.48741,-24.83549c-1.67027,-2.95949 -4.23291,-5.58277 -4.36663,-9.25699c-0.04095,-1.12516 -0.01409,-2.16334 0.05203,-3.14633z" fill="#000000" stroke="none" stroke-width="0"/><path d="M159,180.00001c0,-35.79286 23.2158,-66.16338 55.41071,-76.87489v0.58189l-0.25767,1.28835l0.04738,0.99489l-0.24157,0.96628v9.28852l-0.06231,0.09346l0.06231,0.28038v0.27864l0.45186,1.80745v0.45186l0.47848,1.91392l-0.2012,0.73773l0.66108,1.1018l0.31164,1.24655l0.66392,0.37938l0.28376,0.47294l0.6655,1.331l1.04615,1.22051l0.82705,1.37842l0.92836,0.92836l0.01677,0.30193l0.39538,0.3389l0.07394,0.14788l0.06966,0.27864l0.09752,0.05573l0.16007,0.32013l0.75173,0.87701v0.97694l-0.45186,1.80745v0.27864l-0.06231,0.28038l0.06231,0.09346v9.53977l-0.06231,0.09346l0.06231,0.28038v0.27864l0.45186,1.80745v0.90373l0.29857,1.1943v1.23106l0.60515,2.42061v0.12502c-0.23911,8.39877 1.98137,17.80572 1.3556,25.68033c-0.12334,1.55206 -5.72242,8.46457 -6.71665,10.92085c-4.07502,10.06754 -5.7995,12.46287 -5.81397,21.51433c-28.99292,-4.08295 -52.36926,-14.62109 -52.36926,-31.61443z" fill="#000000" stroke="none" stroke-width="0"/><path d="M208.67235,205.68863c-4.90291,0.98058 -5.88349,-3.92232 -5.88349,-3.92232l-0.49871,-2.53279c-0.5151,-4.10258 -1.85113,-7.24419 -2.28903,-11.55102c0,0 -0.45268,-4.97946 4.52678,-5.43214c4.97947,-0.45268 5.43215,4.52678 5.43215,4.52678c0.30847,4.04943 1.61486,7.05845 2.2296,11.04216l0.40502,1.98585c0,0 0.16803,0.84017 0.01719,1.89449c-0.13047,0.43679 -0.25012,0.87284 -0.35921,1.31379c-0.48911,1.14812 -1.51037,2.26122 -3.58031,2.67521z" fill="#ffffff" stroke="none" stroke-width="0.5"/><path d="M239.31309,203.78047l0.03861,1.07204c0,0 -0.01223,4.99184 -4.99999,4.99999c-1.22082,0 -2.14357,-0.29808 -2.84101,-0.74868c0.1731,-1.86599 0.62482,-3.46225 1.64033,-4.56536c1.63238,-1.77318 3.53198,-3.56269 5.2816,-5.47656c0.36957,1.53019 0.6769,3.09383 0.88045,4.71857z" fill="#ffffff" stroke="none" stroke-width="0.5"/><path d="M234.3517,209.85251l0.01224,-0.00001c-0.00408,0.00001 -0.00816,0.00001 -0.01224,0.00001z" fill="#ffffff" stroke="none" stroke-width="0.5"/><path d="M253.32997,208.04504c-5,0 -5,-5 -5,-5l0.01258,-2.35673c-0.57562,-3.90934 -0.62708,-7.86841 -1.30014,-11.73276c0,0 -0.10574,-0.63442 -0.01382,-1.4861c0.29448,-0.11477 0.51418,-0.21215 0.59497,-0.2814c0.93148,-0.79841 2.69686,-2.32978 4.60465,-4.07886c3.97882,0.00642 4.67814,4.20238 4.67814,4.20238c0.67631,4.19725 0.82184,8.43676 1.41104,12.66786l0.01258,3.06562c0,0 0,5 -5,5z" fill="#ffffff" stroke="none" stroke-width="0.5"/><path d="M270.95264,204.43014c-5,0 -5,-5 -5,-5l0.40428,-3.32519c1.44838,-3.02314 0.95131,-5.97436 0.95131,-9.32699c0,0 0,-5 5,-5c5,0 5,5 5,5c0,4.90338 0.10478,8.62377 -1.75986,13.26618l0.40427,-0.614c0,0 0,5 -5,5z" fill="#ffffff" stroke="none" stroke-width="0.5"/><path d="M191.41831,150.01c0.00499,-0.68004 0.12677,-1.43199 0.40319,-2.26126c1.97642,-5.92927 7.90569,-3.95285 7.90569,-3.95285c4.25382,1.43343 8.93303,2.90989 13.32141,3.88063c2.80674,0.62087 6.49387,0.05817 8.8905,2.08421v1.19258l0.60515,2.42061v0.12469c-0.1092,3.83439 0.29428,7.87892 0.70554,11.89185c-1.63172,2.73592 -4.00288,5.02904 -6.62033,6.27999c-5.65838,2.70427 -13.5275,1.95027 -18.76771,-1.40651c-3.99379,-2.55835 -5.72358,-6.87326 -7.02423,-11.14009c-0.20504,-2.46557 -1.90584,-5.28598 -0.61513,-7.3967c0.39138,-0.64002 0.79037,-1.21069 1.19592,-1.71715z" fill="#ffffff" stroke="none" stroke-width="0.5"/><path d="M274.94332,158.76243c0.32268,1.31662 0,2.71118 0,4.06677c-0.07559,1.45984 0.23383,2.99219 -0.22678,4.37952c-2.56299,7.71947 -9.27337,9.71574 -16.18287,9.53268c0.64639,-0.79065 1.10744,-1.47316 1.28698,-1.97587c3.62477,-10.14935 -2.82193,-16.56891 -7.48741,-24.83549c-0.16538,-0.29303 -0.33951,-0.58277 -0.51917,-0.87056c0.16364,-0.0233 0.31414,-0.04665 0.44918,-0.07025c4.62953,-0.80914 8.59207,-2.80249 13.10676,-3.97186c0,0 6.06339,-1.51585 7.57924,4.54754c0.20801,0.83204 0.2733,1.57845 0.23112,2.24706c1.25714,1.77893 1.21873,4.72998 1.76294,6.95046z" fill="#ffffff" stroke="none" stroke-width="0.5"/></g></g></svg>