<svg version="1.1" xmlns="http://www.w3.org/2000/svg" xmlns:xlink="http://www.w3.org/1999/xlink" width="285.83813" height="209.31445" viewBox="0,0,285.83813,209.31445"><g transform="translate(-95.91188,-75.9346)"><g data-paper-data="{&quot;isPaintingLayer&quot;:true}" fill-rule="nonzero" stroke-linecap="butt" stroke-linejoin="miter" stroke-miterlimit="10" stroke-dasharray="" stroke-dashoffset="0" style="mix-blend-mode: normal"><path d="M248.01864,137.52674l0.24264,-0.40441l0.73699,-0.66999l0.35447,-0.5317l0.19405,-0.19405l0.11014,-0.02203l0.1542,-0.24231l0.19703,-0.19703l1.18217,-1.97029l0.9143,-1.43676l0.03432,-0.01961l0.01413,-0.05653l0.27084,-0.4256l0.08811,-0.26434l0.14777,-0.24629l-0.02955,-0.10837l0.24553,-0.7366l0.12329,-1.60277l0.38988,-1.55951v-2.71118l-0.38988,-1.55951l-0.12329,-1.60277l-0.23727,-0.71181v-0.81058l-0.90373,-3.61491l-0.11886,-0.22286l0.58,-0.29l0.68138,-0.22713l1.12686,-0.71709l1.25786,-0.44924l1.24571,-0.83047l0.15305,-0.0085l1.68355,-1.96414l1.74016,-1.91417l-0.01055,-0.15292l0.11438,-0.22876l0.55838,-0.83757l1.73344,-4.85363l-0.0348,-0.06961l0.04317,-0.06475l-0.51417,-2.31376v-0.50457l-0.38988,-1.55951l-0.12329,-1.60277l-0.45186,-1.35559l-0.27084,-0.4256l-0.01413,-0.05653l-0.03432,-0.01961l-0.00282,-0.00444l-0.36702,-1.46808l-0.18452,-0.34597l-0.03007,-0.39095l-0.45186,-1.35559l-0.38642,-0.60724l-0.0652,-0.29342l-0.00024,-0.00307l-0.00134,-0.00402l-0.08936,-0.40212l-0.13404,-0.26808l-0.22713,-0.68138l-0.38642,-0.60724l-0.0652,-0.29342l-0.00024,-0.00307l-0.00134,-0.00402l-0.08936,-0.40212l-0.13404,-0.26808l-0.0208,-0.06239l0.02955,-0.10837l-0.14777,-0.24629l-0.08811,-0.26434l-1.23359,-1.9385l-0.48086,-0.80144c45.89349,7.68225 80.86814,47.58907 80.86814,95.66467c0,53.57162 -43.42838,97 -97,97c-0.33622,0 -0.67204,-0.00171 -1.00745,-0.00512c4.72122,-7.85563 13.70228,-11.93747 19.88683,-18.29144c3.66992,-3.77045 5.79222,-8.49463 8.24012,-13.08443c4.42271,-8.29258 4.61365,-25.4858 -5.17458,-30.37991c-4.54265,-2.27133 -13.44006,-0.52669 -15.01805,-6.44989c-0.13471,-0.50566 -0.86442,-2.15578 -0.73835,-2.60203c0.80185,-2.8384 8.89076,-7.12369 11.00812,-9.59393c5.58553,-6.51645 12.44698,-20.55702 10.25409,-29.32858c-1.87482,-7.49928 -6.17742,-12.40177 -11.28489,-18.01998l-1.22321,-0.81547c-2.99583,-2.56785 -5.31723,-6.46138 -6.93593,-10.71658c0.00384,-0.0622 0.00784,-0.12417 0.01199,-0.18592z" fill="#000000" stroke="#e8c200" stroke-width="12.5"/><path d="M140.28749,188.12574c-2.41427,-43.16585 23.78023,-81.31537 62.09327,-96.00446l1.98731,1.51942l0.20453,0.08836l0.01333,0.03893l2.25335,1.0446l1.13443,0.59717l0.23819,0.21296l0.1534,0.08075l0.09487,0.16588l0.01365,0.24411l-0.01689,0.80802l-0.09509,0.49685l-0.17107,0.62818l-0.00624,0.2982l-0.02979,0.15562l0.01931,0.34531l-0.01689,0.80802l-0.30218,1.57885l0.02948,0.52714l-0.16595,1.51252l-0.27515,1.43763l0.06875,1.22914l-0.23141,1.20911l0.04564,0.81598l-0.18532,1.30073l0.10286,0.99069l-0.18723,0.97826l0.5187,9.27403l-0.05699,0.09679l0.07787,0.27646l0.01556,0.27821l0.55209,1.7794l0.02523,0.45115l0.58461,1.88421l-0.15969,0.74781l0.72158,1.06316l0.38076,1.2272l0.68407,0.34171l0.30973,0.45636l0.73879,1.29176l1.11267,1.16019l0.90273,1.33008l0.97875,0.87507l0.0336,0.30052l0.41369,0.31629l0.08208,0.14352l0.08511,0.27432l0.10048,0.0502l0.1777,0.31069l0.79953,0.83366l0.05456,0.97542l-0.35022,1.82986l0.01556,0.27821l-0.04656,0.28342l0.06743,0.08983l0.53273,9.52488l-0.05699,0.09679l0.07787,0.27646l0.01556,0.27821l0.55209,1.7794l0.05047,0.90232l0.3648,1.17576l0.06875,1.22914l0.73938,2.38304l0.00698,0.1248c0.23027,8.39902 2.9726,17.66729 2.78755,25.56456c-0.03648,1.55653 -5.2408,8.77092 -6.09632,11.27889c-4.42662,12.97687 -5.79583,13.53647 -3.78451,30.53306c0.20189,1.70606 0.24654,3.77735 1.52726,4.92239c1.49757,1.33892 3.22862,2.75406 5.09562,3.63535c0.03098,0.0492 0.06238,0.09837 0.09422,0.14751c0.99328,1.53267 5.27222,3.56089 6.92381,4.10323c6.09345,2.00091 6.36022,9.56972 4.90097,14.62526c-1.11505,3.86307 -6.71716,6.07053 -8.45119,10.08462c-1.82907,4.23408 -3.15055,10.36499 -3.68256,15.61499c-42.07058,-8.64608 -74.7436,-44.70356 -77.25512,-89.60813z" fill="#000000" stroke="#e8c200" stroke-width="12.5"/><path d="M248.01864,137.52675l0.24265,-0.40443l0.73699,-0.66999l0.35447,-0.5317l0.19405,-0.19405l0.11014,-0.02203l0.1542,-0.24231l0.19703,-0.19703l1.18217,-1.97029l0.9143,-1.43676l0.03432,-0.01961l0.01413,-0.05653l0.27084,-0.4256l0.08811,-0.26434l0.14777,-0.24629l-0.02955,-0.10837l0.24553,-0.7366l0.12329,-1.60277l0.38988,-1.55951v-2.71118l-0.38988,-1.55951l-0.12329,-1.60277l-0.23727,-0.71181v-0.81058l-0.90373,-3.61491l-0.11886,-0.22286l0.58,-0.29l0.68138,-0.22713l1.12686,-0.71709l1.25786,-0.44924l1.24571,-0.83047l0.15305,-0.0085l1.68355,-1.96414l1.74016,-1.91417l-0.01055,-0.15292l0.11438,-0.22876l0.55838,-0.83757l1.73344,-4.85363l-0.0348,-0.06961l0.04317,-0.06475l-0.51417,-2.31376v-0.50457l-0.20297,-0.81187c35.5584,9.57743 61.72858,42.04919 61.72858,80.6333c0,40.96981 -29.50648,75.04803 -68.42811,82.1433c1.33858,-1.09168 2.62422,-2.22419 3.80749,-3.43987c3.66992,-3.77045 5.79222,-8.49463 8.24012,-13.08443c4.42271,-8.29258 4.61365,-25.4858 -5.17458,-30.37991c-4.54265,-2.27133 -13.44006,-0.52669 -15.01805,-6.44989c-0.13471,-0.50566 -0.86442,-2.15578 -0.73835,-2.60203c0.80185,-2.8384 8.89076,-7.12369 11.00812,-9.59393c5.58553,-6.51645 12.44698,-20.55702 10.25409,-29.32858c-1.87482,-7.49928 -6.17742,-12.40177 -11.28489,-18.01998l-1.22321,-0.81547c-2.99583,-2.56785 -5.31723,-6.46138 -6.93593,-10.71658c0.00384,-0.06219 0.00784,-0.12416 0.01199,-0.18591z" fill="#000000" stroke="#ffd600" stroke-width="18"/><path d="M153.76643,187.37186c-2.08329,-37.24805 20.57978,-70.15704 53.6908,-82.73436l-0.01383,0.07229l0.06875,1.22914l-0.23141,1.20911l0.04564,0.81598l-0.18532,1.30073l0.10286,0.99069l-0.18723,0.97826l0.5187,9.27403l-0.05699,0.09679l0.07787,0.27646l0.01556,0.27821l0.55209,1.7794l0.02523,0.45115l0.58461,1.88421l-0.15969,0.74781l0.72158,1.06316l0.38076,1.2272l0.68407,0.34171l0.30973,0.45636l0.73879,1.29176l1.11267,1.16019l0.90273,1.33008l0.97875,0.87507l0.0336,0.30052l0.41369,0.31629l0.08208,0.14352l0.08511,0.27432l0.10048,0.0502l0.1777,0.31069l0.79953,0.83366l0.05456,0.97542l-0.35022,1.82986l0.01556,0.27821l-0.04656,0.28342l0.06743,0.08983l0.53273,9.52488l-0.05699,0.09679l0.07787,0.27646l0.01556,0.27821l0.55209,1.7794l0.05047,0.90232l0.3648,1.17576l0.06875,1.22914l0.73938,2.38304l0.00696,0.12447c0.2302,8.39911 2.97261,17.66754 2.78756,25.56491c-0.03648,1.55653 -5.2408,8.77092 -6.09632,11.27889c-4.42662,12.97687 -5.79583,13.53647 -3.78451,30.53306c0.20189,1.70606 0.24654,3.77735 1.52726,4.92239c1.49757,1.33892 3.22862,2.75406 5.09562,3.63535c0.03098,0.0492 0.06238,0.09837 0.09422,0.14751c0.99328,1.53267 5.27222,3.56089 6.92381,4.10323c6.09345,2.00091 6.36022,9.56972 4.90097,14.62526c-1.11505,3.86307 -6.71716,6.07053 -8.45119,10.08462c-0.32204,0.74549 -0.62836,1.54979 -0.91739,2.39772c-36.23383,-7.42876 -64.37862,-38.47617 -66.54136,-77.14475z" fill="#000000" stroke="#ffd600" stroke-width="18"/><path d="M248.01864,137.52672l0.24264,-0.40441l0.73699,-0.66999l0.35447,-0.5317l0.19405,-0.19405l0.11014,-0.02203l0.1542,-0.24231l0.19703,-0.19703l1.18217,-1.97029l0.9143,-1.43676l0.03432,-0.01961l0.01413,-0.05653l0.27084,-0.4256l0.08811,-0.26434l0.14777,-0.24629l-0.02955,-0.10837l0.24553,-0.7366l0.12329,-1.60277l0.38988,-1.55951v-2.71118l-0.38988,-1.55951l-0.12329,-1.60277l-0.23727,-0.71181v-0.81058l-0.90373,-3.61491l-0.11886,-0.22286l0.58,-0.29l0.68138,-0.22713l1.12686,-0.71709l1.25786,-0.44924l1.24571,-0.83047l0.15305,-0.0085l1.68355,-1.96414l1.74016,-1.91417l-0.01055,-0.15292l0.11438,-0.22876l0.55838,-0.83757l1.73344,-4.85363l-0.0348,-0.06961l0.04317,-0.06475l-0.19803,-0.89113c33.89583,9.68156 58.70948,40.89014 58.70948,77.89424c0,38.27326 -26.54494,70.34663 -62.22855,78.81381c0.03607,-0.03671 0.07205,-0.07351 0.10793,-0.11037c3.66992,-3.77045 5.79222,-8.49463 8.24012,-13.08443c4.42271,-8.29258 4.61365,-25.4858 -5.17458,-30.37991c-4.54265,-2.27133 -13.44006,-0.52669 -15.01805,-6.44989c-0.13471,-0.50566 -0.86442,-2.15578 -0.73835,-2.60203c0.80185,-2.8384 8.89076,-7.12369 11.00812,-9.59393c5.58553,-6.51645 12.44698,-20.55702 10.25409,-29.32858c-1.87482,-7.49928 -6.17742,-12.40177 -11.28489,-18.01998l-1.22321,-0.81547c-2.99583,-2.56785 -5.31724,-6.46138 -6.93593,-10.71658c0.00384,-0.0622 0.00784,-0.12418 0.01199,-0.18594z" fill="#000000" stroke="#ffee9a" stroke-width="9"/><path d="M156.26252,187.23225c-1.99878,-35.73701 19.48482,-67.35657 51.03133,-79.84923l0.03249,0.58098l-0.18532,1.30073l0.10286,0.99069l-0.18723,0.97826l0.5187,9.27403l-0.05699,0.09679l0.07787,0.27646l0.01556,0.27821l0.55209,1.7794l0.02523,0.45115l0.58461,1.88421l-0.15969,0.74781l0.72158,1.06316l0.38076,1.2272l0.68407,0.34171l0.30973,0.45636l0.73879,1.29176l1.11267,1.16019l0.90273,1.33008l0.97875,0.87507l0.0336,0.30052l0.41369,0.31629l0.08208,0.14352l0.08511,0.27432l0.10048,0.0502l0.1777,0.31069l0.79953,0.83366l0.05456,0.97542l-0.35022,1.82986l0.01556,0.27821l-0.04656,0.28342l0.06743,0.08983l0.53273,9.52488l-0.05699,0.09679l0.07787,0.27646l0.01556,0.27821l0.55209,1.7794l0.05047,0.90232l0.3648,1.17576l0.06875,1.22914l0.73938,2.38304l0.00698,0.12482c0.23027,8.39902 2.9726,17.66729 2.78755,25.56456c-0.03648,1.55653 -5.2408,8.77092 -6.09632,11.27889c-4.42662,12.97687 -5.79583,13.53647 -3.78451,30.53306c0.20189,1.70606 0.24654,3.77735 1.52726,4.92239c1.49757,1.33892 3.22862,2.75406 5.09562,3.63535c0.03098,0.0492 0.06238,0.09837 0.09422,0.14751c0.99328,1.53267 5.27222,3.56089 6.92381,4.10323c6.09345,2.00091 6.36022,9.56972 4.90097,14.62526c-1.11505,3.86307 -6.71716,6.07053 -8.45119,10.08462c-0.00425,0.00982 -0.00849,0.01966 -0.01272,0.02951c-35.34206,-7.05879 -62.84396,-37.26285 -64.94991,-74.91614z" fill="#000000" stroke="#ffee9a" stroke-width="9"/><path d="M375.5,186.00004c0,20.04984 -45.32505,36.81834 -105.94804,40.9982c-0.93737,-5.09399 -3.3111,-9.61111 -7.60708,-11.75911c-4.54265,-2.27133 -13.44006,-0.52669 -15.01805,-6.44989c-0.13471,-0.50566 -0.86442,-2.15578 -0.73835,-2.60203c0.80185,-2.8384 8.89076,-7.12369 11.00812,-9.59393c5.58553,-6.51645 12.44698,-20.55702 10.25409,-29.32858c-1.87482,-7.49928 -6.17742,-12.40177 -11.28489,-18.01998l-1.22321,-0.81547c-1.37679,-1.1801 -2.61114,-2.64019 -3.7003,-4.2867c69.57488,1.77124 124.25772,19.83496 124.25772,41.8575z" fill="#000000" stroke="#e8c200" stroke-width="12.5"/><path d="M102.18263,196.26632c-1.18484,-21.18431 48.51397,-41.53417 114.18359,-48.04983l0.0426,0.76161l-0.05699,0.09679l0.07787,0.27646l0.01556,0.27821l0.55209,1.7794l0.05047,0.90232l0.3648,1.17576l0.06875,1.22914l0.73938,2.38304l0.00698,0.12483c0.23027,8.39902 2.9726,17.66729 2.78755,25.56456c-0.03648,1.55653 -5.2408,8.77092 -6.09632,11.27889c-4.42662,12.97687 -5.79583,13.53647 -3.78451,30.53306c0.20189,1.70606 0.24654,3.77735 1.52726,4.92239c0.67261,0.60136 1.39232,1.2181 2.1503,1.79493c-62.99504,-0.11889 -111.4819,-14.53543 -112.62937,-35.05154z" fill="#000000" stroke="#e8c200" stroke-width="12.5"/><path d="M356.64177,182.00004c0,16.30082 -41.80153,29.8403 -96.74057,32.51142c-4.76264,-1.21282 -11.60889,-0.59669 -12.97437,-5.72222c-0.13471,-0.50566 -0.86442,-2.15578 -0.73835,-2.60203c0.80185,-2.8384 8.89076,-7.12369 11.00812,-9.59393c5.58553,-6.51645 12.44698,-20.55702 10.25409,-29.32858c-1.8656,-7.46238 -6.13515,-12.35347 -11.20957,-17.93712c56.73176,2.23527 100.40066,16.01152 100.40066,32.67246z" fill="#000000" stroke="#ffd600" stroke-width="26.5"/><path d="M120.78808,191.21947c-0.91999,-16.44888 40.94841,-32.46599 96.52821,-38.04291l0.09633,0.31048l0.06875,1.22914l0.73938,2.38304l0.00696,0.1245c0.2302,8.39911 2.97261,17.66754 2.78756,25.56491c-0.03648,1.55653 -5.2408,8.77092 -6.09632,11.27889c-3.79485,11.1248 -5.34272,13.12381 -4.44004,24.17631c-50.71496,-0.77593 -88.82922,-11.6195 -89.69081,-27.02432z" fill="#000000" stroke="#ffd600" stroke-width="26.5"/><path d="M353.14951,183.50003c0,16.12429 -38.33522,29.5928 -89.44651,32.82428c-0.54618,-0.40839 -1.13172,-0.77197 -1.75813,-1.08517c-4.54265,-2.27133 -13.44006,-0.52669 -15.01805,-6.44989c-0.13471,-0.50566 -0.86442,-2.15578 -0.73835,-2.60203c0.80185,-2.8384 8.89076,-7.12369 11.00812,-9.59393c5.58553,-6.51645 12.44698,-20.55702 10.25409,-29.32858c-1.75423,-7.01693 -5.63399,-11.76038 -10.30979,-16.94391c54.35681,2.45015 96.00862,16.37192 96.00862,33.17924z" fill="#000000" stroke="#ffee9a" stroke-width="9"/><path d="M124.35866,192.52211c-0.93327,-16.68629 39.41103,-32.82373 93.08976,-38.39493l0.03294,0.589l0.73938,2.38304l0.00696,0.1245c0.2302,8.39911 2.97261,17.66754 2.78756,25.56491c-0.03648,1.55653 -5.2408,8.77092 -6.09632,11.27889c-4.01183,11.7609 -5.51238,13.32257 -4.26113,26.16439c-48.81127,-1.02678 -85.4273,-12.12183 -86.29914,-27.70977z" fill="#000000" stroke="#ffee9a" stroke-width="9"/><path d="M248.26129,137.12231l0.73699,-0.66999l0.35447,-0.5317l0.19405,-0.19405l0.11014,-0.02203l0.1542,-0.24231l0.19703,-0.19703l1.18217,-1.97029l0.9143,-1.43676l0.03432,-0.01961l0.01413,-0.05653l0.27084,-0.4256l0.08811,-0.26434l0.14777,-0.24629l-0.02955,-0.10837l0.24553,-0.7366l0.12329,-1.60277l0.38988,-1.55951v-2.71118l-0.38988,-1.55951l-0.12329,-1.60277l-0.23727,-0.71181v-0.81058l-0.90373,-3.61491l-0.11886,-0.22286l0.58,-0.29l0.68138,-0.22713l1.12686,-0.71709l1.25786,-0.44924l1.24571,-0.83047l0.15305,-0.0085l1.68355,-1.96414l1.74016,-1.91417l-0.01055,-0.15292l0.11438,-0.22876l0.55838,-0.83757l1.73344,-4.85363l-0.0348,-0.06961l0.04317,-0.06475l-0.19803,-0.89113c33.89583,9.68156 58.70948,40.89014 58.70948,77.89424c0,20.06612 -32.59462,31.13149 -68.54291,33.19611c-2.61822,-0.62388 -4.81857,-1.73561 -5.53023,-4.40691c-0.13471,-0.50566 -0.86442,-2.15578 -0.73835,-2.60203c0.80185,-2.8384 8.89076,-7.12369 11.00812,-9.59393c5.58553,-6.51645 12.44698,-20.55702 10.25409,-29.32858c-1.87482,-7.49928 -6.17742,-12.40177 -11.28489,-18.01998l-1.22321,-0.81547c-2.99583,-2.56785 -5.31723,-6.46137 -6.93592,-10.71656c0.00384,-0.06221 0.00784,-0.12419 0.01199,-0.18596z" fill="#000000" stroke="none" stroke-width="0"/><path d="M156.26252,187.23225c-1.99878,-35.73701 19.48482,-67.35657 51.03133,-79.84923l0.03249,0.58098l-0.18532,1.30073l0.10286,0.99069l-0.18723,0.97826l0.5187,9.27403l-0.05699,0.09679l0.07787,0.27646l0.01556,0.27821l0.55209,1.7794l0.02523,0.45115l0.58461,1.88421l-0.15969,0.74781l0.72158,1.06316l0.38076,1.2272l0.68407,0.34171l0.30973,0.45636l0.73879,1.29176l1.11267,1.16019l0.90273,1.33008l0.97875,0.87507l0.0336,0.30052l0.41369,0.31629l0.08208,0.14352l0.08511,0.27432l0.10048,0.0502l0.1777,0.31069l0.79953,0.83366l0.05456,0.97542l-0.35022,1.82986l0.01556,0.27821l-0.04656,0.28342l0.06743,0.08983l0.53273,9.52488l-0.05699,0.09679l0.07787,0.27646l0.01556,0.27821l0.55209,1.7794l0.05047,0.90232l0.3648,1.17576l0.06875,1.22914l0.73938,2.38304l0.00698,0.12482c0.23027,8.39902 2.9726,17.66729 2.78755,25.56456c-0.03648,1.55653 -5.2408,8.77092 -6.09632,11.27889c-3.50646,10.27939 -5.09449,12.76728 -4.60348,21.80543c-29.17568,-2.45753 -53.10403,-11.67382 -54.05298,-28.64065z" fill="#000000" stroke="none" stroke-width="0"/><path d="M207.29189,210.10694c-4.8405,1.25284 -6.09334,-3.58765 -6.09334,-3.58765l-0.63937,-2.50099c-0.7434,-4.06741 -2.25278,-7.12951 -2.9305,-11.40517c0,0 -0.73004,-4.94641 4.21637,-5.67645c4.94642,-0.73004 5.67646,4.21637 5.67646,4.21637c0.53412,4.02589 2.0065,6.95726 2.84275,10.90042l0.51528,1.96013c0,0 0.21469,0.82948 0.12296,1.89057c-0.10587,0.44339 -0.20099,0.88545 -0.28528,1.3318c-0.42423,1.17364 -1.38174,2.34203 -3.42533,2.87097z" fill="#ffffff" stroke="none" stroke-width="0.5"/><path d="" fill="#ffffff" stroke="none" stroke-width="0.5"/><path d="" fill="#ffffff" stroke="none" stroke-width="0.5"/><path d="M253.32997,208.04504c-4.10381,0 -4.83937,-3.36825 -4.97121,-4.57569c2.77469,-2.42605 7.32682,-5.11323 8.83783,-6.87607c0.21473,-0.25052 0.43135,-0.51216 0.64926,-0.78419c0.13233,1.38983 0.278,2.78054 0.47154,4.17035l0.01258,3.06562c0,0 0,5 -5,5z" fill="#ffffff" stroke="none" stroke-width="0.5"/><path d="M270.95264,204.43014c-5,0 -5,-5 -5,-5l0.40428,-3.32519c1.44838,-3.02314 0.95131,-5.97436 0.95131,-9.32699c0,0 0,-5 5,-5c5,0 5,5 5,5c0,4.90338 0.10478,8.62377 -1.75986,13.26618l0.40427,-0.614c0,0 0,5 -5,5z" fill="#ffffff" stroke="none" stroke-width="0.5"/><path d="M186.95552,155.47871c-0.03299,-0.67926 0.04661,-1.43683 0.27629,-2.28025c1.64223,-6.03039 7.67262,-4.38816 7.67262,-4.38816c4.32723,1.19365 9.08159,2.4065 13.51733,3.13067c2.83703,0.46316 6.48699,-0.30456 8.99302,1.58449l0.0666,1.19072l0.73938,2.38304l0.00696,0.1245c0.10509,3.8345 0.7338,7.85019 1.36851,11.83389c-1.47639,2.82277 -3.7158,5.24472 -6.25931,6.63989c-5.49854,3.01603 -13.39748,2.70264 -18.81697,-0.35627c-4.13042,-2.33133 -6.09847,-6.54291 -7.63536,-10.73045c-0.3424,-2.45027 -2.19805,-5.1713 -1.02722,-7.35081c0.35503,-0.66088 0.72153,-1.25294 1.09816,-1.78125z" fill="#ffffff" stroke="none" stroke-width="0.5"/><path d="M274.94332,158.76243c0.32268,1.31662 0,2.71118 0,4.06677c-0.07559,1.45984 0.23383,2.99219 -0.22678,4.37952c-1.40085,4.21922 -4.04068,6.72871 -7.27481,8.1071c0.53231,-2.90134 0.60415,-5.67032 0.00895,-8.05112c-1.87482,-7.49928 -6.17742,-12.40177 -11.28489,-18.01998l-1.22321,-0.81547c-0.01295,-0.0111 -0.02588,-0.02222 -0.0388,-0.03337c3.55496,-0.96167 6.83167,-2.4371 10.46623,-3.3785c0,0 6.06339,-1.51585 7.57924,4.54754c0.20801,0.83204 0.2733,1.57845 0.23112,2.24706c1.25714,1.77893 1.21873,4.72998 1.76294,6.95046z" fill="#ffffff" stroke="none" stroke-width="0.5"/></g></g></svg>