<svg version="1.1" xmlns="http://www.w3.org/2000/svg" xmlns:xlink="http://www.w3.org/1999/xlink" width="65.85662" height="33.29262" viewBox="0,0,65.85662,33.29262"><g transform="translate(-207.07169,-165.35369)"><g data-paper-data="{&quot;isPaintingLayer&quot;:true}" fill-rule="nonzero" stroke="none" stroke-linecap="butt" stroke-linejoin="miter" stroke-miterlimit="10" stroke-dasharray="" stroke-dashoffset="0" style="mix-blend-mode: normal"><path d="M207.07169,198.64631c0,0 0,-4.48086 0,-6.14631c0,-1.14048 1.16667,-2.21552 1.16667,-2.21552c0,0 0.45292,-0.66667 2.34498,-0.66667c6.83797,0 47.81246,0.16667 59.33333,0.16667c1.91102,0 2.17831,0.66667 2.17831,0.66667c0,0 0.83333,0.78889 0.83333,1.88219c0,1.66698 0,6.31298 0,6.31298z" fill="#9e9e9e" stroke-width="0"/><path d="M215.06844,190.18208c0,0 0,-14.54835 0,-18.87909c0,-2.02964 1.47802,-5.02554 1.47802,-5.02554c0,0 2.11154,-0.92376 4.59302,-0.92376c5.62424,0 25.659,0.18475 36.39616,0.18475c3.47996,0 5.1573,1.29326 5.1573,1.29326c0,0 2.03227,3.6545 2.03227,6.13406c0,4.50915 0,17.21632 0,17.21632z" fill="#ff0000" stroke-width="0"/><path d="M224.24988,168.84843c0,1.92659 -1.92659,1.92659 -1.92659,1.92659l-1.3023,-0.01488c-0.20809,0.02601 -0.41619,0.05203 -0.62428,0.07803v0.83592c0,2.01494 -0.01192,3.92576 0.242,5.92611c0,0 0.23897,1.91171 -1.67275,2.15067c-1.91171,0.23897 -2.15067,-1.67275 -2.15067,-1.67275c-0.26633,-2.16047 -0.27176,-4.22991 -0.27176,-6.40404v-1.54127c0,0 0,-0.49916 0.25408,-0.98933c-0.0856,-1.72789 1.69042,-1.94988 1.69042,-1.94988c0.68501,-0.08563 1.37002,-0.17125 2.05503,-0.25688l1.78024,-0.01488c0,0 1.92659,0 1.92659,1.92659z" fill="#ff8c8c" stroke-width="0.5"/><path d="M225.53427,168.84843c0,-1.06402 0.86256,-1.92659 1.92659,-1.92659c1.06402,0 1.92659,0.86256 1.92659,1.92659c0,1.06402 -0.86256,1.92659 -1.92659,1.92659c-1.06402,0 -1.92659,-0.86256 -1.92659,-1.92659z" fill="#ff8c8c" stroke-width="0.5"/><path d="M210.74586,197.98924c-1.91171,0.23896 -2.15067,-1.67275 -2.15067,-1.67275l-0.25688,-2.05503c0,0 -0.13403,-1.07223 0.60168,-1.71105c0.3991,-1.22513 1.82378,-1.22513 1.82378,-1.22513c1.4525,0.00249 2.90743,-0.23929 4.34902,-0.06157l2.33164,-0.07197c0,0 1.40722,0.93913 1.13476,2.84635c-0.27246,1.90722 -2.17968,1.63476 -2.17968,1.63476l-1.76465,-0.25239c-0.76116,-0.09662 -0.52691,0.002 -1.29396,-0.03684l-0.9223,0.45495c0,0 0.23896,1.91171 -1.67275,2.15067z" fill="#c1c1c1" stroke-width="0.5"/></g></g></svg>