<svg version="1.1" xmlns="http://www.w3.org/2000/svg" xmlns:xlink="http://www.w3.org/1999/xlink" width="283.5" height="206.5" viewBox="0,0,283.5,206.5"><g transform="translate(-98.25,-76.75)"><g data-paper-data="{&quot;isPaintingLayer&quot;:true}" fill-rule="nonzero" stroke-linecap="butt" stroke-linejoin="miter" stroke-miterlimit="10" stroke-dasharray="" stroke-dashoffset="0" style="mix-blend-mode: normal"><path d="M143,180c0,-53.57162 43.42838,-97 97,-97c53.57162,0 97,43.42838 97,97c0,53.57162 -43.42838,97 -97,97c-53.57162,0 -97,-43.42838 -97,-97z" fill="#000000" stroke="#e8c200" stroke-width="12.5"/><path d="M156.5,180c0,-46.11577 37.38423,-83.5 83.5,-83.5c46.11577,0 83.5,37.38423 83.5,83.5c0,46.11577 -37.38423,83.5 -83.5,83.5c-46.11577,0 -83.5,-37.38423 -83.5,-83.5z" fill="#000000" stroke="#ffd600" stroke-width="18"/><path d="M159,180c0,-44.73506 36.26494,-81 81,-81c44.73507,0 81,36.26494 81,81c0,44.73506 -36.26493,81 -81,81c-44.73506,0 -81,-36.26494 -81,-81z" fill="#000000" stroke="#ffee9a" stroke-width="9"/><path d="M104.5,186c0,-23.19596 60.66542,-42 135.5,-42c74.83459,0 135.5,18.80404 135.5,42c0,23.19596 -60.66541,42 -135.5,42c-74.83458,0 -135.5,-18.80404 -135.5,-42z" fill="#000000" stroke="#e8c200" stroke-width="12.5"/><path d="M123.35825,182c0,-18.2197 52.22229,-32.98969 116.64176,-32.98969c64.41946,0 116.64175,14.76999 116.64175,32.98969c0,18.2197 -52.22229,32.98969 -116.64175,32.98969c-64.41946,0 -116.64175,-14.76999 -116.64175,-32.98969z" fill="#000000" stroke="#ffd600" stroke-width="26.5"/><path d="M126.85052,183.5c0,-18.5357 50.65875,-33.56185 113.14949,-33.56185c62.49073,0 113.14949,15.02615 113.14949,33.56185c0,18.5357 -50.65875,33.56186 -113.14949,33.56186c-62.49073,0 -113.14948,-15.02615 -113.14948,-33.56186z" fill="#000000" stroke="#ffee9a" stroke-width="9"/><path d="M159,180c0,-44.73506 36.26494,-81 81,-81c44.73507,0 81,36.26494 81,81c0,44.73506 -162,44.73506 -162,0z" fill="#000000" stroke="none" stroke-width="0"/><path d="M224.36794,157.159c-2.69295,8.63452 -14.25108,14.00425 -25.8158,11.99362c-11.56472,-2.01063 -18.75671,-10.64023 -16.06376,-19.27475c2.69295,-8.63452 44.57251,-1.35339 41.87956,7.28113z" fill="#ffffff" stroke="none" stroke-width="0"/><path d="M297.85839,147.39662c3.3421,9.62116 -3.18532,19.7084 -14.5794,22.53047c-11.39408,2.82207 -23.34012,-2.68969 -26.68222,-12.31085c-3.3421,-9.62116 37.91952,-19.84079 41.26162,-10.21962z" fill="#ffffff" stroke="none" stroke-width="0"/><path d="M203.53166,189.1497c-0.30149,-0.4244 -0.56594,-0.94116 -0.77508,-1.56856c-1.58114,-4.74342 3.16228,-6.32456 3.16228,-6.32456l3.78023,-1.19202c2.93171,-0.0498 11.42905,-0.91503 13.33645,1.3999c1.71306,2.07907 1.43345,5.29681 1.24993,7.98445c-0.08188,1.19906 -1.5998,1.86674 -2,3c-0.24078,0.68181 0.30447,1.45023 0.17708,2.162c-0.3565,1.99181 -0.249,4.35661 -1.61154,5.85258c-1.9828,2.17697 -4.83052,5.07537 -7.68567,4.35508c-6.01642,-1.5178 -2.95262,-10.47819 -7.43883,-12.65832c0,0 -1.68382,-1.12254 -2.19484,-3.01056z" fill="#ffffff" stroke="none" stroke-width="0.5"/><path d="M251.46385,195.42458l-0.76345,0.3145c-2.26404,-3.45427 -6.09463,-5.87837 -4.74867,-11.00086c1.54349,-5.87428 7.36606,-4.75456 11.59706,-4.75456c1.11898,0 2.2542,-0.18993 3.35695,0c2.29358,0.39502 5.29816,-0.06746 6.76107,1.74263c1.32077,1.63423 -0.00194,4.2132 -0.26251,6.29821c-0.36568,2.92609 -2.49754,5.33266 -3.25386,8.0295c-0.24069,0.85823 0.47677,1.94748 -0.04001,2.67373c-0.2182,0.30664 -0.44616,0.60515 -0.68225,0.8969l0.23653,0.14192l-2.47814,4.13024c-0.72481,1.25707 -2.08247,2.10321 -3.63777,2.10321c-1.88761,0 -3.48411,-1.24637 -4.01145,-2.96103l-0.80864,-2.42591c-0.33346,-1.0575 -0.80839,-2.08042 -1.00039,-3.17251c-0.11174,-0.63561 -0.15991,-1.33935 -0.26446,-2.01597z" fill="#ffffff" stroke="none" stroke-width="0.5"/></g></g></svg>