<svg version="1.1" xmlns="http://www.w3.org/2000/svg" xmlns:xlink="http://www.w3.org/1999/xlink" width="41.2319" height="79.33333" viewBox="0,0,41.2319,79.33333"><g transform="translate(-219.38405,-140.33334)"><g data-paper-data="{&quot;isPaintingLayer&quot;:true}" fill-rule="nonzero" stroke="none" stroke-linecap="butt" stroke-linejoin="miter" stroke-miterlimit="10" stroke-dasharray="" stroke-dashoffset="0" style="mix-blend-mode: normal"><path d="M219.38405,196.66667c0,-5.70338 0,-22.22244 0,-32.66667c0,-5.27474 5.22195,-9 9.22292,-9c4.38394,0 14.68403,0 22.42436,0c5.41981,0 9.58461,4.28711 9.58461,8c0,5.38105 0,20.75834 0,31.33333c0,6.1438 -5.22195,10.66667 -9.22292,10.66667c-4.45259,0 -15.00805,0 -22.78604,0c-5.24231,0 -9.22292,-4.49454 -9.22292,-8.33333z" fill="#ff0000" stroke-width="NaN"/><path d="M229.83333,219.66667v-79.33333h20.33333v79.33333z" fill="#b1b1b1" stroke-width="0"/><path d="M222.21809,164.4c-0.93313,-1.05 -0.23329,-2.45 -0.23329,-2.45l0.87099,-1.64985c1.7435,-1.94111 2.61518,-1.71681 4.72777,-1.71681c0,0 1.16641,0 1.16641,1.75c0,1.75 -1.16641,1.75 -1.16641,1.75c-1.50096,0 -2.1806,-0.53749 -3.27047,0.94985l-0.46204,1.01681c0,0 -0.69985,1.4 -1.63298,0.35z" fill="#ff7373" stroke-width="0.5"/><path d="M220.94927,168.48189c0,-0.9665 0.57668,-1.75 1.28804,-1.75c0.71137,0 1.28804,0.7835 1.28804,1.75c0,0.9665 -0.57668,1.75 -1.28804,1.75c-0.71137,0 -1.28804,-0.7835 -1.28804,-1.75z" fill="#ff7373" stroke-width="0.5"/></g></g></svg>