<svg version="1.1" xmlns="http://www.w3.org/2000/svg" xmlns:xlink="http://www.w3.org/1999/xlink" width="47.22753" height="82.7145" viewBox="0,0,47.22753,82.7145"><g transform="translate(-216.20103,-124.64256)"><g data-paper-data="{&quot;isPaintingLayer&quot;:true}" fill-rule="nonzero" stroke-linecap="butt" stroke-linejoin="miter" stroke-miterlimit="10" stroke-dasharray="" stroke-dashoffset="0" style="mix-blend-mode: normal"><path d="M253.3701,190.04662c3.06705,-0.85555 6.41373,1.5352 7.47504,5.33989c1.06132,3.80468 -0.56467,7.58254 -3.63172,8.43809c-3.06705,0.85555 -6.41373,-1.5352 -7.47504,-5.33989c-1.06132,-3.80468 0.56467,-7.58254 3.63172,-8.43809z" data-paper-data="{&quot;index&quot;:null}" fill="#000000" stroke="#ffffff" stroke-width="5"/><path d="M219.07143,180c0,-11.55853 9.37004,-20.92857 20.92857,-20.92857c11.55853,0 20.92857,9.37004 20.92857,20.92857c0,11.55853 -9.37004,20.92857 -20.92857,20.92857c-11.55853,0 -20.92857,-9.37004 -20.92857,-20.92857z" fill="#000000" stroke="#ffffff" stroke-width="5"/><path d="M227.0977,197.74535c-1.52771,3.46688 -4.69334,5.42811 -7.07063,4.38055c-2.37729,-1.04756 -3.06601,-4.70726 -1.5383,-8.17415c1.52771,-3.46688 4.69334,-5.42811 7.07063,-4.38055c2.37729,1.04756 3.06601,4.70726 1.5383,8.17415z" fill="#000000" stroke="#ffffff" stroke-width="5"/><path d="M243.34848,199.97891c-1.12129,3.48173 -4.30555,5.57147 -7.11225,4.66758c-2.8067,-0.9039 -4.17299,-4.45914 -3.0517,-7.94087c1.12129,-3.48173 4.30555,-5.57147 7.11225,-4.66758c2.8067,0.9039 4.17299,4.45914 3.0517,7.94087z" fill="#000000" stroke="#ffffff" stroke-width="5"/><path d="M252.52855,182.01237c-2.47487,0.35355 -2.82843,-2.12132 -2.82843,-2.12132l-0.19606,-1.37341c-0.14229,-1.31341 -0.78679,-2.6092 -1.66396,-3.59705c0,0 -1.58309,-1.93489 0.3518,-3.51799c1.93489,-1.58309 3.51799,0.3518 3.51799,0.3518c1.34916,1.73651 2.34346,3.83925 2.73604,6.00295l0.20394,1.42659c0,0 0.35355,2.47487 -2.12132,2.82843z" fill="#225db1" stroke="none" stroke-width="0.5"/><path d="M243.986,183.80348c-2.46598,0.411 -2.87698,-2.05499 -2.87698,-2.05499l-0.17852,-1.08717c-0.30548,-1.50124 -0.80044,-2.9907 -1.55023,-4.32669c0,0 -1.19713,-2.19474 0.99761,-3.39187c2.19474,-1.19713 3.39187,0.99761 3.39187,0.99761c0.94684,1.77387 1.61266,3.71065 2.04977,5.67331l0.22148,1.31283c0,0 0.411,2.46598 -2.05499,2.87698z" fill="#225db1" stroke="none" stroke-width="0.5"/><path d="M225.5902,177.23536c-2.29786,-0.9848 -1.31306,-3.28266 -1.31306,-3.28266l0.66179,-1.53324c1.70915,-3.2692 3.41325,-4.5346 6.44932,-6.56209c0,0 2.08013,-1.38675 3.46688,0.69338c1.38675,2.08013 -0.69338,3.46688 -0.69338,3.46688c-2.33697,1.55512 -3.5728,2.11333 -4.75068,4.63791l-0.53821,1.26676c0,0 -0.9848,2.29786 -3.28266,1.31306z" fill="#ececec" stroke="none" stroke-width="0.5"/><path d="M237.075,164.9375c0,-1.38071 1.11929,-2.5 2.5,-2.5c1.38071,0 2.5,1.11929 2.5,2.5c0,1.38071 -1.11929,2.5 -2.5,2.5c-1.38071,0 -2.5,-1.11929 -2.5,-2.5z" fill="#ececec" stroke="none" stroke-width="0.5"/><path d="M245.83956,176.96424c0,1.25 -1.25,1.25 -1.25,1.25h-0.75c0,0.47222 0,0.94444 0,1.41667v0.66667c0,0 0,1.25 -1.25,1.25c-1.25,0 -1.25,-1.25 -1.25,-1.25c0,-0.554 0,-1.17274 0,-1.81588c-0.03791,0.00929 -0.07574,0.01881 -0.1135,0.02856c0,0 -1.21268,0.30317 -1.51585,-0.90951c-0.30317,-1.21268 0.90951,-1.51585 0.90951,-1.51585c0.23811,-0.05798 0.47825,-0.10946 0.71984,-0.15423c0,-0.57744 0,-1.13178 0,-1.63309c0,0 0,-1.25 1.25,-1.25c1.25,0 1.25,1.25 1.25,1.25c0,0.47222 0,0.94444 0,1.41667h0.75c0,0 1.25,0 1.25,1.25z" fill="#ff0000" stroke="none" stroke-width="0.5"/><path d="M254.83956,174.29757c0,1.25 -1.25,1.25 -1.25,1.25l-0.75,-0.02412c0,0.48026 0,0.96052 0,1.44078v1.33333c0,0 0,1.25 -1.25,1.25c-1.25,0 -1.25,-1.25 -1.25,-1.25c0,-0.55567 0,-1.2416 0,-1.97636c-0.06409,0.03066 -0.12776,0.06212 -0.19098,0.09439c0,0 -1.11803,0.55902 -1.67705,-0.55902c-0.55902,-1.11803 0.55902,-1.67705 0.55902,-1.67705c0.42426,-0.2086 0.86216,-0.39162 1.30902,-0.55117c0,-0.74273 0,-1.43648 0,-1.99746c0,-0.15799 0.02931,-0.30913 0.08279,-0.44828c0.12183,-0.35858 0.42295,-0.80172 1.16721,-0.80172c0.74426,0 1.04538,0.44314 1.16721,0.80172c0.05348,0.13916 0.08279,0.2903 0.08279,0.44828c0,0.4771 0,0.95419 0,1.43129l0.75,-0.01462c0,0 1.25,0 1.25,1.25z" fill="#ff0000" stroke="none" stroke-width="0.5"/><path d="M227.69381,131.83234c2.7684,-3.44723 5.69968,-9.72386 11.36098,-6.09718c1.44546,0.92597 3.26082,2.18249 3.3681,3.89575c0.09609,1.53451 -1.85376,2.46015 -2.89954,3.58722c-0.28226,0.3042 -0.57075,0.6079 -0.86443,0.91039c2.52569,2.31897 5.37375,4.15936 7.88144,6.57689c0.99637,-0.49774 1.71522,-1.39304 1.93358,-2.9105c0.10277,-0.71418 -0.0459,-1.44249 -0.05106,-2.164c-0.01134,-1.58793 -0.19508,-3.18943 -0.59202,-4.72699l-0.00908,0.49476c0,0 -1.76777,-1.76777 0,-3.53553c1.76777,-1.76777 3.53553,0 3.53553,0l1.32426,1.82809c1.31502,5.40062 1.26081,11.30176 -2.97359,14.53385c1.84735,2.25263 3.58225,4.58435 5.64934,6.63806c0,0 1.76777,1.76777 0,3.53553c-1.76777,1.76777 -3.53553,0 -3.53553,0c-2.52868,-2.54292 -4.67094,-5.39596 -6.99705,-8.11122c-2.00583,0.35071 -4.03586,0.17649 -6.02756,-0.19905c-1.96369,-0.37026 -2.0404,-1.11982 -3.82617,-0.18781c-3.04714,1.59033 -5.56835,4.78609 -7.94701,7.16475c0,0 -1.76777,1.76777 -3.53553,0c-1.76777,-1.76777 0,-3.53553 0,-3.53553c2.71885,-2.71885 5.76972,-6.5871 9.38632,-8.16858c1.16714,-0.51037 2.44141,-0.86202 3.71478,-0.89698c0.66974,-0.01839 1.56919,0.11536 2.57562,0.27762c-1.37551,-1.05439 -2.78533,-2.01425 -4.11242,-3.17604c-0.50824,0.45069 -1.01944,0.89131 -1.5294,1.31897c0,0 -1.92055,1.60046 -3.52101,-0.32009c-0.06042,-0.07251 -0.11583,-0.14456 -0.16651,-0.21608c-0.17462,-0.05515 -0.34095,-0.12895 -0.49667,-0.21906c-0.02754,0.0009 -0.05519,0.00135 -0.08294,0.00135c-1.38071,0 -2.5,-1.11929 -2.5,-2.5c0,-0.22872 0.03071,-0.45026 0.08824,-0.66073l0.65307,-2.61228l0.20153,0.05038z" fill="#ff0000" stroke="none" stroke-width="0.5"/></g></g></svg>