<svg version="1.1" xmlns="http://www.w3.org/2000/svg" xmlns:xlink="http://www.w3.org/1999/xlink" width="1160.41746" height="858" viewBox="0,0,1160.41746,858"><defs><radialGradient cx="240.00001" cy="180" r="414.25" gradientUnits="userSpaceOnUse" id="color-1"><stop offset="0" stop-color="#000000"/><stop offset="1" stop-color="#000000" stop-opacity="0"/></radialGradient><radialGradient cx="237.00001" cy="184.5" r="426.5" gradientUnits="userSpaceOnUse" id="color-2"><stop offset="0" stop-color="#000000"/><stop offset="1" stop-color="#000000" stop-opacity="0"/></radialGradient><radialGradient cx="240.00001" cy="180" r="414.25" gradientUnits="userSpaceOnUse" id="color-3"><stop offset="0" stop-color="#000000"/><stop offset="1" stop-color="#000000" stop-opacity="0"/></radialGradient><radialGradient cx="240.00001" cy="180" r="414.25" gradientUnits="userSpaceOnUse" id="color-4"><stop offset="0" stop-color="#000000"/><stop offset="1" stop-color="#000000" stop-opacity="0"/></radialGradient><radialGradient cx="240.00001" cy="180" r="414.25" gradientUnits="userSpaceOnUse" id="color-5"><stop offset="0" stop-color="#000000"/><stop offset="1" stop-color="#000000" stop-opacity="0"/></radialGradient></defs><g transform="translate(327.76439,244.5)"><g data-paper-data="{&quot;isPaintingLayer&quot;:true}" fill-rule="nonzero" stroke-linecap="butt" stroke-linejoin="miter" stroke-miterlimit="10" stroke-dasharray="" stroke-dashoffset="0" style="mix-blend-mode: normal"><path d="M646.05608,359.7819l-226.27417,226.27417l-585.83797,-585.83797l226.27417,-226.27417z" fill="url(#color-1)" stroke="none" stroke-width="0"/><path d="M586.0798,-68.21129c2.65394,0.76948 5.08047,2.074 7.15512,3.78909c1.80788,1.33119 3.43917,2.8563 4.81724,4.4764c8.43465,9.91602 10.04376,31.75381 12.16835,43.56782c0.72776,4.04681 5.40413,18.85159 5.40413,23.49601c0,0.57057 -0.0052,1.15287 -0.01798,1.7438l7.14769,15.96628l0.0542,0.16285l0.54206,0.87419l0.2109,1.38847l0.18449,0.5544l0.29487,2.60148l0.39318,2.58845l-0.03367,0.58333l0.15818,1.39547l-0.29555,0.98524l-0.00989,0.17134l-22.67362,142.94234l0.03238,0.25305l-0.16398,0.57663l-0.19478,1.22798l-0.79821,3.03746l-0.50725,1.01016l-0.30918,1.08725l-1.4654,2.77775l-0.68669,1.03652l-0.26901,0.53573l-0.19493,0.16457l-51.43558,77.63861l-0.31628,0.75905l-1.00902,0.98175l-1.07492,1.31634l-1.6078,1.29388l-1.47916,1.43919l-1.43688,0.9075l-1.09677,0.88263l-0.79179,0.22197l-13.27421,6.63711v49.1392l-0.03025,0.3025l0.02107,0.30328l-0.99621,32.87484l0.11327,0.90613l-0.40178,1.39751l-0.12229,0.93563l-0.80188,2.27885l-0.66751,2.32177l-0.44269,0.83329l-0.48266,1.37168l-0.61753,0.67272l-4.39588,6.59383l-0.28712,1.13053l-1.14848,1.02286l-0.09906,0.14859l-1.99345,2.42681l-5.63367,4.50694l-8.75386,2.42681l-1.50206,-0.50451l-1.55304,0.31431l-8.38525,-3.49386l-5.03115,-5.17091l-1.67705,-2.65533l-0.07986,-0.15973l-1.01274,-1.15742l-0.14468,-1.15742l-3.04329,-6.08658l-0.33089,-0.38313l-0.24381,-0.76626l-0.14473,-0.28947l-1.11803,-2.93484l-0.23031,-1.46822l-0.45061,-1.41621l-0.3125,-3.125v-0.32363l-0.12461,-0.7944l0.12461,-0.49066v-10.74526l-0.06041,0.23517l-0.15552,1.04976l-0.76709,3.04546l-0.27237,0.55655l-0.54898,2.13703l-1.36559,1.77504l-0.98446,2.01158l-1.6713,1.44049l-0.37782,0.49111l-2.38853,2.03917l-0.87165,0.60531l-1.57161,1.35457l-0.45608,0.05355l-33.10066,22.98657l-2.74503,1.52581l-0.58575,0.18051l-0.52599,0.31468l-2.97035,1.01994l-13.54818,3.18781l-9.14406,18.28812l-0.16234,0.25704l-0.11678,0.28069l-14,26l-0.54321,0.805l-0.01847,0.04441l-0.60145,0.87427l-0.59358,0.87964l-0.03457,0.03344l-0.55042,0.80009l-9.17703,10.84558l-0.2157,0.79807l-1.91308,1.6522l-1.95132,1.88787l-0.85858,0.53887l-2.15202,1.85856l-1.64131,0.52223l-1.45886,0.91562l-2.80888,0.4423l-0.96596,0.30735l-2.70161,0.27016l-2.49701,0.39319l-0.74857,-0.35085h-3.17781l-2.06478,-0.20648l-1.91545,0.27174l-3.83965,-1.87159l-2.18012,-0.69368l-0.98086,-0.8471l-1.16499,-0.56786l-1.49638,-1.7306l-3.23277,-2.79194l-0.50476,-1.86762l-1.00314,-1.81649l-8.35442,-19.49365l-0.29984,-0.3897l-0.19887,-0.77397l-0.14686,-0.34268l-0.94376,-2.99543l-0.14157,-1.45738l-0.3644,-1.41818l-0.1354,-3.13767l0.02107,-0.37223l-0.07726,-0.79536l0.14881,-0.46865l0.47273,-8.35155l-36.81113,-7.50934l-0.44412,-0.13782l-1.20186,-0.10917l-1.15019,-0.62073l-0.20329,-0.06309l-2.4879,-1.3893l-2.50764,-1.35334l-0.16236,-0.13766l-1.14113,-0.63723l-0.73725,-0.95544l-0.35468,-0.30073l-0.13622,-0.14108l-0.79345,0.37949l-0.77269,0.03233l-37.91892,9.4201l-2.48449,0.35983l-0.17543,0.04654l-0.22514,0.01148l-0.2231,0.03231l-0.18112,-0.01171l-2.50716,0.12779l-39.95249,-1.9489l-1.52494,-0.22799l-1.53366,-0.15911l-20.13838,-4.14613l-5.65426,6.58555l-0.93819,0.89469l-0.87362,0.95784l-49,44l-1.08503,0.79447l-1.03128,0.86309l-24.00405,16.32275l-0.46511,0.49572l-1.01713,0.44562l-2.27358,1.23471l-1.69641,0.50461l-1.62112,0.71024l-2.53327,0.52552l-1.06437,0.31661l-0.67525,-0.07812l-17.80222,1.87392l-3.14054,0.01636l-0.08597,-0.01771l-0.08742,0.00784l-3.11838,-0.37285l-16.79096,-3.73132l-0.66671,0.00249l-0.98422,-0.41679l-2.5409,-0.83734l-1.50995,-0.87807l-1.60843,-0.68112l-2.19441,-1.53031l-0.92396,-0.53731l-0.39804,-0.53487l-20.05963,-17.19397l-1.45391,-1.52206l-0.17781,-0.14225l-0.25744,-0.3134l-0.28015,-0.29328l-0.11982,-0.19363l-1.33605,-1.6265l-22,-33l-0.73838,-1.38989l-0.12037,-0.15834l-0.29303,-0.61982l-0.32165,-0.60545l-0.05495,-0.19116l-0.67267,-1.42285l-2.22989,-6.26494l-57.38768,1.55102l-1.96394,-0.14293l-1.96423,-0.13879l-64,-11l-2.80021,-0.77462l-0.08117,-0.01387l-0.07144,-0.02834l-0.07408,-0.02049l-0.07311,-0.0379l-2.70062,-1.07139l-26.0969,-13.49839l-0.60187,-0.004l-1.82347,-1.25049l-0.47777,-0.24712l-2.63211,-1.71326l-0.5483,-0.5483l-2.01,-1.37841l-1.09626,-1.72786l-1.44694,-1.44694l-0.90649,-2.26238l-0.41542,-0.65475l-1.0975,-2.94258l-0.13689,-0.52018l-0.82237,-2.05243l0.12746,-0.58823l-4.1682,-15.83916l-0.49308,-3.10164l0.05077,-1l-0.63386,-2.24364l0.88354,-2.67393l0.06538,-1.28778l1.10926,-2.26713l0.79188,-2.39651l0.85356,-0.96647l1.23766,-2.52957l2.02179,-1.16106l0.66282,-0.7505l2.52098,-1.87296l132,-79l1.9197,-0.9029l0.19079,-0.12294l0.3716,-0.14158l0.35984,-0.16925l0.22093,-0.05202l1.98243,-0.75528l20.14506,-5.4528l-1.23867,-0.33591l-0.54001,-0.27649l-0.59037,-0.13971l-2.84045,-1.33983l-20,-12l-1.81153,-1.34901l-1.43014,-0.86276l-1.8982,-2.63835l-2.14883,-2.43856l-0.52226,-1.58647l-0.91125,-2.06667l-16,-49l-0.67294,-3.06764l-0.00168,-0.22198l-0.06279,-0.21292l-0.24595,-3.13094l0.40179,-18.8841l-1.54841,-1.54841l-0.81285,-0.99348l-1.16953,-1.05526l-1.58417,-3.43236l-1.73676,-3.35773l-0.11495,-1.57104l-0.28517,-1.25157l-4,-32l-0.01619,-0.65583l-0.28652,-1.27971l0.77225,-4.14853l0.77082,-4.1488l0.72743,-1.09114l0.25089,-0.60616l51.89976,-96.81302l0.29676,-0.85837l0.98087,-1.08038l0.57451,-0.85478l1.70076,-1.65131l1.59344,-1.75509l0.83506,-0.60281l1.04694,-1.0165l0.84796,-0.32533l149.81648,-86.89356l2.29793,-1.04254l0.15351,-0.0922l0.20809,-0.07185l0.20048,-0.09095l0.17485,-0.03865l2.38518,-0.8236l78.94467,-18.71884l7.90334,-10.12616l2.01787,-2.1129l0.04747,-0.06086l0.05451,-0.04592l0.04922,-0.05154l0.0637,-0.04358l2.23454,-1.88229l10.46583,-7.1658l-45.18075,-39.71534l-38.08339,33.40649l-1.05722,8.45782l-0.6977,3.06211l-3.02335,6.55059l-6.74439,6.08545l-11.86082,1.66672l-11.0856,-4.53502l-5.03891,-7.55837l-1.31787,-7.09323l0.07752,-3.13963l2,-16l0.56463,-2.47807l0.22318,-1.60264l1.61927,-2.68505l1.31397,-2.84693l1.20135,-1.08398l1.73441,-1.85781l57,-50l2.55532,-1.82582l3.2945,-1.43981l2.29833,-1.52467l5.05087,0.04421l5.05092,-0.03896l2.29676,1.52706l3.293,1.44322l2.55343,1.82847l66.02055,58.0342l64.6801,-44.28548l0.12587,-0.1561l0.45409,-0.24099l1.21609,-0.83264l2.75506,-1.50762l1.01305,-0.30487l0.93449,-0.49594l3.01869,-0.86648l1.45006,-0.26365l0.49227,-0.14814l0.19927,0.02241l63.8584,-11.61062l3.1305,-0.25156l2.15278,0.27751l1.17022,-0.14072l0.96021,0.41534l2.87221,0.37025l5.56465,3.27917l1.59594,0.69033l0.25589,0.40092l0.40977,0.24147l0.74664,1.57038l3.47496,5.44454l0.47214,2.85723l0.44922,0.94483l-0.09902,1.17448l0.35388,2.14155l-0.14009,3.13746l-15.14521,104.23467l17.64245,-15.78535l0.21051,-0.32509l0.61455,-0.41312l0.54955,-0.4917l2.53725,-1.85084l1.19715,-0.53727l1.089,-0.73206l2.9125,-1.175l0.70792,-0.20648l0.67559,-0.30319l0.38724,-0.0068l94.22926,-27.48353l3.0875,-0.575l3.42468,0.0831l2.74598,-0.43457l4.64254,2.17157l4.6618,2.1299l1.44783,2.3734l2.28186,2.55508l1.56209,2.72455l34.8576,77.86372c1.85185,0.10696 3.68951,0.49201 5.46786,1.09688zM136.16314,32.48369c2.84753,-4.03946 7.61248,-11.93046 12.19472,-16.62583c4.35492,-4.46244 8.73084,-8.91798 12.77771,-13.66155c11.57834,-13.57163 32.00122,-13.01518 37.47277,7.04718c3.76147,13.79205 -13.51361,24.89109 -20.79577,33.7282c-2.16358,2.62557 -4.09509,5.43015 -6.01074,8.24608l34.19024,-16.84372l33.82644,-31.71229l0.02064,-0.08194l0.04923,-0.50211l3.85117,-19.25584l0.0053,-0.8199l0.561,-1.288l0.50182,-1.63928l0.9964,-1.80051l0.82174,-1.88664l0.99494,-1.39613l0.68024,-1.22921l0.6472,-0.50338l6.50026,-7.42887l1.87973,-1.75923l1.07842,-1.19519l2.8358,-1.30883l2.67255,-1.61625l1.59414,-0.22401l2.51021,-0.57195l8,-1l3.13963,-0.07752l0.65944,0.12252l0.66986,-0.03401l3.10163,0.49308l3.30449,0.8696l3.44877,-3.23322l-9.62868,-40.17483l-2.45771,-2.01532l-60.69048,-7.80306l-0.84337,0.19997l-105.86127,135.63476l4.65801,24.11812c5.32123,-11.4873 12.99898,-21.92644 20.64353,-32.77088zM261.61927,154.24474c1.27223,0.19841 2.54353,0.40267 3.81414,0.61135l2.92613,-9.65622l0.47011,-1.13108l0.02641,-0.12324l0.36494,-0.81834l0.34389,-0.8274l0.0714,-0.10386l0.49887,-1.1187l9.97366,-17.4539l-9.35492,0.99219l-3.89506,2.77149c-3.6599,8.68523 -7.30809,17.37303 -10.94574,26.05834c2.03441,0.26145 3.98111,0.53034 5.70618,0.79938zM426.00904,308.91819c-2.04058,-0.70146 -4.05782,-1.3884 -6.049,-2.07544l-35.68087,23.34559l-0.06023,0.12165l-0.95353,0.54164l-2.39977,1.57014l-2.46992,1.28498l15.39227,2.56538l2.5752,0.69836l0.14626,0.02294l0.15233,0.05803l0.15732,0.04266l0.13178,0.06747l2.49341,0.94987l4.71454,2.35727l22.56487,-15.89076l0.77631,-6.728v-6.12861l-1.38284,-2.76569c-0.0369,-0.01289 -0.07294,-0.02539 -0.10812,-0.03748zM99.00156,395.02785l-0.68143,0.12702l-1.1226,-0.25106l-2.47659,-0.33132l-1.69061,-0.60065l-1.75089,-0.39157l-2.27285,-1.038l-0.476,-0.16911l-8.80456,-2.20114l-53.07268,14.15271l-1.34638,0.21857l-0.15111,0.05262l-0.80324,0.10231l-0.79927,0.12975l-0.15983,-0.00759l-1.35308,0.17234l-9.01253,0.24358l13.5827,20.37405l15.10894,12.95052l9.93281,2.20729l10.75667,-1.13228l19.7308,-13.41694l34.0958,-30.61663zM398.79293,0.2754l0.32604,0.32007l0.29835,0.72511l0.25232,0.42236l1.3344,2.843l0.32265,1.37518l0.37373,0.90831l8.65024,1.08128l1.30392,-10.43137l0.6977,-3.06211l0.10314,-0.22347l0.03814,-0.24316l1.11803,-2.93484l3,-6l0.10606,-0.16793l0.28248,-0.88779l1.03548,-1.19898l0.25303,-0.40062l0.82731,-0.85029l3.82168,-4.42511l1.80143,-0.48687l5.14181,-2.14242l6.85182,-44.53685l0.42171,-1.63571l0.37206,-1.64771l5,-15l1.28468,-2.86581l1.03923,-1.42592l0.95311,-1.72229l-4.34845,1.2683l-64.14198,57.39019zM471.17142,-98.75351l4.97614,2.47385l0.7494,1.32427l0.90867,0.60278l1.5163,3.68245l1.29953,2.29642l0.1308,1.17724l0.51211,1.24369l-0.04104,2.99592l0.19485,1.75365l-0.30643,3.1256l-3.92538,19.6269l-8.68623,54.04767v29.94652l17.61459,8.40696l2.68565,1.62806l0.02187,0.02051l0.02693,0.01318l2.4744,1.93407l26.1546,25.01391l8.24645,-9.03938l1.96677,-1.76567l0.10254,-0.1148l0.13918,-0.1022l0.1285,-0.11536l0.13334,-0.07691l2.1304,-1.56435l22,-13l1.12364,-0.52083l1.29878,-0.86585l3.74558,-0.6959l3.71309,-0.8524l1.5361,0.27737l1.2381,0.03057l8,1l0.03359,0.00765l1.53942,-0.21265l7.07648,3.48148l0.9632,0.44456l0.04757,0.05273l0.06373,0.03135l0.50638,0.58999l0.60391,-3.80728l-67.4475,-150.66195l-48.32052,14.09349zM539.58453,107.88722l3.41064,3.94916l1.39352,1.2411l1.43925,5.66705l0.35971,1.13051l0.04715,0.47149l0.38996,1.53548l-0.14438,0.9204l0.01976,0.19764v12l-0.10264,1.02643l-0.00352,1.03155l-0.57047,5.51459l17.35094,-53.63019l-4.10786,-9.6828l-5.81141,3.43402l-14.99517,16.43701zM405.78704,51.03174l0.20813,-3.3142l-0.48648,-0.06081zM468.50001,99.24437l0.48383,0.79371l0.71126,0.87768l0.91691,1.79324l1.49171,2.44708l-0.04443,0.94392l1.71049,4.37125l16.74239,-18.35224l-22.01215,-21.05214zM338.14277,-89.51723l20.57162,-19.2859l11.99345,-82.54315l-34.43067,6.26012l-54.55085,37.35013l26.97809,23.71461l0.42932,0.46082l1.05368,0.75735l0.64148,1.06222l0.01631,0.0175l1.53381,2.54932l1.53801,2.54678l0.00786,0.0226l0.63972,1.06327l0.17765,1.28541l0.207,0.59483l1.52887,6.37908zM362.94933,18.27121l-13.59928,-22.76401l-5.25148,12.92672l0.27504,2.01646l-0.03869,0.53037l0.09285,0.52361l-0.10325,3.13889l-0.41844,3.13824l1.05735,6.34373l0.20358,0.46349l0.00768,0.80408l0.05321,0.31923l0.20549,3.13386l-0.18807,1.30711l18.98784,3.79756l0.00916,-0.00185zM74.94732,21.62377l0.65108,-0.31833l78.8606,-101.04014l-27.47542,6.51479l-103.5971,60.08632l22.16201,5.78139l0.37745,0.13986l1.15915,0.16289l1.13831,0.6884l0.27001,0.10005l2.36835,1.49554l2.39681,1.4495l0.21024,0.19676l1.12479,0.71026l0.66408,0.96394l0.2939,0.27506l12.48529,14.2689l0.10734,0.06587l0.2108,0.29772l1.19657,1.3675l1.82264,2.55759l0.38374,0.88101l0.5553,0.78428l1.2453,2.88314l0.43096,1.35445zM80.73422,96.08195l-0.18347,-0.94996l-0.04245,1.06126zM-88.29662,366.49639l-0.16562,-2.28182l0.42223,-1.22531l0.09458,-1.29256l1.05108,-2.03208l1.39163,-4.03846l1.54658,-1.16228l1.31402,-1.60602l12.86248,-12.86248l0.25883,-0.43506l0.64984,-0.47361l0.22884,-0.22884l2.43068,-1.98874l1.32005,-0.68278l1.20104,-0.87534l2.86581,-1.28468l0.30703,-0.10234l0.71423,-0.36943l0.50489,-0.03694l7.79846,-2.59949v-22.91797l0.14703,-1.4703l0.07117,-1.47592l3.31441,-22.25388l-113.17184,67.73163l14.07799,7.28172l58.66216,10.08256zM54.43232,285.73809l-0.64257,1.05148l-1.26545,9.80723l13.90334,-7.31755c-0.90304,-1.01457 -1.73307,-2.09916 -2.48023,-3.23909zM35.50001,83h-1.88119l-7.8173,1.67513l-13.0109,9.39677l-9.47809,10.1551l-3.81251,12.70837v2.69779l35.57988,-9.7036l5.5439,-17.42367l0.41127,-10.28168c-1.75777,0.50518 -3.6148,0.7758 -5.53504,0.7758zM198.5835,89.59968l-49.65561,22.87506l46.36545,-17.49115zM-3.25374,179.8322l-0.76726,0.01352l-1.226,-0.49921l-1.95263,-0.57211l-1.70759,-0.91828l-1.79569,-0.73118l-1.68497,-1.1406l-1.16586,-0.62695l-0.47839,-0.60002l-9.52027,-7.93356l-0.12791,-0.05329l-0.27408,-0.2817l-1.34926,-1.12438l-1.63135,-1.66102l-23.25551,-3.87592l11.38452,34.86508l10.33975,6.20385l10.77335,1.79556l17.509,-22.28418zM-40.49993,114.00002l0.2479,-2.47902l-0.00306,-0.18493l0.04445,-0.22897l0.02321,-0.23208l0.05608,-0.17625l0.47489,-2.44571l5.52142,-18.40472l0.01846,-0.47834l0.34026,-0.7174l0.11986,-0.39955l1.19728,-2.90341l0.81521,-1.19283l0.61914,-1.3054l1.90379,-2.49777l0.28462,-0.30495l0.448,-0.65554l0.40379,-0.2571l12.86359,-13.78241l1.45882,-1.28001l1.45247,-1.28721l16.17227,-11.67997l0.09276,-0.1227l0.3694,-0.21108l1.36558,-0.98625l2.71634,-1.57632l0.94715,-0.31118l0.86559,-0.49462l2.99015,-0.96034l1.6471,-0.35294l0.40419,-0.1328l0.15324,0.01335l11.79548,-2.52761l1.00632,-0.11259l0.05926,-0.01886l1.0284,-0.10284l1.02713,-0.11492l0.0619,0.00602l1.00757,-0.10075h4c0.96717,0 1.9183,0.06865 2.8488,0.20135l-1.64401,-5.16689l-7.20553,-8.23489l-13.74243,-3.58498l-14.92499,1.24375l-19.57029,14.49651l-18.39699,27.99542l-13.42636,45.16732l-0.08685,4.08175l10.14864,1.69144z" fill="#040404" stroke="none" stroke-width="0.5"/><path d="M-254.83896,260.44663l-0.29222,-3.46605l-0.9782,-3.07433l-0.39062,-3.90625v-1.16941l-0.569,-1.57458l0.89877,-3.55376l0.06085,-0.6085l0.45354,-1.42541l1.37095,-5.42076l0.60672,-0.79477l0.30317,-0.95281l3.65467,-4.23173l0.90765,-1.18897l0.4636,-0.3988l2.39595,-2.77425l1.61624,-0.43682l49.43333,-34.60333l-27.2295,-33.17048l-0.46613,-0.34391l-0.60401,-1.02889l-1.49666,-2.24654l-0.37616,-0.94371l-2.12204,-3.61477l0.09389,-1.4734l-0.26705,-0.66996l0.22712,-9.08119l3.76797,-5.28375l3.61901,-5.38686l8.41988,-3.40957l0.72108,0.0141l1.34602,-0.60658l4.13041,0.71363l1.01573,0.01985l2.62961,0.60997l1.17566,0.20313l0.486,0.31521l25.9952,8.83431l-1.50872,-36.2091l-0.29299,-0.52011l0.17963,-2.2007l-0.02309,-0.55409l0.18213,-3.1353l0.20274,-0.7429l0.19761,-2.42092l0.95853,-1.81561l0.54052,-1.98067l1.50972,-1.90281l0.35952,-0.68099l2.00909,-2.41388l0.39542,-0.38883l1.37239,-1.72971l0.56929,-0.17961l14.84355,-14.59615l1.39526,-5.20897l-69.48113,-6.7294l-0.95601,-0.19003l-1.28109,0.00377l-8.36213,-3.54886l-1.30642,-2.01611l-4.07737,-4.27375l-0.46148,-2.73075l-0.66805,-1.03095l-0.19064,-4.05021l-0.67564,-3.998l0.43335,-1.1495l-0.13021,-2.7664l3.07449,-5.04355l0.84745,-2.24794l7.41536,-5.24709l1.25255,-0.26894l0.89367,-0.38913l27.33412,-8.78597l-0.14527,-0.19932l-3.40923,-3.9143l-0.22345,-1.82145l-0.01999,-0.04459l-0.30453,-0.27122l-0.36547,-1.43905l-0.52341,-1.57024l-9.05327,-7.57141l-0.28988,-0.29619l-0.88603,-0.55207l-0.85902,-1.23097l-0.16176,-0.16528l-0.47479,-0.74689l-3.70297,-5.30635l-0.03119,-2.10745l-1.12614,-6.89305l0.99231,-2.14931l-0.01223,-0.82624l2.17948,-3.86794l1.861,-4.03085l0.67714,-0.4736l1.16213,-2.06244l6.24849,-3.12069l1.72715,-1.208l6.46984,-0.10263l0.88349,-0.05209l0.22869,0.03444l1.50087,-0.02381l0.96618,0.3954l0.40982,0.06173l15.46463,3.93502l1.04176,-0.62736l10.39774,-4.92524h-35.08719l-2.50023,0.54353l-1.57394,0.18084l-1.56526,0.24484l-18,1l-3.13752,-0.13868l-0.76183,-0.1966l-2.01766,-0.06005l-2.2418,-1.03917l-1.96446,-0.50696l-1.31251,-1.01205l-2.72287,-1.26216l-0.94234,-1.56402l-2.21605,-1.70876l-1.44447,-4.36668l-1.57837,-2.61965l-0.03225,-2.2493l-0.70648,-2.13572l0.63296,-2.99218l-0.06593,-4.59892l1.53389,-2.3405l0.3779,-1.78644l2.15905,-2.0846l0.90848,-1.38622l1.68994,-1.1226l1.77759,-1.7163l1.88662,-0.71779l0.65537,-0.43535l2.91891,-1.15898l7,-2l2.15719,-0.38949l0.21223,-0.06753l0.36259,-0.03626l0.3586,-0.06475l0.22262,0.00663l2.18119,-0.21812h13.45118l16.09028,-3.49789l24.79108,-5.94986l0.5843,-0.07988l0.56735,-0.16092l28,-5l0.18074,-0.01395l0.17526,-0.04631l24.84184,-3.97469l16.84226,-2.97216l1.73973,-0.13073l1.73598,-0.1736h4.27185c0.20591,-0.09557 0.40783,-0.18774 0.60538,-0.27623c8.98832,-4.02617 17.99323,-8.01526 27,-12c4.19654,-1.85662 9.48857,-3.55517 13.04205,-5.04409c2.02432,-0.8482 7.01208,-4.10766 9.61242,-4.64193c20.56013,-4.22431 30.9731,20.2035 19.56975,35.62949c-0.4207,0.5691 -0.84446,1.09257 -1.27179,1.57678l14.27816,4.1248l1.32607,-0.09016l2.5442,1.47905l0.48821,0.1955l1.01296,0.67719l2.65072,1.54098l2.00469,-2.49802l0.73178,-0.9626l0.07482,-0.04249l0.05385,-0.0671l1.06677,-0.5693l6.70365,-3.80707l1.55737,0.1217l0.05384,-0.01559l114,-21l1.26451,-0.10455l0.31817,-0.12201l0.38922,0.06351l1.15801,-0.09575l7.15753,0.90581l1.29293,0.75787l1.82331,0.29753l2.15951,2.03709l0.37948,0.22244l2.75061,0.01098l3.07002,0.66197l39.6739,12.79803l3.35877,-3.21399l0.28338,-0.22162l0.89622,-1.40597l5.79084,-2.50881l1.98304,-0.97097l0.29264,-0.01494l0.26887,-0.11648l2.20797,-0.00999l6.30273,-0.32183l1.42711,0.86217l0.35229,0.07283l17.08181,5.35015l0.39277,-1.18065l2.08315,-2.34914l1.81309,-2.56333l1.38104,-0.84838l2.03422,-1.50495l94,-56l0.93556,-0.43772l1.22178,-0.84599l3.86836,-0.78946l3.84482,-0.89713l1.46337,0.25885l1.03287,0.0073l111.14845,11.90876l0.79096,-0.07164l1.30222,0.42286l1.8323,0.38366l1.82784,0.80486l1.89956,0.61683l1.62238,0.93401l1.25305,0.55176l0.54235,0.58018l52.30399,37.50097l2.35759,2.07487l0.24936,0.33441l0.32689,0.25915l2.00417,2.41797l5.65889,8.4075c4.48302,-3.12081 9.96178,-5.44493 15.78384,-7.32954c26.0783,-8.44157 52.93843,-15.09248 80.41191,-15.85504c11.77085,-0.32672 20.37369,-1.05634 28.42859,8.38214c5.7512,6.73908 5.06985,17.2927 0.62978,24.55233l26.01173,-1.93476l1.05028,0.02671l1.77743,-0.49381l4.86815,1.6321l2.46203,0.58637l0.58828,0.43628l0.69441,0.23281l1.88969,1.6836l4.1241,3.0585l0.61208,1.74025l0.62289,0.84606l126.78802,213.95479l1.06132,0.94621l0.43163,1.7032l1.04332,2.24352l1.623,7.0297l-1.60309,8.94146l-1.3321,1.36862l-0.5273,1.83563l-6.96774,5.82839l-6.90863,2.07885l-2.46554,0.20736l-1.69292,0.47034l-1.34812,-0.45197l-105.60994,-1.66502l10.7826,26.05794l0.9061,3.00704l0.06543,0.77441l0.23564,0.74059l0.3125,3.125v14l-0.3125,3.125l-0.09668,0.30387l-0.01227,0.31865l-0.76747,3.04537l-12.86527,35.62691l-0.15671,0.8754l-0.80226,1.22066l-0.53107,1.11012l-1.38225,1.80104l-1.24693,1.89723l-0.87401,0.8663l-0.88932,1.15877l-0.77533,0.43562l-36.69188,29.75018l-1.3445,0.88401l-1.25154,1.08088l-0.11971,0.03809l0.98992,1.29077l0.49155,0.79357l0.21185,0.18311l0.12183,0.35559l0.82854,1.33763l2.44803,6.7866l-0.07157,1.23008l0.55534,1.62085l-0.82749,3.05653l-0.18393,3.16122l-1.04042,1.36128l-0.32199,1.18935l-4.47279,5.66083l-1.20977,1.00606l-0.22825,0.29864l-0.25897,0.10654l-0.71772,0.59686l-49.78775,33.62857l0.54091,10.27626l1.90415,19.04153l0.58137,3.8758l10.89143,3.63048l2.86581,1.28468l0.37701,0.27477l1.99512,0.53922l2.13211,2.46876l1.3262,0.96656l1.08814,1.829l1.39104,1.61068l0.49757,1.5638l1.66784,2.80339l-0.11936,2.06326l0.14145,0.44455l0.3125,3.125v1.76747l0.41901,0.99917l-0.59134,2.95671l-0.14017,1.40166l-0.37737,1.18602l-0.67265,3.36324l-0.74072,1.07876l-0.39677,1.24698l-2.24182,2.59579l-0.7045,1.02602l-1.02035,0.97117l-1.97083,2.28202l-1.04594,0.28269l-7.23774,5.62936l-1.85241,1.16492l0.33093,2.81292l3.6406,17.29283l5.7586,19.19533l0.24076,1.23992l0.33059,1.21905l0.52908,3.17449l2.59915,11.43628l0.11755,0.35265l0.34466,1.52635l0.40955,1.51023l0.27908,1.67449l0.4957,2.18106l0.14848,1.19314l0.03636,0.11429l0.09058,0.90579l0.11242,0.90334l-0.01013,0.1195l0.11964,1.19637v7l-0.3125,3.125l-2.1875,6.875l-5.9375,6.875l-11.5625,3.125l-11.5625,-3.125l-5.9375,-6.875l-2.1875,-6.875l-0.3125,-3.125v-4.34475l-0.25696,-1.54176l-0.4563,-2.0077l-1.26041,-3.78123l-0.34466,-1.52635l-0.40955,-1.51023l-1.27908,-7.67449l-0.27773,-1.22199l-6.59018,-19.77055l-1.61083,-4.37225l-0.93351,0.21965l-1.3121,0.17344l-0.14368,0.04572l-0.83039,0.08304l-0.82733,0.10936l-0.15034,-0.01159l-1.31695,0.13169h-25.01124l-0.62826,1.57507l0.04167,2.90664l-3.06887,4.68267l-0.33331,0.83563l-0.43933,0.34332l-1.13781,1.73614l-6.00952,3.99204l-0.37161,0.14755l-1.47922,1.15595l-2.07469,0.14308l-12.99339,3.7124l-2.15719,0.38949l-0.21223,0.06753l-0.36259,0.03626l-0.3586,0.06475l-0.22262,-0.00663l-2.18119,0.21812h-48.91001l-45.8261,33.80614l-0.60406,0.63465l-1.33736,0.57456l-1.14973,0.68282l-2.10197,0.71418l-2.03971,0.87631l-1.31124,0.26225l-1.37817,0.46826l-0.87358,-0.0672l-50.5166,4.95261l-0.84067,-0.00163l-1.38,0.25091l-3.98156,-0.90898l-3.994,-0.85265l-1.14592,-0.80883l-0.76314,-0.35262l-56,-33l-0.70177,-0.51402l-1.7125,-0.57676l-3.24626,-4.25736l-1.68562,-1.88264l-0.19912,-0.58913l-0.37707,-0.49451l-0.55149,-2.18577l-16.8817,1.82176l-1.14943,0.62916l-2.50251,-0.23506l-0.03499,0.00377l-1.00212,0.20445l-0.30688,-0.06319l-7.34889,0.79305l-1.11973,0.00877l-0.09432,0.01886l-0.96321,-0.01058l-0.96323,0.00754l-0.09426,-0.01916l-1.11969,-0.0123l-99,-11l-1.46672,-0.31312l-1.62795,-0.11912l-3.23776,-1.6747l-3.33033,-1.48209l-1.10999,-1.1968l-1.16076,-0.94971l-11.14212,-11.14212h-48.80854l-8.73141,0.79376l-1.81068,5.43866l-0.75789,0.85426l-0.04047,0.11788l-0.2739,0.23646l-4.95638,5.58663l-2.15337,0.5513l-1.68256,1.45256l-7.41667,0.87696l-0.35053,0.08974l-0.11987,-0.03411l-1.1341,0.1341l-6.92032,-2.03958l-1.51669,-0.81874l-1.82882,-0.52054l-1.06403,-1.26576l-10.09901,-6.83024l-3.23981,0.29453l-0.90759,-0.00818l-0.90312,0.09031h-11.07189l-0.78792,0.25985l-0.42812,0.04736l-0.4018,0.15519l-3.10037,0.50097l-18.21361,1.10386l-37.67875,5.51396l-0.49699,0.0227l-0.48804,0.09658l-33.42156,3.20803l-0.1593,-0.00063l-0.15675,0.02844l-23.35002,1.868l-2.39417,0.59854l-1.21287,0.17749l-0.37674,0.08507l-0.2257,0.00309l-1.29217,0.1891l-2.23009,-0.14085l-3.46598,0.04748l-0.76414,-0.31464l-0.74007,-0.04674l-2.77686,-1.40141l-4.11874,-1.69595l-0.3816,-0.57525l-0.83259,-0.42019l-2.93214,-5.255l-2.02824,-3.0575l-0.42408,-0.02019l-0.84161,-0.12483l-0.85036,-0.02797l-6.18419,-0.82456h-41.17254l-0.90312,-0.09031l-0.90759,0.00818l-11,-1l-3.08387,-0.59414l-0.12266,-0.05168l-1.35652,-0.15072l-2.90943,-1.64642l-2.26011,-0.95213l-0.69544,-0.72039l-2.04096,-1.15496l-0.98319,-1.97767l-2.58963,-2.68253l-0.68268,-3.8997l-1.07641,-2.1652l0.19233,-2.88497l-0.49858,-2.84807l0.83962,-2.26755l0.26335,-3.95023l2.28911,-2.94314l0.7669,-2.07116l1.9063,-1.36582l0.61474,-0.79038l2.14581,-1.18749l2.71747,-1.947l1.33274,-0.29438l0.11646,-0.06445l3.00303,-0.91929l1.94193,-0.38839h-4.01961l-0.6749,-0.06749l-0.67792,0.02168l-56.8505,-3.85427l-0.20844,0.04714l-0.52752,-0.09703l-1.41354,-0.09583l-3.0967,-0.52316l-1.00027,-0.3946l-1.05755,-0.19452l-2.90441,-1.19485l-1.2501,-0.66672l-0.49895,-0.19683l-0.15191,-0.1503l-11.13365,-5.93795l-0.15303,-0.02714l-0.44818,-0.29351l-1.36417,-0.72756l-2.61029,-1.74632l-0.34793,-0.35682l-2.82884,-1.85258l-0.76937,-1.83755l-1.09063,-1.11849l-3.27206,-8.47426l1.30982,-5.6968l0.76595,-5.79504l6.02997,-6.79404l1.41301,-0.66626l1.36361,-1.45227l3.2982,-0.74586l0.45077,-0.21255l3.05629,-0.72277l1.5325,-0.20433l0.52254,-0.11817l0.15285,0.02812l23.68251,-3.15767l-6.83391,-0.89138l-0.66051,-0.15421l-0.67503,-0.06618l-9.28776,-1.85755l-0.74276,0.01017l-1.53316,-0.6313l-1.43935,-0.44062l-1.07359,-0.59412l-4.35371,-1.7927l-0.64632,-0.9743l-0.23887,-0.13219l-5.57705,-7.1705l-0.10855,-1.62824l-0.05023,-0.07571l-0.29648,-5.12484l-0.34147,-5.12204l0.04045,-0.08136l-0.09425,-1.62913l4.6446,-7.80687l0.22063,-0.1608l0.52048,-1.04694l4.09773,-2.31887l0.99161,-0.7227l1.37358,-0.61574l1.44301,-0.81659l0.73829,-0.08203l2.31093,-0.77031l3.06346,-0.69175l0.06969,-0.00095l0.06641,-0.02113l3.125,-0.3125h18l1.05802,0.1058l1.06328,0.00701l6.8733,0.73315l0.3139,-0.60688l0.80296,-3.16164l1.54334,-1.37454l0.21433,-0.41436l1.98874,-2.43068l2.36229,-2.36229l0.32854,-0.49557h-35.5487l-1.30162,-0.13016l-1.30747,-0.04075l-34.97408,-4.60185l-0.67684,0.22734l-2.17232,-0.60223l-0.17676,-0.02326l-3.05753,-0.7175l-0.81107,-0.38073l-2.53619,-0.7031l-1.4744,-1.17952l-1.70921,-0.80233l-1.75041,-1.96537l-0.69965,-0.55972l-1.99345,-2.42681l-0.09889,-0.14834l-1.49927,-1.68339l-0.09478,-0.70768l-0.30706,-0.46058l-0.9861,-1.85619l-0.26144,-0.29355l-0.06492,-0.32077l-0.16097,-0.30299l-1.99345,-6.93375l0.26339,-2.10715l-0.41988,-2.07469l0.9703,-2.32873l0.31291,-2.50331l1.39389,-1.59302l0.81675,-1.9602l5.17091,-5.03115l0.29008,-0.18321l0.21551,-0.2463l0.37263,-0.12516l1.7771,-1.12238l6.2301,-3.11505l0.23211,-0.21199l0.63552,-0.22183l0.90227,-0.45114l2.93484,-1.11803l1.19599,-0.18761l1.14299,-0.39895l3.11512,-0.39915l1.00838,-0.02801l0.66499,-0.10431l0.30467,0.07738l34.02195,-0.94505l0.278,0.02002l0.27734,-0.02773h9.91365zM376.27677,58h0.22323l3.90625,0.39063l0.61461,0.19556l0.46379,-1.27217l0.55005,-1.14084l0.19181,-0.5595l0.1672,-0.18512l2.58857,-5.36888l-10.36149,7.50833zM108.19563,351.13544c-0.25585,0 -0.5115,-0.0009 -0.76691,-0.00285l0.86107,2.45566l0.06093,0.00891l2.25662,0.56416l0.37395,-0.01403l0.80124,0.30783l0.56819,0.14205l2.9559,1.06109l0.64684,0.39928l3.50757,1.34757l1.00323,1.43688l0.98153,0.60588l3.7985,5.39497l19.87509,-18.77092l3.04977,-3.44329l0.29255,-0.60108l1.29526,-3.24893l1.18176,-1.18587l1.07853,-1.38582l8.64873,-9.08117c-15.57448,12.26374 -32.15933,24.00969 -52.47035,24.00969zM382.10492,487.96049l-0.39636,0.02384l-30.95165,-1.22581l6.28012,3.70078l25.27586,-2.47802zM626.59552,-32.95152c-4.07468,1.36346 -8.19458,2.58848 -12.27698,3.92863c-1.34287,0.44083 0.52459,2.7805 0.89298,4.14502c0.50872,1.88434 2.23894,5.32364 1.55286,7.67295c-1.64021,5.61648 -4.3726,10.71383 -9.39934,13.99632c-5.65129,3.69033 -11.33136,7.33639 -17,11c-1.07754,0.69641 -3.97052,2.19014 -3.49468,2.2086c19.05237,0.73897 38.1336,0.08715 57.20009,0c4.00597,-0.01831 10.09236,-0.15832 13.42956,2.5c2.85189,2.27174 6.79207,4.10012 7.88854,7.57745c0.9106,2.88785 1.60781,5.8424 2.23607,8.80452c0.35542,1.67574 -2.90513,5.38737 -0.95969,6.11803c9.59992,3.6055 22.04105,-4.98331 29.71008,8.4375c1.98081,3.46642 3.125,7.57005 3.125,11.5625c0,3.99245 -1.14419,8.09608 -3.125,11.5625c-6.04561,10.57981 -18.57062,7.44592 -28.0162,8.4375c-13.97817,1.4674 -26.41093,5.86953 -40.8588,6c-7.38661,0.0667 -16.27815,1.36149 -23,-2.5c-0.15724,-0.09033 -0.31348,-0.18343 -0.46865,-0.27922l5.82701,8.29801l0.26066,0.21304l0.32233,0.61718l0.531,0.75617l1.11452,1.98065l0.10377,-0.0174l3.13779,0.13258l3.59799,0.514l0.52805,0.0472l0.04202,0.03423l1.77606,0.25372l0.72745,-0.05017l1.17454,0.40948l2.20329,0.54283l1.67657,0.80977l1.75811,0.61292l1.9418,1.17412l1.12007,0.54098l0.47892,0.54987l2.88409,2.16307l0.79706,0.41286l0.9289,1.12879l0.84916,0.78031l1.33966,1.87953l1.46663,1.78222l0.53272,1.02282l0.84849,1.19042l0.19146,0.87699l4.60322,11.50806l130.27303,2.05385l-103.45133,-174.57412l-22.82318,1.69759c-4.28887,9.40755 -15.35068,16.52576 -24.1977,19.48613zM594.50001,61c0.12971,-1.77267 0.09082,-3.58746 0.55456,-5.3033c0.3484,-1.28907 1.31862,-2.32901 1.84042,-3.55815c0.28856,-0.67971 1.3159,-2.11105 0.57799,-2.13855c-2.53072,-0.0943 -5.06191,-0.16218 -7.59348,-0.20917l1.25866,10.06932l3.64095,5.18492c-0.27398,-1.35277 -0.37653,-2.71365 -0.27911,-4.04506zM295.28144,-83.96996l0.29629,-0.09381l0.60077,0.05888l20.61924,-2.81171l1.68902,-0.06059l0.20996,-0.04058l0.61995,0.01081l0.61964,-0.02223l0.21067,0.03672l1.68985,0.02947l16.48147,1.939l0.86851,-0.05175l1.36664,0.49081l1.35047,0.29743l2.00327,0.90704l2.06963,0.74329l1.17659,0.72653l1.32283,0.59895l0.58751,0.64173l15.71565,12.01785l0.65092,0.30661l0.8106,0.9126l1.52846,1.4311l9.09807,-4.47905l0.40769,-0.58844l23,-27l1.77601,-1.70691l1.07448,-1.23367l2.8505,-1.37677l2.68678,-1.67392l1.6169,-0.24912l2.39176,-0.58928l21,-3l3.13779,-0.13258l0.24274,0.0407l0.24462,-0.02718l3.12561,0.30643l9.14126,1.82825l0.78877,-0.00071l1.25141,0.53412l1.8216,0.55763l1.73681,0.96115l1.82569,0.77923l1.5595,1.09413l1.19049,0.65882l0.48426,0.62261l6.71875,5.79203l9.31718,-0.19411l0.784,-0.17198l1.35728,0.25874l1.81494,0.14338l1.93392,0.57127l1.56598,0.29852l-34.58491,-24.79672l-100.12543,-10.72772l-65.97724,39.30559zM186.42327,-3.93979l0.11097,0.78516l0.1223,0.40767l0.59864,3.08301l-0.02392,1.44089l0.20168,1.42691l-0.21331,3.13333l-0.07102,0.41966l-0.01316,0.79285l-0.19457,0.43465l-0.08459,0.49986l5.94493,-0.28309c1.3781,-2.66243 2.92676,-5.20924 4.66612,-7.6182l-11.26023,-4.87943zM612.70314,299.31577l-4.84366,-6.31576h-5.35947v13.20735zM186.23807,364.89379l5.26928,5.49114l5.35539,0.61205l2.51048,-14.05866l-0.77944,-10.91214l-4.64896,5.24881zM301.71601,312.10659l14.1988,-14.66896l-17.21279,0.50626c-0.4611,1.69345 -0.91714,3.38768 -1.3673,5.08265zM448.58361,303.49632l-4.99602,-14.98805l-12.56024,4.35615l6.13136,10.35988zM509.8071,306.6825l2.33501,-5.07416c-1.75199,1.87402 -3.84754,3.17175 -6.14807,4.02228zM652.01024,190.08839l-0.05777,0.21345l-0.03763,0.21791l-0.06648,0.16676l-0.65859,2.43341l-16,42l-0.47025,0.94051l-0.437,1.42813l-2.53892,3.00668l-2.45,3.07957l-1.31462,0.70875l-0.82995,0.64567l-3.87676,2.4386l4.31942,5.63218h11.81897l27.16908,-22.02899l9.92026,-27.47151v-6.52499l-8.4475,-20.41477l-14.05027,-10.87763l-1.55306,21.74283l-0.42892,2.4842zM506.67673,210.66959l0.10919,-0.53587l1.25014,-2.88105l3.79881,-6.8062l-4.16372,-5.55164l-4.05723,-2.59663l-3.55924,2.5582l0.43237,1.86384l-0.25318,0.81852l0.33964,2.33661zM507.81859,85.27985l-3.09558,0.52979l-0.73925,-0.02877l-0.72668,0.13872l-3.13997,-0.06206l-2.76463,-0.33176l-5.71188,10.22126l-2.32414,13.68661l18.71291,-2.13862l1.80295,-4.80786l1.64821,-17.80076l-0.63668,-0.24111zM258.37541,-36.11802l0.1827,-0.71936l-4.74469,-1.53054l-1.44929,4.5626c1.978,-0.45448 4.02418,-0.90532 6.15903,-1.37079zM95.10604,-42.77865l-1.34775,0.87897l5.91427,0.10482l-2.05568,-0.8908zM238.43291,365.74752l-1.65223,9.25248h4.05772l3.71795,-3.84106z" fill="#000000" stroke="none" stroke-width="0.5"/><path d="M-189.49998,184.5c0,-235.54945 190.95055,-426.5 426.5,-426.5c235.54945,0 426.5,190.95055 426.5,426.5c0,235.54945 -190.95055,426.5 -426.5,426.5c-235.54945,0 -426.5,-190.95055 -426.5,-426.5z" fill="url(#color-2)" stroke="#ffffff" stroke-width="5"/><path d="M-174.24998,340v-320h828.5v320z" fill="url(#color-3)" stroke="none" stroke-width="0"/><path d="M400.00001,594.25h-320v-828.5h320z" fill="url(#color-4)" stroke="none" stroke-width="0"/><path d="M73.86194,591.82667l-233.69553,-218.60101l565.97167,-605.05233l233.69553,218.60101z" fill="url(#color-5)" stroke="none" stroke-width="0"/><path d="M252.64721,185.13708c-2.53634,3.0708 -4.95135,7.26191 -8.13136,10.04805c-2.73101,2.39275 -5.43269,4.83811 -8.37825,6.96115c-4.1,2.95511 -8.41858,5.65795 -12.98721,7.81296c-13.52064,6.37766 -28.47867,7.3995 -43.84921,6.29831c-2.74465,4.55207 -8.17466,7.87019 -12.95045,9.1453c-5.56847,1.48674 -12.70607,3.81461 -19.10749,4.45475c-15.17214,1.51721 -30.49551,0.19871 -45.74322,0.1424c-5.5074,-0.02034 -10.95734,-0.75583 -16.38385,-1.76611c-13.02263,14.4078 -28.28459,27.9889 -38.32594,44.19409c-1.4008,2.26068 -12.68276,29.88259 -13.85596,33.77881c-2.77236,9.20706 0.47106,21.75803 -9.87176,27.66821c-3.46642,1.98081 -7.57005,3.125 -11.5625,3.125c-14.8605,0 -21.61116,-13.17244 -19.76743,-26.04114c2.3679,-16.52732 3.3039,-18.43344 10.28201,-35.51186c9.58156,-23.45018 11.58029,-28.6153 29.94516,-48.17947c3.4726,-3.69938 7.01062,-7.33807 10.50402,-11.01797c-2.37954,-1.1631 -4.70175,-2.35137 -6.95045,-3.4892c-26.81022,-13.5659 -56.15623,-38.974 -52.88249,-72.36619c1.1965,-12.20433 5.19589,-24.37337 8.68188,-36.03749c4.66096,-15.59557 11.77499,-34.81852 25.18731,-44.85667c2.76422,-2.06882 8.39072,-2.62572 11.61496,-2.5c11.14608,0.4346 13.86316,0.63115 25.19906,2.19313c14.07484,1.93938 27.5568,2.77744 41.44832,6.51159c13.60742,3.65779 27.2161,7.31088 40.82752,10.95379c4.44045,1.18842 8.1776,3.49214 12.93427,4.54144c0.02583,0.0057 0.27302,-1.66117 0.36425,-2.12227c0.98969,-5.00205 1.92973,-10.01457 3,-15c2.0136,-9.37957 7.14135,-19.23539 14.09712,-25.82076c2.63826,-2.49777 9.87424,-10.03683 15.03254,-13.29008c3.19762,-2.01669 10.90602,-7.48586 16.30237,-9.63375c23.07243,-9.18343 56.05303,-18.63255 77.24134,0.29604c3.32218,2.96787 8.11717,6.48363 10.78367,10.5898c5.94589,9.15614 12.4577,18.01331 17.39856,27.74863c3.43561,6.76942 4.23022,14.58447 6.0975,21.94258c1.5812,6.23079 1.38754,13.28141 1.59214,19.42615c0.36861,11.07054 -0.10073,24.10456 -4.77121,34.94589c1.75382,-0.01696 3.50447,-0.09693 5.25005,-0.28217c5.81101,-0.61668 11.27207,-3.09557 16.95512,-4.45612c6.08193,-1.45605 12.46226,-1.97945 18.25118,-4.34552c11.41981,-4.66754 25.35031,-13.0462 32.77471,-23.70668c4.35614,-6.25485 9.55895,-20.50273 10.88426,-27.45405c1.21358,-6.36532 1.34057,-12.8937 1.76001,-19.36008c1.10967,-17.10743 5.03265,-42.22564 -14.26825,-51.54528c-3.52259,-1.70092 -7.40158,-2.65796 -11.25838,-3.31129c-16.42984,-2.78317 -51.51111,7.38502 -51.51111,-20.82097c0,-11.53974 6.82558,-17.17514 16.875,-19.6875c9.92567,-2.48142 28.69265,-0.01568 39.37257,0.72645c37.93086,2.63573 62.99195,36.70568 61.7351,72.79366c-0.54671,15.69764 -0.42439,34.59926 -3.65894,50.06198c-1.54512,7.3864 -4.04116,14.581 -6.87399,21.57656c-11.91406,29.42132 -32.0549,45.27797 -60.84968,57.95716c-6.98119,3.07402 -19.88986,5.01113 -23.73823,5.9732c-20.75827,5.18942 -23.43708,6.88351 -42.14907,6.07236l0.89507,1.17434l1.03319,1.25779l9.92076,14.88114l10.91907,15.88229l0.14962,0.27217l0.19311,0.24325l9,14l0.35223,0.69056l0.43362,0.64259l7,13l0.11678,0.28069l0.16234,0.25704l6,12l0.61229,1.60726l0.65569,1.59005l2.02409,6.74696h4.95146l19.18747,-1.66848l15.59471,-6.23788l11.77089,-7.3568l5.88153,-7.05783l9.30339,-23.68134l4.67383,-19.63007l0.07747,-0.22368l0.03716,-0.23378l4.59795,-17.47219l1.74355,-17.43545v-24.97579l-0.00658,-0.01727l-1.11803,-7.12747l2.23607,-8.80452l8.94427,-7.96599l11.73936,-2.37582l8.38525,3.49386l5.03115,5.17091l1.67705,2.65533l0.28057,0.56114l0.33089,0.38313l0.24381,0.76626l0.14473,0.28947l1.11803,2.93484l0.23031,1.46822l0.45061,1.41621l0.3125,3.125v0.32363l0.12461,0.7944l-0.12461,0.49066v28.39131l-0.09926,0.99256v0.99751l-2,20l-0.31193,1.54407l-0.24732,1.55572l-4.93999,18.77195l-4.94538,20.7706l-0.45993,1.32796l-0.38117,1.35267l-11,28l-1.43352,2.79433l-0.0354,0.04357l-0.02117,0.05199l-1.76051,2.60075l-10,12l-2.24065,2.20063l-0.0223,0.01423l-0.01713,0.02017l-2.48437,1.92125l-16,10l-1.59463,0.78794l-1.57753,0.82163l-20,8l-2.44815,0.7062l-0.16089,0.06704l-0.20655,0.03895l-0.20196,0.05826l-0.17384,0.01262l-2.50383,0.47221l-23,2l-0.86841,-0.01123l-0.86418,0.08642h-5.63447l-0.96268,3.85071l-0.38461,1.07141l-0.29166,1.10035l-3,8l-1.38986,2.8163l-0.13157,0.16715l-0.08022,0.19701l-1.76051,2.60075l-5,6l-0.96122,0.94406l-0.0907,0.12725l-0.60374,0.55479l-0.58498,0.57453l-0.13173,0.08406l-0.99205,0.91161l-4,3l-1.53706,0.92939l-1.51866,0.95916l-6,3l-2.93484,1.11803l-0.24316,0.03814l-0.22347,0.10314l-3.06211,0.6977l-8,1l-1.24324,0.0307l-1.23745,0.12375h-67l-1.76674,-0.17667l-0.22149,0.01125l-0.56625,-0.09002l-0.57052,-0.05705l-0.21133,-0.06724l-1.75353,-0.27877l-38,-10l-1.75047,-0.65288l-1.75833,-0.6314l-21,-10l-0.39075,-0.2364l-0.42235,-0.17375l-15,-8l-0.81562,-0.54566l-0.86662,-0.46039l-9,-6l-1.52285,-1.25091l-1.52528,-1.24796l-0.21038,-0.21038l-0.20998,-0.05675l-0.97045,-1.12368l-1.60919,-1.60919l-1.98874,-2.43068l-0.16268,-0.31452l-1.20644,-1.39693l-0.77346,-2.43088l-1.17197,-2.26582l-0.1347,-1.84086l-0.10737,-0.33744l-0.3125,-3.125v-2.27573l-0.10835,-1.48077l0.10835,-0.18861v-2.05489l0.09926,-0.99256v-0.99751l1,-10l0.02634,-0.13037l-0.03775,-1.00303l0.50715,-1.3205l0.12616,-0.6245l1.0258,-2.37496l0.92752,-2.41504l0.34652,-0.53463l0.56089,-1.29858l0.7284,-0.6906l0.07234,-0.11161l4,-5l1.30879,-1.33787l1.29276,-1.35336l7,-6l2.57605,-1.79646l0.66542,-0.28179l0.58399,-0.42562l2.86581,-1.28468l12,-4l1.92235,-0.43408l1.92151,-0.43781l16,-2l1.67579,-0.04138l1.67365,-0.09419l23,1l3.10848,0.44795l0.51032,0.18715l0.54059,0.05662l2.98825,0.96626l16,7l0.931,0.52331l0.9754,0.43498l12.11497,6.92284l13.52411,4.22628l14.18616,3.78297l15.9942,3.55427l11.27094,0.62616l-1.76621,-3.53242l-6.48925,-12.05146l-8.41389,-13.08827l-10.82465,-15.74494l-0.06911,-0.12572l-0.09106,-0.11086l-9.09424,-13.64136l-11.38511,-12.19833c-0.24776,0.2977 -0.49226,0.59197 -0.73245,0.88278zM95.37501,168.3125c9.72866,-2.4898 20.08299,-0.37508 30.125,-0.3125c7.69208,0.04794 23.00264,3.87768 25.31004,4.27393c16.08399,2.76211 33.5577,5.87995 49.87278,2.99061c7.58792,-1.34379 12.70994,-5.60693 17.29086,-10.91134c-0.81107,-0.96959 -1.42035,-2.0559 -1.7475,-3.26635c-1.73294,-2.96128 -2.72618,-6.40807 -2.72618,-10.08685c0,-0.45954 0.0155,-0.91546 0.046,-1.36726l-9.85121,-5.62926l-15.17284,-6.24764l-7.90899,-2.63633c-3.25647,-1.00151 -6.15855,-2.81212 -8.47161,-5.19722l-0.66218,-0.4826l-0.46616,-0.78355c-1.25283,-1.53123 -2.28305,-3.25167 -3.04127,-5.11192l-0.24406,-0.41023c-0.30286,0.10788 -0.61095,0.21173 -0.92439,0.31146c-13.46911,4.28563 -30.23409,-4.69341 -42.22246,-8.32218c-19.52061,-5.90872 -39.97099,-11.25594 -60.04102,-14.33358c-5.07735,-0.77859 -11.64012,-1.14091 -17.3278,-2.0618c-3.24693,-0.52571 -6.74108,-2.98792 -9.73337,-1.62223c-2.56599,1.17113 -2.46438,5.07802 -3.546,7.683c-1.59321,3.8371 -3.16134,7.69158 -4.47437,11.63336c-3.13567,9.41346 -8.53178,22.75485 -6.31767,33.13785c0.92002,4.31442 4.36772,7.74981 7.32896,11.01962c2.44313,2.69772 5.11911,5.22715 8.07923,7.34476c10.08051,7.21138 20.89149,12.3198 32.16462,15.845c6.97666,-7.07362 14.84622,-12.94476 24.66157,-15.45675zM186.50001,96c2.37527,0 4.65384,0.41407 6.76744,1.17396l8.55711,2.85237l0.62954,0.28221l0.6609,0.1979l17,7l1.13391,0.60521l1.17388,0.52349l21,12l0.73718,0.52496l0.02247,0.0099l0.89783,0.64547l0.90073,0.64143l0.01662,0.01807l0.73482,0.52827l5.7538,5.07688c2.13828,-1.67324 4.13,-3.72886 6.27599,-5.27679c3.06449,-2.21047 6.9294,-3.86364 8.79797,-7.1478c5.11024,-8.98163 3.75529,-21.81025 2.11138,-31.41603c-0.82026,-4.79301 -1.59331,-9.73117 -3.71257,-14.10775c-3.4532,-7.13138 -8.22202,-13.56358 -12.8135,-20.02109c-7.71232,-10.84672 -30.92594,-2.48764 -39.73918,1.89212c-9.9016,4.92062 -19.11397,11.99808 -22.8726,22.80899c-2.18413,6.28219 -3.08507,13.85402 -4.52703,21.1942c0.16395,-0.00397 0.32839,-0.00596 0.4933,-0.00596zM264.34675,289.3247l-15,-4l-0.39687,-0.14951l-0.41537,-0.08559l-16,-5l-1.00357,-0.42733l-0.0854,-0.0183l-0.89696,-0.4l-0.9036,-0.38476l-0.07154,-0.0501l-0.9962,-0.44425l-13.07239,-7.46994l-11.60208,-5.07591l-17.59107,-0.76483l-12.36588,1.54574l-6.40454,2.13485l-0.60532,0.51885l0.84163,0.56109l13.73232,7.32391l18.89463,8.99744l33.68302,8.86395h63.16731l2.36616,-0.29577l-13.23041,-0.73502l-1.61058,-0.25193l-1.61863,-0.19353l-18,-4l-0.39947,-0.13164z" fill="#161616" stroke="none" stroke-width="0.5"/><path d="M300.95356,120.82467c6.38354,-3.60014 5.10609,-6.89562 6.81734,-15.37031c0.60514,-2.99688 1.93174,-6.33217 0.72912,-9.14307c-0.30378,-0.71003 -0.62867,-1.41277 -0.9744,-2.10583c-9.93441,-2.86856 -20.11271,-5.09243 -29.97121,-8.17199c-2.38687,-0.7456 -4.85167,-1.46411 -7.32032,-2.22027c8.24044,11.31354 14.2651,25.23416 13.1436,38.39543c-0.15724,1.84533 -0.31837,3.7552 -0.50947,5.70007c6.207,-2.46147 12.95586,-4.19115 18.08533,-7.08403zM86.00559,27.23048c-16.27963,-4.63987 -32.53426,-9.36781 -48.82983,-13.95138c-11.9517,-3.36174 -37.97182,-6.05475 -38.94011,-23.48401c-0.22146,-3.9863 0.59034,-8.1684 2.37582,-11.73936c3.85206,-7.70411 8.74393,-10.61707 16.77051,-11.18034c4.89257,-0.34334 10.71948,2.56327 15.44229,3.84551c21.33654,5.79287 42.53666,12.0785 63.84975,17.95707c6.17881,1.70424 12.33115,3.61603 18.6545,4.66362c20.85841,3.45563 41.85637,6.0125 62.81016,8.83268c13.99971,1.88422 28.0366,3.48167 42.04758,5.28015c18.92204,2.42887 37.99886,8.2831 55.93537,15.8133c0.50951,-0.21386 1.00828,-0.42498 1.49472,-0.63379c4.98013,-2.13773 14.74596,-7.23321 22.15663,-9.06729c13.36423,-3.30754 26.47866,-8.3008 40.1931,-9.50774c12.63685,-1.1121 25.29068,-2.02252 37.93903,-2.99522c15.2193,-1.17041 37.5949,-1.94336 37.5949,19.93631c0,3.99245 -1.14419,8.09608 -3.125,11.5625c-6.33749,11.09061 -22.33639,7.9589 -32.07628,8.4375c-8.08396,0.39723 -16.1358,1.29189 -24.20382,1.93631c-3.79498,0.30312 -7.71172,0.12872 -11.44384,0.88039c-7.37033,1.48442 -14.66948,3.29542 -21.95396,5.16652c3.56936,3.51044 5.78136,6.37029 9.85025,11.2694c10.76541,3.57226 21.52937,7.14896 32.27719,10.77371c1.02683,0.3463 2.0302,0.77295 2.99037,1.2753c22.8905,11.97611 70.20956,30.04457 86.16822,57.98551c0.99885,1.74881 9.66594,14.98416 11.56454,21.83503c3.21761,11.61036 3.05389,19.08112 1.82849,30.11355c-0.48373,4.35511 0.06678,8.94952 -1.43074,13.06758c-5.79786,15.94362 -26.66889,27.87099 -42.59391,30.25505c-10.19029,1.52554 -20.58497,1.43699 -30.85153,1.44165c-27,0.01226 -54,0.00947 -81,0c-11.86183,-0.00416 -23.71539,-0.63018 -35.5712,-1.00816c-7.18878,-0.22919 -14.14105,-1.177 -20.90458,-2.82643c0.08167,0.22186 0.16496,0.44243 0.24997,0.66163c6.25489,16.1283 18.84867,32.02447 36.68532,35.48527c4.78147,0.92774 27.07721,2.5447 33.66029,1.68769c3.89949,-0.50765 7.7269,-1.72595 11.31783,-3.32877c9.75817,-4.35559 16.45419,-18.28812 29.31886,-14.77958c3.85177,1.05048 7.56254,3.14312 10.38563,5.96621c2.82309,2.82309 4.91573,6.53386 5.96621,10.38563c0.79672,2.92131 0.09119,6.1272 -0.66291,9.05981c-2.72685,10.60443 -20.97787,23.85073 -30.80211,26.88401c-8.87928,2.74152 -12.51629,4.17981 -19.51833,5.50019c-7.16922,1.35191 -14.82809,0.53685 -21.98918,0.22608c-24.85795,-1.07875 -39.34891,-4.6035 -59.87333,-18.04035c-5.95642,-3.89953 -10.80152,-10.30497 -14.95317,-15.62231c-10.01058,-12.82131 -16.75735,-26.69802 -20.71217,-42.4002c-2.48672,-9.87324 -4.89599,-19.25987 -8.85773,-28.65051c-0.98936,-2.34512 -2.69539,-5.23816 -5.09966,-6.27618c-3.73689,-1.61337 -9.41607,-2.17057 -13.77434,-1.92403c-0.24843,0.49218 -0.5166,0.97269 -0.80347,1.4405c-0.75935,1.23829 -1.64972,2.38755 -2.65181,3.42849c-3.63841,3.77947 -8.74966,6.13101 -14.41014,6.13101c-2.50924,0 -4.91055,-0.46209 -7.12348,-1.30583c-1.5983,-0.35573 -3.11858,-0.87632 -4.43902,-1.81917c-14.03539,-10.02189 -9.61146,-33.29301 2.38216,-42.64551c9.16995,-7.15064 27.4609,-6.65578 37.10266,-4.8411c6.49611,1.22263 15.04641,1.96286 21.36759,5.46175c1.63516,0.90509 3.18217,1.86773 4.64782,2.88402c3.06332,-3.27664 6.12615,-6.40708 8.5985,-9.44915c3.41407,-4.2008 6.71687,-8.50382 9.74374,-12.99165c2.45527,-3.64035 3.40757,-12.35182 2.01386,-17.47798c-0.76664,0.24035 -1.54138,0.42534 -2.32307,0.56203c-1.58929,0.40648 -3.2548,0.62259 -4.97077,0.62259c-2.52622,0 -4.94305,-0.46837 -7.16838,-1.32301c-4.68079,-0.97222 -9.39598,-2.36523 -13.92907,-2.87744c-72.24124,-8.16278 -94.31298,-9.82979 -166.27586,-7.79955c-2.35816,0.06653 -5.15331,0.64259 -6.62669,2.48501c-1.94337,2.43012 1.73603,11.23651 2.60432,12.57268c7.22036,11.11095 16.7993,21.26983 27.94993,28.51462c14.61235,9.49393 30.19958,17.39576 45.3298,26.04052c2.85596,1.63178 14.0152,6.87395 19.09487,11.17049c11.37317,9.61977 22.69915,19.29538 34,29c6.20408,5.32776 11.59059,11.89533 16.00266,18.7769c2.67238,4.16816 3.93186,9.47343 5.21929,14.12144c4.62689,16.70455 6.91746,36.11899 -5.14934,50.48843c-0.39276,0.46771 -6.30731,8.23794 -9.29301,10.14602c-18.76822,11.99426 -44.58374,10.02988 -65.75853,9.68389c-11.29133,-0.1845 -20,-8.22893 -20,-20c0,-3.99245 1.14419,-8.09608 3.125,-11.5625c6.28329,-10.99575 22.75892,-8.19376 32.42069,-8.4375c3.21444,-0.08109 25.9015,2.75584 28.45431,-6.24429c0.8522,-3.00451 -1.69538,-11.11686 -2.29993,-13.40994c-3.6464,-13.83094 -38.12015,-38.52104 -41.1998,-40.86742c-4.39988,-3.35227 -9.66597,-5.3817 -14.46276,-8.13624c-15.66817,-8.99739 -31.36264,-17.94918 -47,-27c-8.62352,-4.99125 -15.42058,-12.62457 -22.99048,-19.10332c-19.88463,-17.01842 -34.58142,-49.30683 -22.61657,-74.6666c6.2368,-13.21903 25.86473,-23.52413 39.56953,-23.57219c2.66857,-0.00936 5.33814,-0.03833 8.00843,-0.08126c0.38318,-3.95349 1.9208,-7.94424 4.78007,-11.51834c7.02323,-8.77904 18.07291,-13.36875 28.34954,-17.13316c6.30699,-2.3103 12.44786,-4.14583 18.4829,-5.56669c-6.07718,-1.2897 -12.11929,-2.76112 -18.11536,-4.47007zM346.90287,113.85071c-1.73933,7.18577 -3.59458,19.32831 -8.28406,26.36253c-3.80891,5.71337 -9.14601,9.12621 -14.62489,13.40413c-6.39564,4.99373 -20.10055,10.65362 -30.61432,13.16796c-2.14507,0.7858 -4.46225,1.21466 -6.87959,1.21466c-6.23213,0 -11.79849,-2.85049 -15.46644,-7.31881c-2.8262,3.7866 -5.68248,7.55091 -8.53356,11.31881c-2.22227,2.93688 -5.63315,6.49995 -8.06765,9.11123c2.47011,0.9413 4.95822,1.84818 7.4786,2.47667c14.49839,3.61533 37.01978,3.30401 49.87471,3.41211c26.78042,0.2252 53.56366,0.2227 80.3441,0c7.75913,-0.06452 15.58822,0.2863 23.26224,-0.86156c4.29082,-0.64181 10.56841,-1.10892 11.91764,-5.23235c5.70978,-17.44993 -10.18539,-36.07925 -23.58739,-44.50395c-16.93205,-10.64374 -34.81162,-19.83627 -53.09399,-27.9442c-0.81885,-0.36315 -1.64122,-0.71743 -2.46681,-1.06358c-0.31116,2.12672 -0.73155,4.27891 -1.2586,6.45636zM242.50001,54.61496c-0.02531,-0.3134 -0.04362,-0.62368 -0.05509,-0.93087c-0.99195,-0.28366 -1.9852,-0.56079 -2.97971,-0.83164c1.03649,0.85479 2.05312,1.73925 3.05564,2.64461c0.00802,-0.29498 0.00282,-0.58915 -0.02084,-0.8821z" fill="#0d0d0d" stroke="none" stroke-width="0.5"/><path d="M397.37501,267.5625c-8.86778,12.41909 -27.75434,10.54083 -36.75,0c-4.60731,-5.3987 -8.21239,-22.12708 -10.27421,-28.76458c-1.82433,-5.87296 -5.20449,-12.95691 -6.41917,-19.89004c-4.1124,5.31456 -9.9475,9.38663 -18.55323,12.47502c-9.69299,3.47858 -20.93355,1.6159 -30.85878,0.6171c-11.48682,-1.15595 -24.39874,-5.88528 -34.83067,-11.28111c-1.67776,-0.86781 -4.38498,-1.14567 -6.13321,-1.83035c-6.71516,-2.62992 -13.61421,-4.68231 -20.25593,-7.62797c-2.67895,-1.18814 -6.85767,-3.93716 -9.87142,-5.16511c-1.48932,1.29339 -3.12716,2.43917 -4.92837,3.40453c-0.11114,0.05957 -0.22354,0.11806 -0.33715,0.17549c-3.42024,3.24183 -6.95731,6.62332 -9.22576,10.17169c-0.96369,1.50743 -3.16633,9.99861 -2.03443,10.15282c10.13787,1.38113 28.88338,-1.94714 42.51967,0.38839c9.26876,1.58749 15.34791,5.74454 23.20061,10.9785c3.78892,2.52538 7.75052,5.15666 11.42409,8.11643c3.36297,-0.8909 6.7229,-1.79862 10.07763,-2.7353c8.30937,-2.32006 22.44813,-7.38324 31.22122,-6.6814c14.6709,1.17367 24.25173,13.54303 18.70038,28.56432c-4.23353,11.45542 -19.20642,11.39797 -28.74306,13.78955c-4.65774,1.16806 -9.35488,2.33858 -14.06824,3.52365c0.20741,6.77904 -0.76835,13.49287 -3.23496,19.05585c-2.65278,5.98286 -9.481,12.55532 -14.35786,17.14214c-5.91839,5.56639 -14.37126,8.38134 -21.32396,12.2825c-7.6434,4.2887 -14.34621,13.47329 -24.57468,10.68371c-3.85177,-1.05048 -7.56254,-3.14312 -10.38563,-5.96621c-2.82309,-2.82309 -4.91573,-6.53386 -5.96621,-10.38563c-2.71891,-9.96935 4.20479,-17.83057 12.69324,-23.88554c-10.47148,2.99285 -21.0076,5.55348 -32.1042,6.97459c-19.25434,2.46586 -19.90891,2.23595 -41.48069,2.15444c-7.37421,-0.02786 -16.10107,-1.04257 -23.31909,-3.09412c-5.35788,-1.52285 -10.37034,-5.05552 -14.99104,-7.84844c-19.97497,-12.07358 -33.30243,-36.35619 -28.09272,-59.90815c2.20767,-9.98041 6.90568,-19.36738 11.24366,-28.53045c1.03356,-2.18318 2.17812,-3.76711 3.20453,-5.22674c-15.67729,5.56228 -32.02912,8.92734 -48.85606,7.52577c-14.6083,-1.21677 -27.361,-4.78187 -41.06767,-10.53496c-7.75528,-3.25512 -18.04122,-7.41906 -19.18688,-17.40267c-1.35762,-11.83072 5.92876,-22.47095 17.7674,-24.00446c6.19013,-0.80183 11.15753,2.32186 16.60741,4.39754c1.60612,0.61172 16.50142,6.12193 20.50763,6.89123c15.34826,2.94726 30.66885,-0.57109 44.96202,-6.06927c-2.78953,-5.35031 -5.74919,-10.65917 -8.80322,-15.63942c-8.45174,-13.78238 -11.80987,-16.41699 -11.97598,-34.55585c-0.07991,-8.72638 -0.80758,-18.92619 2.43047,-27.42781c8.62969,-22.65759 34.43073,-43.87987 58.90558,-46.32735c19.16822,-1.91682 37.71546,1.39525 56.54949,3.96021c10.5166,1.43223 21.0689,2.58994 31.59516,3.94939c5.45655,0.70471 13.62053,3.51849 17.06163,4.35794c3.50542,0.85514 6.04973,1.34111 8.33883,1.59929c-5.13879,-4.27982 -10.44042,-8.25064 -15.88115,-12.11167c-0.71345,-0.5063 -4.63425,-4.24022 -6.23935,-4.95508c-7.12466,-3.17311 -14.2869,-5.94775 -21.56726,-8.70316c-4.30346,-1.62874 -5.22192,-2.97782 -10.43894,-4.34176c-9.00189,-2.35346 -36.36854,-2.0409 -42.47018,-2c-0.2377,0.00159 -9.05478,6.7109 -9.57282,7.13087c-4.94223,4.0067 -11.85096,7.10519 -17.83307,9.25203c-9.66317,3.46788 -25.88301,1.65272 -33.87839,1.6171c-4.94067,-0.02201 -10.32938,-0.33048 -15.00943,-1.99342c-5.67738,-2.01732 -8.13565,-3.60936 -14.93484,-7.11803c-4.36888,-2.25453 -9.10487,-6.57008 -12.43419,-9.19634c-15.89219,-12.53622 -30.5511,-27.24769 -41.26255,-44.5982c-4.95281,-8.02261 -8.66676,-21.62058 -1.66449,-29.44665c7.94043,-8.8746 20.73386,-10.49768 29.74517,-2.66817c5.00383,4.34759 3.33731,7.97273 6.71989,12.20466c9.70665,12.14396 18.86324,23.34502 31.22737,33.11322c5.2162,4.12103 8.10582,7.01921 14.3669,9.21918c1.37765,0.48407 2.89392,0.45567 4.35387,0.48376c6.92777,0.1333 13.8629,0.25798 20.78714,0c4.08043,-0.15203 7.21322,-5.53345 9.92481,-7.77051c1.52283,-1.25633 4.15643,-2.04083 5.97828,-2.78173c4.53126,-1.84276 7.96487,-5.05076 12.87751,-6.42142c13.27043,-3.70255 27.46778,-1.30163 40.97981,-0.02633c6.45086,0.60885 13.0858,0.23973 19.46975,1.3125c4.41256,0.74149 10.14954,3.27139 14.19956,4.71383c10.66748,3.7993 22.06113,8.14235 31.88869,13.85488c2.25719,1.31205 3.91794,3.37587 5.92384,4.9716c2.10682,1.67601 4.66535,2.58768 6.86292,4.14719c4.52908,3.21407 7.10358,6.36102 11.35887,10.0746c5.15582,4.49947 10.58842,8.88915 15.43019,13.81245c1.35422,-1.34513 2.7104,-2.68829 4.0688,-4.02919c4.84618,-4.78374 11.5384,-8.03684 17.62356,-10.90858c16.56883,-7.81924 32.4055,-9.672 47.51857,2.05071c9.2919,7.20742 18.88591,20.39316 25.09567,30.67465c9.45728,15.65841 21.5629,33.92884 27.67873,51.62569c2.07813,6.01332 2.88935,13.39975 3.88305,19.01389c0.62656,3.5399 0.89734,7.15619 0.95609,10.79086c2.10348,0.42506 4.20644,0.85269 6.30879,1.2833c8.24842,1.68943 24.71063,8.09634 25.98996,8.50052c4.4898,1.41848 9.06655,2.54652 13.58214,3.88061c4.14984,1.22603 8.21777,3.38344 12.02415,5.17976c11.04398,5.21192 29.99685,13.64795 25.58978,29.80722c-2.20971,8.10227 -8.24958,14.14214 -16.35184,16.35184c-8.67705,2.36647 -18.66227,-6.46337 -26.29443,-10.01663c-10.44094,-4.86094 -33.4073,-12.00483 -43.60537,-14.7243c-0.56744,-0.15132 -1.13581,-0.29903 -1.70507,-0.44334c-3.54453,9.00535 -9.09371,15.52698 -17.13581,22.26106c-3.16439,2.64971 -7.82038,5.3532 -10.65349,7.27698c-1.03825,0.70501 -3.18778,0.9395 -3.06367,2.18834c0.7085,7.129 3.55016,9.88654 4.99661,15.0872c1.12672,4.05111 0.87513,8.83953 3.51003,12.11647c1.09352,0.8009 2.10266,1.71022 3.01158,2.71211c3.22071,3.55016 5.18312,8.26279 5.18312,13.43376c0,2.50924 -0.46209,4.91055 -1.30583,7.12348c-0.35573,1.5983 -0.87632,3.11858 -1.81917,4.43902zM356.87525,182.72533c4.12743,-3.04921 7.65415,-5.24785 11.5076,-7.87007c-2.81521,-0.0036 -5.71317,0.04973 -8.77768,0.14474c-3.37815,0.10473 -4.77761,5.03828 -5.49956,9.98781c0.86053,-0.7789 1.78265,-1.53333 2.76964,-2.26248zM376.30021,124.12648c-1.42098,-4.51784 -7.94918,-16.3256 -10.22053,-20.29722c-8.19791,-14.33462 -16.46897,-31.33101 -29.15503,-42.82926c-0.8897,-0.8064 -12.09409,5.03772 -13.68285,6.54248c-2.92992,2.77504 -5.73341,5.76017 -8.52671,8.7559c6.1436,14.88688 7.81028,31.02284 4.78492,47.16373c-0.9817,5.23758 -1.3898,10.35278 -3.27342,15.56036c-3.65058,10.09265 -8.58779,17.46202 -15.1841,25.71932c-7.62763,9.54831 -8.69377,14.87815 -20.59821,21.14676c-0.11069,0.05829 -0.22037,0.11565 -0.32907,0.17212c1.71618,0.80795 4.01967,1.06928 5.7053,1.82491c7.8844,3.53439 17.61073,7.36562 26.56397,5.11443c0.79606,-0.20016 0.41784,-1.58801 0.59725,-2.389c0.7375,-3.29264 0.30008,-6.6562 0.99454,-9.94961c2.2408,-10.62676 5.66556,-23.77459 13.5377,-31.8654c13.70288,-14.08352 31.43336,-14.62169 49.97861,-13.69674c0.31452,0.01569 0.62925,0.03146 0.94417,0.04739c-0.34931,-3.71748 -0.9986,-7.40221 -2.13655,-11.02017zM275.50001,100c-2.24272,0.01631 -20.41349,1.17112 -28.92232,-0.38839c-6.8061,-1.24743 -18.72385,-4.89115 -24.91242,-5.93531c-14.2817,-2.40968 -28.72919,-3.72147 -43.05079,-5.88135c-12.47212,-1.88096 -32.06742,-5.35225 -43.24894,1.73632c-3.51081,2.22569 -6.93581,4.60962 -10.14773,7.24838c-7.46795,6.13531 -7.26515,12.64586 -6.71779,21.79899c0.15808,2.64351 0.17005,5.39422 1.12355,7.86484c0.89179,2.3107 2.86719,4.03991 4.26109,6.08727c2.63648,3.87246 5.41049,9.68656 7.13615,12.82415c0.66169,1.20309 1.32133,2.40163 1.97666,3.59677c0.33961,-0.62415 0.70697,-1.22253 1.13812,-1.75536c4.89063,-6.04397 10.65494,-11.27537 15.45016,-17.38042c4.75418,-6.05281 8.60628,-13.28545 14.39345,-18.46344c7.16805,-6.41352 18.80121,-11.5395 27.82374,-13.72689c8.38157,-2.032 18.64702,-3.15058 26.69707,0.87444c18.64153,9.32076 22.76886,39.69232 21.02039,58.32096c6.6376,-1.372 13.3466,-3.55649 19.93824,-5.16096c4.36256,-1.06189 7.32753,-7.78432 9.40035,-10.754c2.21754,-3.17701 4.9198,-5.69163 7,-9c2.65709,-4.22587 4.50137,-11.93069 4.64101,-17.36811c0.14762,-5.74834 0.12092,-10.43628 -0.70122,-14.81372c-1.38744,0.17074 -2.81898,0.26506 -4.29878,0.27583zM151.60789,212.38675c-0.81619,8.16189 -6.74504,13.56034 -10.60205,20.41001c-6.19685,11.00502 -12.50693,23.83735 -1.11622,34.09264c1.77524,1.59829 10.00575,5.83479 10.2259,5.93731c3.43047,1.59744 7.50904,1.06678 11.2917,1.17329c17.02628,0.47941 19.89168,0.53135 35.11269,-1.78313c3.29055,-0.50036 6.49348,-1.02166 9.65379,-1.5939c-17.1446,-1.15679 -33.11076,-6.42607 -38.68028,-24.61353c-1.27913,-4.17706 -1.0894,-8.53872 -0.91058,-12.83788c0.35344,-8.49735 0.96937,-17.41373 3.94349,-25.49611c3.19143,-8.67293 8.40474,-14.58814 14.34687,-20.54069c0.78869,-4.02785 2.7864,-7.62266 5.59975,-10.39106c0.22702,-0.37416 0.46749,-0.7399 0.72155,-1.09634c1.29463,-1.81634 4.13153,-3.79774 6.46201,-5.36444c-0.01259,-0.30514 -0.0239,-0.57735 -0.00207,-0.76361c0.57738,-4.92606 1.51605,-9.81563 1.84556,-14.76446c0.28686,-4.30838 0.30704,-8.64676 0,-12.95375c-0.10768,-1.51042 0.02369,-5.20117 -1.24186,-4.3697c-2.3686,1.55617 -4.56357,2.5442 -7.08393,3.83958c-4.67072,2.4006 -7.38451,10.11586 -10.62267,13.89912c-3.92191,4.5821 -10.77068,10.63398 -14.20108,15.85037c-2.33967,3.55777 -3.4947,7.11325 -6.68036,10.03108c-3.0892,2.82948 -6.2855,5.39214 -9.58547,7.74581c1.69271,7.46319 2.35747,15.24733 1.52326,23.58941z" fill="#272727" stroke="none" stroke-width="0.5"/><path d="M102.71268,200.85072c-4.85071,1.21268 -6.06339,-3.63804 -6.06339,-3.63804l-1.08118,-4.39023c-1.0173,-11.48057 -1.98535,-22.96553 -2.96876,-34.44905c-0.66787,-0.66273 -1.28768,-1.43224 -1.96218,-2.02511c-2.50366,-2.20064 -4.8547,-4.56907 -7.282,-6.85365c-5.69048,-5.35591 -11.39142,-10.55045 -17.2,-15.77818c0,0 -3.71647,-3.34482 -0.37165,-7.06129c3.34483,-3.71647 7.0613,-0.37165 7.0613,-0.37165c5.86257,5.27631 11.62025,10.5234 17.364,15.92912c2.42737,2.28451 4.96649,4.45583 7.282,6.85365c0.28355,0.29363 0.03347,1.17985 0.43997,1.1428c2.58147,-0.23529 5.01205,-1.33443 7.54811,-1.87086c2.14792,-0.45433 4.41975,-0.3798 6.49394,-1.09931c7.61962,-2.64315 15.03396,-7.24122 22.33039,-10.7305l3.96068,-1.98056c0,0 4.47214,-2.23607 6.70821,2.23606c2.23607,4.47214 -2.23606,6.70821 -2.23606,6.70821l-4.03932,2.01944c-10.29094,4.92219 -20.10017,10.9669 -31.48,12.69449c-1.50511,0.22849 -3.01186,0.57212 -4.52014,0.89001c0.9198,10.69977 1.85408,21.39848 2.73528,32.10147l0.91882,3.60977c0,0 1.21268,4.85072 -3.63803,6.0634z" fill="#f90000" stroke="none" stroke-width="0.5"/><path d="M151.38042,183.0328c-0.74318,0.35276 -1.46209,0.74873 -2.14009,1.21761c-2.4984,1.72782 -4.09535,4.50854 -6.40005,6.48736c-0.19046,0.16353 -0.51324,-0.83243 -0.47516,-0.5843c0.19415,1.26503 -0.27003,3.35201 0.9562,3.71857c2.25153,0.67305 4.57713,-1.14207 6.91651,-1.36518c2.72559,-0.25994 5.58681,0.69477 8.21352,-0.07778c2.53458,-0.74545 4.51333,-4.22842 3.79539,-6.80043c-0.11642,-0.41709 -0.86234,0.17193 -1.29297,0.12626c-1.76993,-0.18772 -3.51718,-0.54863 -5.27577,-0.82295l-0.17801,0.06803c0,0 -2.68467,0 -4.11958,-1.96721zM160.5445,175.55885c3.84105,0.60887 8.89735,1.72043 10.20876,4.8125c3.70946,8.74629 0.17612,17.24063 -8.25451,21.20207c-3.55917,1.6724 -7.83,0.83313 -11.76153,0.92097c-14.0471,0.31385 -16.31333,2.78671 -18.10234,-14.64785c-0.17842,-1.73874 1.96214,-2.90947 3.14804,-4.1935c2.46234,-2.6661 4.78448,-5.56309 7.76943,-7.62738c2.98495,-2.06429 6.58577,-3.05166 9.87865,-4.57748c0,0 4.55183,-2.06902 6.62085,2.48281c0.26503,0.58307 0.42143,1.1254 0.49267,1.62786z" fill="#f90000" stroke="none" stroke-width="0.5"/><path d="M220.71268,174.14929c4.85072,1.21268 3.63804,6.0634 3.63804,6.0634l-1.06569,4.23768c-1.58041,3.8627 -1.58857,8.85336 -4.74124,11.5881c-3.46587,3.00642 -8.59455,3.99656 -13.18252,3.95962c-10.99974,-0.08856 -16.75224,-8.36661 -19.70623,-17.76264c-0.7235,-2.30131 -0.10335,-4.82362 -0.15503,-7.23543c0,0 0,-5 5,-5c5,0 5,5 5,5c-0.22767,6.99673 2.27242,14.65292 10.13873,15.00193c2.0813,0.09234 4.67351,0.20354 6.11276,-1.30273c1.70736,-1.78686 1.30899,-4.76637 1.96348,-7.14955l0.93431,-3.76232c0,0 1.21268,-4.85072 6.0634,-3.63804z" fill="#f90000" stroke="none" stroke-width="0.5"/><path d="M195.3757,279.12805c5.90162,-1.36192 11.59256,-2.69491 17.26863,-4.77122c2.5171,-0.92076 5.62453,-0.80284 7.60614,-2.60751c4.23238,-3.85445 1.07055,-15.46796 0.64191,-19.21107c-0.29238,-2.55329 -0.81096,-13.63776 -3.51728,-16.26379c-1.93617,-1.87873 -5.10159,-1.76533 -7.59903,-2.78572c-2.65031,-1.08285 -5.01195,-3.04069 -7.83453,-3.52003c-1.92339,-0.32664 -3.80806,0.85362 -5.72478,1.21735c-2.26046,0.42897 -4.52828,0.81773 -6.79584,1.20792c3.31152,15.28525 4.49755,31.29497 5.61194,46.88829zM184.63108,223.07608c0.01608,-0.00284 17.55738,-3.1779 18.42738,-3.04479c3.76132,0.57548 7.10261,2.73788 10.59818,4.24111c3.6506,1.5699 8.07858,2.1117 10.83368,4.97542c2.91003,3.02477 3.89525,7.49956 5.05032,11.53482c0.97896,3.42003 0.86334,7.0622 1.28411,10.59461c1.11221,9.33707 4.15919,19.35942 -3.50304,27.44298c-2.74633,2.89734 -7.28996,3.2574 -10.96303,4.8212c-6.05856,2.57942 -12.34202,3.75538 -18.73438,5.23054l-0.88823,0.60018c0,0 -1.41602,0.70801 -3.05286,0.53044c-0.66789,0.5174 -1.58055,0.89569 -2.82698,0.98472c-4.98729,0.35624 -5.34353,-4.63106 -5.34353,-4.63106l-0.28753,-4.02542c-1.23383,-17.30147 -2.34647,-35.29756 -6.57589,-52.11814c0,0 -1.20243,-4.80973 3.57676,-6.0478c1.13591,-0.86484 2.40503,-1.08881 2.40503,-1.08881z" fill="#f90000" stroke="none" stroke-width="0.5"/><path d="M252.12018,246.03861c4.96139,0.62017 4.34122,5.58156 4.34122,5.58156l-0.98415,7.85641c-0.32801,4.9521 -0.65818,9.90405 -0.98831,14.85601c0,0 -0.33259,4.98892 -5.32152,4.65633c-4.98892,-0.3326 -4.65633,-5.32152 -4.65633,-5.32152c0.33653,-5.04804 0.67312,-10.09608 1.01169,-15.14399l1.01585,-8.14359c0,0 0.62017,-4.96139 5.58156,-4.34122z" fill="#f90000" stroke="none" stroke-width="0.5"/><path d="M246.5,222c0,-2.76143 2.23857,-5 5,-5c2.76143,0 5,2.23857 5,5c0,2.76143 -2.23857,5 -5,5c-2.76143,0 -5,-2.23857 -5,-5z" fill="#f90000" stroke="none" stroke-width="0.5"/><path d="M299.35071,272.21268c-1.21268,4.85071 -6.06339,3.63804 -6.06339,3.63804l-3.74849,-0.94397c-4.22091,-0.59563 -14.68935,-2.00051 -16.12842,-2.97553c-2.58686,-1.75269 -3.69572,-5.40865 -3.89405,-8.52706c-0.63074,-9.91733 7.35235,-22.45865 18.0381,-23.31393c4.40922,-0.35291 10.03184,-1.93204 13.22155,1.13251c3.2659,3.13775 3.67797,9.25862 1.95226,13.44593c-0.77518,1.88092 -18.45986,7.09361 -19.47395,7.27411c-1.21926,0.21702 -2.45684,0.23485 -3.69959,0.19664c-0.02206,0.15302 -0.04557,0.30525 -0.07109,0.45644c-0.08193,0.48539 -0.37214,1.35575 0.10595,1.47294c3.85769,0.94563 7.94045,0.45682 11.87158,1.02447l4.25151,1.05603c0,0 4.85071,1.21268 3.63804,6.06339zM291.79109,249.18555c0.82566,0.06112 1.66357,0.24988 2.48064,0.14579c0.18389,-0.02343 0.13632,-0.57613 -0.04774,-0.55407c-0.81454,0.09762 -1.62842,0.23234 -2.43291,0.40828z" fill="#f90000" stroke="none" stroke-width="0.5"/><path d="M335.39347,272.77452c-3.09936,-3.74015 -4.93288,-10.17674 -5.35501,-11.08221c-0.51499,-1.10467 -1.38505,-2.07869 -2.39182,-2.76567c-0.19639,-0.13401 -0.52469,-0.68444 -0.55456,-0.44857c-0.28946,2.28579 0.02477,4.62115 -0.26331,6.90711c-0.20553,1.63086 -2.26127,3.51733 -1.2096,4.78065c1.29303,1.55325 4.03548,0.43216 5.98688,0.95803c1.83707,0.49506 3.20144,1.30498 3.78743,1.65065zM345.60553,271.76271c0.05475,2.14808 -1.57,3.77282 -1.57,3.77282l0.31518,-1.32286c-1.00816,2.30398 -0.72725,5.88848 -3.02448,6.91193c-4.64774,2.07064 -20.9555,-1.33917 -23.94539,-5.29044c-2.53024,-3.34383 0.73237,-22.11466 2.52708,-24.31224c2.05737,-2.51919 6.21886,-2.85879 9.44544,-2.44857c3.31209,0.4211 5.52781,1.71839 7.12345,3.5896c0.01392,-0.55463 0.02319,-1.10903 0.02319,-1.66296c0,-10.8938 0.2439,-21.61401 -0.96942,-32.44784c0,0 -0.55216,-4.96942 4.41726,-5.52158c4.96942,-0.55216 5.52158,4.41726 5.52158,4.41726c1.09414,9.92136 1.03058,19.57679 1.03058,29.55216c0,4.66666 0.31662,9.34409 0,14c-0.24077,3.54071 0.88644,7.83601 -0.89447,10.76271z" fill="#f90000" stroke="none" stroke-width="0.5"/></g></g></svg>