<svg version="1.1" xmlns="http://www.w3.org/2000/svg" xmlns:xlink="http://www.w3.org/1999/xlink" width="283.5" height="206.5" viewBox="0,0,283.5,206.5"><g transform="translate(-98.25,-76.75)"><g data-paper-data="{&quot;isPaintingLayer&quot;:true}" fill-rule="nonzero" stroke-linecap="butt" stroke-linejoin="miter" stroke-miterlimit="10" stroke-dasharray="" stroke-dashoffset="0" style="mix-blend-mode: normal"><path d="M143,180c0,-53.57162 43.42838,-97 97,-97c53.57162,0 97,43.42838 97,97c0,53.57162 -43.42838,97 -97,97c-53.57162,0 -97,-43.42838 -97,-97z" fill="#000000" stroke="#e8c200" stroke-width="12.5"/><path d="M156.5,180c0,-46.11577 37.38423,-83.5 83.5,-83.5c46.11577,0 83.5,37.38423 83.5,83.5c0,46.11577 -37.38423,83.5 -83.5,83.5c-46.11577,0 -83.5,-37.38423 -83.5,-83.5z" fill="#000000" stroke="#ffd600" stroke-width="18"/><path d="M159,180c0,-44.73506 36.26494,-81 81,-81c44.73507,0 81,36.26494 81,81c0,44.73506 -36.26493,81 -81,81c-44.73506,0 -81,-36.26494 -81,-81z" fill="#000000" stroke="#ffee9a" stroke-width="9"/><path d="M104.5,186c0,-23.19596 60.66542,-42 135.5,-42c74.83459,0 135.5,18.80404 135.5,42c0,23.19596 -60.66541,42 -135.5,42c-74.83458,0 -135.5,-18.80404 -135.5,-42z" fill="#000000" stroke="#e8c200" stroke-width="12.5"/><path d="M123.35825,182c0,-18.2197 52.22229,-32.98969 116.64176,-32.98969c64.41946,0 116.64175,14.76999 116.64175,32.98969c0,18.2197 -52.22229,32.98969 -116.64175,32.98969c-64.41946,0 -116.64175,-14.76999 -116.64175,-32.98969z" fill="#000000" stroke="#ffd600" stroke-width="26.5"/><path d="M126.85052,183.5c0,-18.5357 50.65875,-33.56185 113.14949,-33.56185c62.49073,0 113.14949,15.02615 113.14949,33.56185c0,18.5357 -50.65875,33.56186 -113.14949,33.56186c-62.49073,0 -113.14948,-15.02615 -113.14948,-33.56186z" fill="#000000" stroke="#ffee9a" stroke-width="9"/><path d="M159,180c0,-44.73506 36.26494,-81 81,-81c44.73507,0 81,36.26494 81,81c0,44.73506 -162,44.73506 -162,0z" fill="#000000" stroke="none" stroke-width="0"/><path d="M195.74629,153.49803c-2.02763,-0.92997 -4.10958,-1.7083 -6.38429,-1.98616c0,0 -4.94975,-0.70711 -4.24265,-5.65686c0.70711,-4.94975 5.65686,-4.24264 5.65686,-4.24264c5.28825,0.8255 9.71101,3.20404 14.48621,5.37768c6.24238,2.84149 12.69665,5.42449 19.27043,7.44759c3.30739,1.01787 9.20658,2.27368 10.74332,5.84346c0.85553,1.98736 0.29496,4.39936 -0.28105,6.48496c-1.84103,6.66601 -8.77116,9.16089 -14.74859,10.08782c-8.55881,-0.00971 -13.85677,-3.25127 -19.95613,-8.94345c-0.98398,-0.9183 -2.30055,-1.53964 -3.02609,-2.67326c-2.14685,-3.35437 -1.74403,-5.15324 -1.80235,-8.73406v-1.35559c0,0 0.00001,-0.73938 0.28433,-1.64949z" fill="#ffffff" stroke="none" stroke-width="0.5"/><path d="M276.29361,160.96317c0.1109,0.5676 0.11089,0.9623 0.11089,0.9623v1.80746c-0.01304,2.39154 0.18362,5.55474 -1.00602,7.71026c-0.84267,1.52684 -2.41643,2.5152 -3.62464,3.7728c-5.51619,2.04565 -12.61777,4.32601 -18.47511,1.75199c-5.70241,-2.50593 -9.69881,-8.54444 -5.57747,-14.67575c0.95412,-1.41944 3.06643,-1.51581 4.59902,-2.27498c2.05059,-1.01576 4.21554,-1.81244 6.41403,-2.44754c7.13293,-2.06056 13.69137,-5.7904 20.13049,-9.47459c0,0 4.34122,-2.4807 6.82191,1.86052c2.4807,4.34122 -1.86052,6.82191 -1.86052,6.82191c-2.48464,1.41812 -4.98897,2.84009 -7.53258,4.18562z" fill="#ffffff" stroke="none" stroke-width="0.5"/><path d="M208.67235,205.68862c-4.90291,0.98058 -5.88349,-3.92232 -5.88349,-3.92232l-0.49871,-2.53279c-0.5151,-4.10258 -1.85113,-7.24419 -2.28903,-11.55102c0,0 -0.45268,-4.97946 4.52678,-5.43214c4.97947,-0.45268 5.43215,4.52678 5.43215,4.52678c0.30847,4.04943 1.61486,7.05845 2.2296,11.04216l0.40502,1.98585c0,0 0.98058,4.9029 -3.92233,5.88348z" fill="#ffffff" stroke="none" stroke-width="0.5"/><path d="M234.35171,209.85249c-5,0 -5,-5 -5,-5l0.03861,0.16831c-0.73508,-5.89477 -2.95746,-10.87031 -4.40796,-16.5783c0,0 -1.21268,-4.85071 3.63804,-6.06339c4.85072,-1.21268 6.06339,3.63804 6.06339,3.63804c1.48832,6.07713 3.83969,11.46054 4.62931,17.76331l0.03861,1.07204c0,0 0,5 -5,5z" fill="#ffffff" stroke="none" stroke-width="0.5"/><path d="M253.32997,208.04503c-5,0 -5,-5 -5,-5l0.01258,-2.35673c-0.57562,-3.90934 -0.62708,-7.86841 -1.30014,-11.73276c0,0 -0.82199,-4.93197 4.10998,-5.75396c4.93197,-0.82199 5.75396,4.10997 5.75396,4.10997c0.67631,4.19725 0.82184,8.43676 1.41104,12.66786l0.01258,3.06562c0,0 0,5 -5,5z" fill="#ffffff" stroke="none" stroke-width="0.5"/><path d="M270.95264,204.43013c-5,0 -5,-5 -5,-5l0.40428,-3.32519c1.44838,-3.02314 0.95131,-5.97436 0.95131,-9.32699c0,0 0,-5 5,-5c5,0 5,5 5,5c0,4.90338 0.10478,8.62377 -1.75986,13.26618l0.40427,-0.614c0,0 0,5 -5,5z" fill="#ffffff" stroke="none" stroke-width="0.5"/></g></g></svg>