<svg version="1.1" xmlns="http://www.w3.org/2000/svg" xmlns:xlink="http://www.w3.org/1999/xlink" width="43.63407" height="79.33333" viewBox="0,0,43.63407,79.33333"><g transform="translate(-218.18297,-140.33334)"><g data-paper-data="{&quot;isPaintingLayer&quot;:true}" fill-rule="nonzero" stroke="none" stroke-linecap="butt" stroke-linejoin="miter" stroke-miterlimit="10" stroke-dasharray="" stroke-dashoffset="0" style="mix-blend-mode: normal"><path d="M218.18297,196.66667c0,-5.70338 0,-22.22244 0,-32.66667c0,-5.27474 5.52618,-9 9.76025,-9c4.63935,0 15.53952,0 23.73081,0c5.73557,0 10.14301,4.28711 10.14301,8c0,5.38105 0,20.75834 0,31.33333c0,6.1438 -5.52618,10.66667 -9.76025,10.66667c-4.712,0 -15.88242,0 -24.11356,0c-5.54773,0 -9.76025,-4.49454 -9.76025,-8.33333z" fill="#ff0000" stroke-width="NaN"/><path d="M229.83333,219.66667v-79.33333h20.33333v79.33333z" fill="#b1b1b1" stroke-width="0"/><path d="M220.84205,164.4c-1.12971,-1.05 -0.28243,-2.45 -0.28243,-2.45l1.05448,-1.64985c2.11079,-1.94111 3.16611,-1.71681 5.72375,-1.71681c0,0 1.41213,0 1.41213,1.75c0,1.75 -1.41213,1.75 -1.41213,1.75c-1.81716,0 -2.63998,-0.53749 -3.95944,0.94985l-0.55938,1.01681c0,0 -0.84728,1.4 -1.97699,0.35z" fill="#ff7373" stroke-width="0.5"/><path d="M219.84058,168.66667c0,-0.9665 0.57668,-1.75 1.28804,-1.75c0.71137,0 1.28804,0.7835 1.28804,1.75c0,0.9665 -0.57668,1.75 -1.28804,1.75c-0.71137,0 -1.28804,-0.7835 -1.28804,-1.75z" fill="#ff7373" stroke-width="0.5"/></g></g></svg>