<svg version="1.1" xmlns="http://www.w3.org/2000/svg" xmlns:xlink="http://www.w3.org/1999/xlink" width="283.5" height="207.31545" viewBox="0,0,283.5,207.31545"><g transform="translate(-98.25,-75.93458)"><g data-paper-data="{&quot;isPaintingLayer&quot;:true}" fill-rule="nonzero" stroke-linecap="butt" stroke-linejoin="miter" stroke-miterlimit="10" stroke-dasharray="" stroke-dashoffset="0" style="mix-blend-mode: normal"><path d="M143,180.00001c0,-43.23331 28.28401,-79.86053 67.35754,-92.38718l1.89936,1.62803l0.19928,0.09964l0.01114,0.03961l2.1915,1.1688l1.09931,0.65959l0.22593,0.22593l0.14865,0.08919l0.08546,0.17092l0,0.24449l-0.06199,0.80582l-0.12269,0.49076l-0.20588,0.61765l-0.02288,0.29739l-0.03843,0.15371v0.34585l-0.06199,0.80582l-0.38988,1.55951v0.52796l-0.25015,1.50089l-0.355,1.42002v1.23106l-0.29857,1.1943v0.81726l-0.25767,1.28835l0.04738,0.99489l-0.24157,0.96628v9.28852l-0.06231,0.09346l0.06231,0.28038v0.27864l0.45186,1.80745v0.45186l0.47848,1.91392l-0.2012,0.73773l0.66108,1.1018l0.31164,1.24655l0.66392,0.37938l0.28376,0.47294l0.6655,1.331l1.04615,1.22051l0.82705,1.37842l0.92836,0.92836l0.01677,0.30193l0.39538,0.3389l0.07394,0.14788l0.06966,0.27864l0.09752,0.05573l0.16007,0.32013l0.75173,0.87701l0,0.97694l-0.45186,1.80745v0.27864l-0.06231,0.28038l0.06231,0.09346v9.53977l-0.06231,0.09346l0.06231,0.28038v0.27864l0.45186,1.80745l0,0.90373l0.29857,1.1943l0,1.23106l0.60515,2.42061v1.48012l0.38988,1.55951l0.06199,0.80582v0.34585l0.03843,0.15371l0.02288,0.29739l0.20588,0.61765l0.12269,0.49076l0.12329,1.60277l0.23727,0.71181l0,0.81058l0.32675,1.30699l0.37891,2.65236l0.19807,0.48617v0.52497l0.39415,1.5766l0.211,1.05501l0,0.36539l0.38988,1.55951l0.12329,1.60277l0.45186,1.35559l0.27084,0.4256l0.01413,0.05653l0.03432,0.01961l0.00282,0.00444l0.36702,1.46808l2.13139,3.99636l0.05963,0.29813l0.15043,0.09573l0.08391,0.15733l0.29268,0.08232l3.82111,2.43162l1.35559,0.45186l2.61645,0.20127l0.54583,0.3119l0.41631,-0.23789l1.56011,0.12001l3.1286,-2.79927l3.64498,-2.08284l0.3795,-1.518l0.35733,-0.31972l-0.12329,-0.61645l0.63646,-2.54583l0,-0.70311l0.06231,-0.09346l-0.06231,-0.28038l0,-0.27864l-0.55728,-2.22912l-0.30119,-1.35537l-0.10656,-1.38524l-0.16037,-0.48111l0.02748,-0.57709l-0.45186,-2.25932l-0.27051,-0.57107l-0.04846,-0.63004l-1.35559,-4.06677l-0.32212,-0.50618l-0.36702,-1.46808l-0.18452,-0.34597l-0.03007,-0.39095l-0.45186,-1.35559l-0.16144,-0.25369l-0.04063,-0.29794l-0.56865,-1.42162l-0.00972,-0.03888l-0.06199,-0.80582v-4.30661l0.06199,-0.80582l0.11326,-0.45306l0.12461,-0.24922l0.08936,-0.40212l0.00134,-0.00402l0.00024,-0.00307l0.0652,-0.29342l0.38642,-0.60724l0.22713,-0.68138l1.94149,-3.88298l0.15614,-0.70262l0.38642,-0.60724l0.0005,-0.00151l0.81252,-0.94795l0.178,-0.356l0.65998,-0.65998l0.51244,-0.85407l0.73699,-0.66999l0.35447,-0.5317l0.19405,-0.19405l0.11014,-0.02203l0.1542,-0.24231l0.19703,-0.19703l1.18217,-1.97029l0.9143,-1.43676l0.03432,-0.01961l0.01413,-0.05653l0.27084,-0.4256l0.08811,-0.26434l0.14777,-0.24629l-0.02955,-0.10837l0.24553,-0.7366l0.12329,-1.60277l0.38988,-1.55951v-2.71118l-0.38988,-1.55951l-0.12329,-1.60277l-0.23727,-0.71181v-0.81058l-0.90373,-3.61491l-0.11886,-0.22286l0.58,-0.29l0.68138,-0.22713l1.12686,-0.71709l1.25786,-0.44924l1.24571,-0.83047l0.15305,-0.0085l1.68355,-1.96414l1.74016,-1.91417l-0.01055,-0.15292l0.11438,-0.22876l0.55838,-0.83757l1.73344,-4.85363l-0.0348,-0.06961l0.04317,-0.06475l-0.51417,-2.31376v-0.50457l-0.38988,-1.55951l-0.12329,-1.60277l-0.45186,-1.35559l-0.27084,-0.4256l-0.01413,-0.05653l-0.03432,-0.01961l-0.00282,-0.00444l-0.36702,-1.46808l-0.18452,-0.34597l-0.03007,-0.39095l-0.45186,-1.35559l-0.38642,-0.60724l-0.0652,-0.29342l-0.00024,-0.00307l-0.00134,-0.00402l-0.08936,-0.40212l-0.13404,-0.26808l-0.22713,-0.68138l-0.38642,-0.60724l-0.0652,-0.29342l-0.00024,-0.00307l-0.00134,-0.00402l-0.08936,-0.40212l-0.13404,-0.26808l-0.0208,-0.06239l0.02955,-0.10837l-0.14777,-0.24629l-0.08811,-0.26434l-1.23359,-1.9385l-0.48086,-0.80144c45.89349,7.68225 80.86814,47.58907 80.86814,95.66467c0,53.57162 -43.42838,97 -97,97c-53.57162,0 -97,-43.42838 -97,-97z" fill="#000000" stroke="#e8c200" stroke-width="12.5"/><path d="M156.5,180.00001c0,-37.30626 24.46544,-68.89833 58.22714,-79.60701l-0.01785,0.0714v1.23106l-0.29857,1.1943v0.81726l-0.25767,1.28835l0.04738,0.99489l-0.24157,0.96628v9.28852l-0.06231,0.09346l0.06231,0.28038v0.27864l0.45186,1.80745v0.45186l0.47848,1.91392l-0.2012,0.73773l0.66108,1.1018l0.31164,1.24655l0.66392,0.37938l0.28376,0.47294l0.6655,1.331l1.04615,1.22051l0.82705,1.37842l0.92836,0.92836l0.01677,0.30193l0.39538,0.3389l0.07394,0.14788l0.06966,0.27864l0.09752,0.05573l0.16007,0.32013l0.75173,0.87701l0,0.97694l-0.45186,1.80745v0.27864l-0.06231,0.28038l0.06231,0.09346v9.53977l-0.06231,0.09346l0.06231,0.28038v0.27864l0.45186,1.80745l0,0.90373l0.29857,1.1943l0,1.23106l0.60515,2.42061v1.48012l0.38988,1.55951l0.06199,0.80582v0.34585l0.03843,0.15371l0.02288,0.29739l0.20588,0.61765l0.12269,0.49076l0.12329,1.60277l0.23727,0.71181l0,0.81058l0.32675,1.30699l0.37891,2.65236l0.19807,0.48617v0.52497l0.39415,1.5766l0.211,1.05501l0,0.36539l0.38988,1.55951l0.12329,1.60277l0.45186,1.35559l0.27084,0.4256l0.01413,0.05653l0.03432,0.01961l0.00282,0.00444l0.36702,1.46808l2.13139,3.99636l0.05963,0.29813l0.15043,0.09573l0.08391,0.15733l0.29268,0.08232l3.82111,2.43162l1.35559,0.45186l2.61645,0.20127l0.54583,0.3119l0.41631,-0.23789l1.56011,0.12001l3.1286,-2.79927l3.64498,-2.08284l0.3795,-1.518l0.35733,-0.31972l-0.12329,-0.61645l0.63646,-2.54583l0,-0.70311l0.06231,-0.09346l-0.06231,-0.28038l0,-0.27864l-0.55728,-2.22912l-0.30119,-1.35537l-0.10656,-1.38524l-0.16037,-0.48111l0.02748,-0.57709l-0.45186,-2.25932l-0.27051,-0.57107l-0.04846,-0.63004l-1.35559,-4.06677l-0.32212,-0.50618l-0.36702,-1.46808l-0.18452,-0.34597l-0.03007,-0.39095l-0.45186,-1.35559l-0.16144,-0.25369l-0.04063,-0.29794l-0.56865,-1.42162l-0.00972,-0.03888l-0.06199,-0.80582v-4.30661l0.06199,-0.80582l0.11326,-0.45306l0.12461,-0.24922l0.08936,-0.40212l0.00134,-0.00402l0.00024,-0.00307l0.0652,-0.29342l0.38642,-0.60724l0.22713,-0.68138l1.94149,-3.88298l0.15614,-0.70262l0.38642,-0.60724l0.0005,-0.00151l0.81252,-0.94795l0.178,-0.356l0.65998,-0.65998l0.51244,-0.85407l0.73699,-0.66999l0.35447,-0.5317l0.19405,-0.19405l0.11014,-0.02203l0.1542,-0.24231l0.19703,-0.19703l1.18217,-1.97029l0.9143,-1.43676l0.03432,-0.01961l0.01413,-0.05653l0.27084,-0.4256l0.08811,-0.26434l0.14777,-0.24629l-0.02955,-0.10837l0.24553,-0.7366l0.12329,-1.60277l0.38988,-1.55951v-2.71118l-0.38988,-1.55951l-0.12329,-1.60277l-0.23727,-0.71181v-0.81058l-0.90373,-3.61491l-0.11886,-0.22286l0.58,-0.29l0.68138,-0.22713l1.12686,-0.71709l1.25786,-0.44924l1.24571,-0.83047l0.15305,-0.0085l1.68355,-1.96414l1.74016,-1.91417l-0.01055,-0.15292l0.11438,-0.22876l0.55838,-0.83757l1.73344,-4.85363l-0.0348,-0.06961l0.04317,-0.06475l-0.51417,-2.31376v-0.50457l-0.20297,-0.81187c35.5584,9.57743 61.72858,42.04919 61.72858,80.6333c0,46.11577 -37.38423,83.5 -83.5,83.5c-46.11577,0 -83.5,-37.38423 -83.5,-83.5z" fill="#000000" stroke="#ffd600" stroke-width="18"/><path d="M159,180.00001c0,-35.79286 23.2158,-66.16338 55.41071,-76.87489l0,0.58189l-0.25767,1.28835l0.04738,0.99489l-0.24157,0.96628v9.28852l-0.06231,0.09346l0.06231,0.28038v0.27864l0.45186,1.80745v0.45186l0.47848,1.91392l-0.2012,0.73773l0.66108,1.1018l0.31164,1.24655l0.66392,0.37938l0.28376,0.47294l0.6655,1.331l1.04615,1.22051l0.82705,1.37842l0.92836,0.92836l0.01677,0.30193l0.39538,0.3389l0.07394,0.14788l0.06966,0.27864l0.09752,0.05573l0.16007,0.32013l0.75173,0.87701l0,0.97694l-0.45186,1.80745v0.27864l-0.06231,0.28038l0.06231,0.09346v9.53977l-0.06231,0.09346l0.06231,0.28038v0.27864l0.45186,1.80745l0,0.90373l0.29857,1.1943l0,1.23106l0.60515,2.42061v1.48012l0.38988,1.55951l0.06199,0.80582v0.34585l0.03843,0.15371l0.02288,0.29739l0.20588,0.61765l0.12269,0.49076l0.12329,1.60277l0.23727,0.71181l0,0.81058l0.32675,1.30699l0.37891,2.65236l0.19807,0.48617v0.52497l0.39415,1.5766l0.211,1.05501l0,0.36539l0.38988,1.55951l0.12329,1.60277l0.45186,1.35559l0.27084,0.4256l0.01413,0.05653l0.03432,0.01961l0.00282,0.00444l0.36702,1.46808l2.13139,3.99636l0.05963,0.29813l0.15043,0.09573l0.08391,0.15733l0.29268,0.08232l3.82111,2.43162l1.35559,0.45186l2.61645,0.20127l0.54583,0.3119l0.41631,-0.23789l1.56011,0.12001l3.1286,-2.79927l3.64498,-2.08284l0.3795,-1.518l0.35733,-0.31972l-0.12329,-0.61645l0.63646,-2.54583l0,-0.70311l0.06231,-0.09346l-0.06231,-0.28038l0,-0.27864l-0.55728,-2.22912l-0.30119,-1.35537l-0.10656,-1.38524l-0.16037,-0.48111l0.02748,-0.57709l-0.45186,-2.25932l-0.27051,-0.57107l-0.04846,-0.63004l-1.35559,-4.06677l-0.32212,-0.50618l-0.36702,-1.46808l-0.18452,-0.34597l-0.03007,-0.39095l-0.45186,-1.35559l-0.16144,-0.25369l-0.04063,-0.29794l-0.56865,-1.42162l-0.00972,-0.03888l-0.06199,-0.80582v-4.30661l0.06199,-0.80582l0.11326,-0.45306l0.12461,-0.24922l0.08936,-0.40212l0.00134,-0.00402l0.00024,-0.00307l0.0652,-0.29342l0.38642,-0.60724l0.22713,-0.68138l1.94149,-3.88298l0.15614,-0.70262l0.38642,-0.60724l0.0005,-0.00151l0.81252,-0.94795l0.178,-0.356l0.65998,-0.65998l0.51244,-0.85407l0.73699,-0.66999l0.35447,-0.5317l0.19405,-0.19405l0.11014,-0.02203l0.1542,-0.24231l0.19703,-0.19703l1.18217,-1.97029l0.9143,-1.43676l0.03432,-0.01961l0.01413,-0.05653l0.27084,-0.4256l0.08811,-0.26434l0.14777,-0.24629l-0.02955,-0.10837l0.24553,-0.7366l0.12329,-1.60277l0.38988,-1.55951v-2.71118l-0.38988,-1.55951l-0.12329,-1.60277l-0.23727,-0.71181v-0.81058l-0.90373,-3.61491l-0.11886,-0.22286l0.58,-0.29l0.68138,-0.22713l1.12686,-0.71709l1.25786,-0.44924l1.24571,-0.83047l0.15305,-0.0085l1.68355,-1.96414l1.74016,-1.91417l-0.01055,-0.15292l0.11438,-0.22876l0.55838,-0.83757l1.73344,-4.85363l-0.0348,-0.06961l0.04317,-0.06475l-0.19803,-0.89113c33.89583,9.68156 58.70948,40.89014 58.70948,77.89424c0,44.73506 -36.26493,81 -81,81c-44.73506,0 -81,-36.26494 -81,-81z" fill="#000000" stroke="#ffee9a" stroke-width="9"/><path d="M104.5,186.00001c0,-21.21742 50.75766,-38.7602 116.68866,-41.59851v0.7628l-0.06231,0.09346l0.06231,0.28038v0.27864l0.45186,1.80745l0,0.90373l0.29857,1.1943l0,1.23106l0.60515,2.42061v1.48012l0.38988,1.55951l0.06199,0.80582v0.34585l0.03843,0.15371l0.02288,0.29739l0.20588,0.61765l0.12269,0.49076l0.12329,1.60277l0.23727,0.71181l0,0.81058l0.32675,1.30699l0.37891,2.65236l0.19807,0.48617v0.52497l0.39415,1.5766l0.211,1.05501l0,0.36539l0.38988,1.55951l0.12329,1.60277l0.45186,1.35559l0.27084,0.4256l0.01413,0.05653l0.03432,0.01961l0.00282,0.00444l0.36702,1.46808l2.13139,3.99636l0.05963,0.29813l0.15043,0.09573l0.08391,0.15733l0.29268,0.08232l3.82111,2.43162l1.35559,0.45186l2.61645,0.20127l0.54583,0.3119l0.41631,-0.23789l1.56011,0.12001l3.1286,-2.79927l3.64498,-2.08284l0.3795,-1.518l0.35733,-0.31972l-0.12329,-0.61645l0.63646,-2.54583l0,-0.70311l0.06231,-0.09346l-0.06231,-0.28038l0,-0.27864l-0.55728,-2.22912l-0.30119,-1.35537l-0.10656,-1.38524l-0.16037,-0.48111l0.02748,-0.57709l-0.45186,-2.25932l-0.27051,-0.57107l-0.04846,-0.63004l-1.35559,-4.06677l-0.32212,-0.50618l-0.36702,-1.46808l-0.18452,-0.34597l-0.03007,-0.39095l-0.45186,-1.35559l-0.16144,-0.25369l-0.04063,-0.29794l-0.56865,-1.42162l-0.00972,-0.03888l-0.06199,-0.80582v-4.30661l0.06199,-0.80582l0.11326,-0.45306l0.12461,-0.24922l0.08936,-0.40212l0.00134,-0.00402l0.00024,-0.00307l0.0652,-0.29342l0.38642,-0.60724l0.22713,-0.68138l0.55755,-1.11509c72.90466,0.6833 131.32865,19.21706 131.32865,41.98048c0,23.19596 -60.66541,42 -135.5,42c-74.83458,0 -135.5,-18.80404 -135.5,-42z" fill="#000000" stroke="#e8c200" stroke-width="12.5"/><path d="M123.35825,182.00001c0,-16.47459 42.69751,-30.12865 98.50201,-32.59313l0.07884,0.31537l0,1.23106l0.60515,2.42061v1.48012l0.38988,1.55951l0.06199,0.80582v0.34585l0.03843,0.15371l0.02288,0.29739l0.20588,0.61765l0.12269,0.49076l0.12329,1.60277l0.23727,0.71181l0,0.81058l0.32675,1.30699l0.37891,2.65236l0.19807,0.48617v0.52497l0.39415,1.5766l0.211,1.05501l0,0.36539l0.38988,1.55951l0.12329,1.60277l0.45186,1.35559l0.27084,0.4256l0.01413,0.05653l0.03432,0.01961l0.00282,0.00444l0.36702,1.46808l2.13139,3.99636l0.05963,0.29813l0.15043,0.09573l0.08391,0.15733l0.29268,0.08232l3.82111,2.43162l1.35559,0.45186l2.61645,0.20127l0.54583,0.3119l0.41631,-0.23789l1.56011,0.12001l3.1286,-2.79927l3.64498,-2.08284l0.3795,-1.518l0.35733,-0.31972l-0.12329,-0.61645l0.63646,-2.54583l0,-0.70311l0.06231,-0.09346l-0.06231,-0.28038l0,-0.27864l-0.55728,-2.22912l-0.30119,-1.35537l-0.10656,-1.38524l-0.16037,-0.48111l0.02748,-0.57709l-0.45186,-2.25932l-0.27051,-0.57107l-0.04846,-0.63004l-1.35559,-4.06677l-0.32212,-0.50618l-0.36702,-1.46808l-0.18452,-0.34597l-0.03007,-0.39095l-0.45186,-1.35559l-0.16144,-0.25369l-0.04063,-0.29794l-0.56865,-1.42162l-0.00972,-0.03888l-0.06199,-0.80582l0,-3.92256c63.24462,0.38279 114.09751,15.00277 114.09751,32.982c0,18.2197 -52.22229,32.98969 -116.64175,32.98969c-64.41946,0 -116.64175,-14.76999 -116.64175,-32.98969z" fill="#000000" stroke="#ffd600" stroke-width="26.5"/><path d="M126.85052,183.50001c0,-16.71237 41.1825,-30.57169 95.08858,-33.13662l0,0.58992l0.60515,2.42061v1.48012l0.38988,1.55951l0.06199,0.80582v0.34585l0.03843,0.15371l0.02288,0.29739l0.20588,0.61765l0.12269,0.49076l0.12329,1.60277l0.23727,0.71181l0,0.81058l0.32675,1.30699l0.37891,2.65236l0.19807,0.48617v0.52497l0.39415,1.5766l0.211,1.05501l0,0.36539l0.38988,1.55951l0.12329,1.60277l0.45186,1.35559l0.27084,0.4256l0.01413,0.05653l0.03432,0.01961l0.00282,0.00444l0.36702,1.46808l2.13139,3.99636l0.05963,0.29813l0.15043,0.09573l0.08391,0.15733l0.29268,0.08232l3.82111,2.43162l1.35559,0.45186l2.61645,0.20127l0.54583,0.3119l0.41631,-0.23789l1.56011,0.12001l3.1286,-2.79927l3.64498,-2.08284l0.3795,-1.518l0.35733,-0.31972l-0.12329,-0.61645l0.63646,-2.54583l0,-0.70311l0.06231,-0.09346l-0.06231,-0.28038l0,-0.27864l-0.55728,-2.22912l-0.30119,-1.35537l-0.10656,-1.38524l-0.16037,-0.48111l0.02748,-0.57709l-0.45186,-2.25932l-0.27051,-0.57107l-0.04846,-0.63004l-1.35559,-4.06677l-0.32212,-0.50618l-0.36702,-1.46808l-0.18452,-0.34597l-0.03007,-0.39095l-0.45186,-1.35559l-0.16144,-0.25369l-0.04063,-0.29794l-0.56865,-1.42162l-0.00972,-0.03888l-0.06199,-0.80582l0,-2.9941c61.31572,0.40125 110.60525,15.27005 110.60525,33.55353c0,18.5357 -50.65875,33.56186 -113.14949,33.56186c-62.49073,0 -113.14948,-15.02615 -113.14948,-33.56186z" fill="#000000" stroke="#ffee9a" stroke-width="9"/><path d="M159,180.00001c0,-35.79286 23.2158,-66.16338 55.41071,-76.87489l0,0.58189l-0.25767,1.28835l0.04738,0.99489l-0.24157,0.96628v9.28852l-0.06231,0.09346l0.06231,0.28038v0.27864l0.45186,1.80745v0.45186l0.47848,1.91392l-0.2012,0.73773l0.66108,1.1018l0.31164,1.24655l0.66392,0.37938l0.28376,0.47294l0.6655,1.331l1.04615,1.22051l0.82705,1.37842l0.92836,0.92836l0.01677,0.30193l0.39538,0.3389l0.07394,0.14788l0.06966,0.27864l0.09752,0.05573l0.16007,0.32013l0.75173,0.87701l0,0.97694l-0.45186,1.80745v0.27864l-0.06231,0.28038l0.06231,0.09346v9.53977l-0.06231,0.09346l0.06231,0.28038v0.27864l0.45186,1.80745l0,0.90373l0.29857,1.1943l0,1.23106l0.60515,2.42061v1.48012l0.38988,1.55951l0.06199,0.80582v0.34585l0.03843,0.15371l0.02288,0.29739l0.20588,0.61765l0.12269,0.49076l0.12329,1.60277l0.23727,0.71181l0,0.81058l0.32675,1.30699l0.37891,2.65236l0.19807,0.48617v0.52497l0.39415,1.5766l0.211,1.05501l0,0.36539l0.38988,1.55951l0.12329,1.60277l0.45186,1.35559l0.27084,0.4256l0.01413,0.05653l0.03432,0.01961l0.00282,0.00444l0.36702,1.46808l2.13139,3.99636l0.05963,0.29813l0.15043,0.09573l0.08391,0.15733l0.29268,0.08232l3.82111,2.43162l1.35559,0.45186l2.61645,0.20127l0.54583,0.3119l0.41631,-0.23789l1.56011,0.12001l3.1286,-2.79927l3.64498,-2.08284l0.3795,-1.518l0.35733,-0.31972l-0.12329,-0.61645l0.63646,-2.54583l0,-0.70311l0.06231,-0.09346l-0.06231,-0.28038l0,-0.27864l-0.55728,-2.22912l-0.30119,-1.35537l-0.10656,-1.38524l-0.16037,-0.48111l0.02748,-0.57709l-0.45186,-2.25932l-0.27051,-0.57107l-0.04846,-0.63004l-1.35559,-4.06677l-0.32212,-0.50618l-0.36702,-1.46808l-0.18452,-0.34597l-0.03007,-0.39095l-0.45186,-1.35559l-0.16144,-0.25369l-0.04063,-0.29794l-0.56865,-1.42162l-0.00972,-0.03888l-0.06199,-0.80582v-4.30661l0.06199,-0.80582l0.11326,-0.45306l0.12461,-0.24922l0.08936,-0.40212l0.00134,-0.00402l0.00024,-0.00307l0.0652,-0.29342l0.38642,-0.60724l0.22713,-0.68138l1.94149,-3.88298l0.15614,-0.70262l0.38642,-0.60724l0.0005,-0.00151l0.81252,-0.94795l0.178,-0.356l0.65998,-0.65998l0.51244,-0.85407l0.73699,-0.66999l0.35447,-0.5317l0.19405,-0.19405l0.11014,-0.02203l0.1542,-0.24231l0.19703,-0.19703l1.18217,-1.97029l0.9143,-1.43676l0.03432,-0.01961l0.01413,-0.05653l0.27084,-0.4256l0.08811,-0.26434l0.14777,-0.24629l-0.02955,-0.10837l0.24553,-0.7366l0.12329,-1.60277l0.38988,-1.55951v-2.71118l-0.38988,-1.55951l-0.12329,-1.60277l-0.23727,-0.71181v-0.81058l-0.90373,-3.61491l-0.11886,-0.22286l0.58,-0.29l0.68138,-0.22713l1.12686,-0.71709l1.25786,-0.44924l1.24571,-0.83047l0.15305,-0.0085l1.68355,-1.96414l1.74016,-1.91417l-0.01055,-0.15292l0.11438,-0.22876l0.55838,-0.83757l1.73344,-4.85363l-0.0348,-0.06961l0.04317,-0.06475l-0.19803,-0.89113c33.89583,9.68156 58.70948,40.89014 58.70948,77.89424c0,44.73506 -162,44.73506 -162,0z" fill="#000000" stroke="none" stroke-width="0"/><path d="M208.67235,205.68863c-4.90291,0.98058 -5.88349,-3.92232 -5.88349,-3.92232l-0.49871,-2.53279c-0.5151,-4.10258 -1.85113,-7.24419 -2.28903,-11.55102c0,0 -0.45268,-4.97946 4.52678,-5.43214c4.97947,-0.45268 5.43215,4.52678 5.43215,4.52678c0.30847,4.04943 1.61486,7.05845 2.2296,11.04216l0.40502,1.98585c0,0 0.98058,4.9029 -3.92233,5.88348z" fill="#ffffff" stroke="none" stroke-width="0.5"/><path d="M234.35171,209.8525c-5,0 -5,-5 -5,-5l0.03861,0.16831c-0.73508,-5.89477 -2.95746,-10.87031 -4.40796,-16.5783c0,0 -1.21268,-4.85071 3.63804,-6.06339c0.97776,-0.24444 1.8077,-0.24252 2.50969,-0.08363l2.31865,1.47551l0.06373,0.02124c0.87736,1.0491 1.17131,2.22492 1.17131,2.22492c1.48832,6.07713 3.83969,11.46054 4.62931,17.76331l0.03861,1.07204c0,0 0,5 -5,5z" fill="#ffffff" stroke="none" stroke-width="0.5"/><path d="M253.32997,208.04504c-5,0 -5,-5 -5,-5l0.01258,-2.35673c-0.57562,-3.90934 -0.62708,-7.86841 -1.30014,-11.73276c0,0 -0.82199,-4.93197 4.10998,-5.75396c4.93197,-0.82199 5.75396,4.10997 5.75396,4.10997c0.67631,4.19725 0.82184,8.43676 1.41104,12.66786l0.01258,3.06562c0,0 0,5 -5,5z" fill="#ffffff" stroke="none" stroke-width="0.5"/><path d="M270.95264,204.43014c-5,0 -5,-5 -5,-5l0.40428,-3.32519c1.44838,-3.02314 0.95131,-5.97436 0.95131,-9.32699c0,0 0,-5 5,-5c5,0 5,5 5,5c0,4.90338 0.10478,8.62377 -1.75986,13.26618l0.40427,-0.614c0,0 0,5 -5,5z" fill="#ffffff" stroke="none" stroke-width="0.5"/><path d="M191.41831,150.01c0.00499,-0.68004 0.12677,-1.43199 0.40319,-2.26126c1.97642,-5.92927 7.90569,-3.95285 7.90569,-3.95285c4.25382,1.43343 8.93303,2.90989 13.32141,3.88063c2.80674,0.62087 6.49387,0.05817 8.8905,2.08421l0,1.19258l0.60515,2.42061v1.48012l0.38988,1.55951l0.06199,0.80582v0.34585l0.03843,0.15371l0.02288,0.29739l0.20588,0.61765l0.12269,0.49076l0.12329,1.60277l0.23727,0.71181l0,0.81058l0.32675,1.30699l0.03058,0.21404c-1.58495,3.43711 -4.35476,6.40856 -7.47443,7.89953c-5.65838,2.70427 -13.5275,1.95027 -18.76771,-1.40651c-3.99379,-2.55835 -5.72358,-6.87326 -7.02423,-11.14009c-0.20504,-2.46557 -1.90584,-5.28598 -0.61513,-7.3967c0.39138,-0.64002 0.79037,-1.21069 1.19592,-1.71715z" fill="#ffffff" stroke="none" stroke-width="0.5"/><path d="M273.18038,151.81197c1.25714,1.77893 1.21873,4.72998 1.76294,6.95046c0.32268,1.31662 0,2.71118 0,4.06677c-0.07559,1.45984 0.23383,2.99219 -0.22678,4.37952c-3.21702,9.68933 -12.96815,10.36188 -21.44565,9.02569c-1.77516,-0.27979 -3.60891,-0.6784 -5.35612,-1.29102l0.05184,-0.20736l0,-0.70311l0.06231,-0.09346l-0.06231,-0.28038l0,-0.27864l-0.55728,-2.22912l-0.30119,-1.35537l-0.10656,-1.38524l-0.16037,-0.48111l0.02748,-0.57709l-0.45186,-2.25932l-0.27051,-0.57107l-0.04846,-0.63004l-1.35559,-4.06677l-0.32212,-0.50618l-0.36702,-1.46808l-0.18452,-0.34597l-0.03007,-0.39095l-0.45186,-1.35559l-0.16144,-0.25369l-0.04063,-0.29794l-0.56865,-1.42162l-0.00972,-0.03888l-0.06199,-0.80582l0,-1.6189c0.37869,-0.31 0.78281,-0.59777 1.21268,-0.8606c1.37831,-0.84272 6.55578,-1.13094 8.50633,-1.47186c4.62953,-0.80914 8.59207,-2.80249 13.10676,-3.97186c0,0 6.06339,-1.51585 7.57924,4.54754c0.20801,0.83204 0.2733,1.57846 0.23112,2.24707z" fill="#ffffff" stroke="none" stroke-width="0.5"/></g></g></svg>