<svg version="1.1" xmlns="http://www.w3.org/2000/svg" xmlns:xlink="http://www.w3.org/1999/xlink" width="283.5" height="206.5" viewBox="0,0,283.5,206.5"><g transform="translate(-98.25,-76.75)"><g data-paper-data="{&quot;isPaintingLayer&quot;:true}" fill-rule="nonzero" stroke-linecap="butt" stroke-linejoin="miter" stroke-miterlimit="10" stroke-dasharray="" stroke-dashoffset="0" style="mix-blend-mode: normal"><path d="M143,180c0,-53.57162 43.42838,-97 97,-97c53.57162,0 97,43.42838 97,97c0,53.57162 -43.42838,97 -97,97c-53.57162,0 -97,-43.42838 -97,-97z" fill="#000000" stroke="#e8c200" stroke-width="12.5"/><path d="M156.5,180c0,-46.11577 37.38423,-83.5 83.5,-83.5c46.11577,0 83.5,37.38423 83.5,83.5c0,46.11577 -37.38423,83.5 -83.5,83.5c-46.11577,0 -83.5,-37.38423 -83.5,-83.5z" fill="#000000" stroke="#ffd600" stroke-width="18"/><path d="M159,180c0,-44.73506 36.26494,-81 81,-81c44.73507,0 81,36.26494 81,81c0,44.73506 -36.26493,81 -81,81c-44.73506,0 -81,-36.26494 -81,-81z" fill="#000000" stroke="#ffee9a" stroke-width="9"/><path d="M104.5,186c0,-23.19596 60.66542,-42 135.5,-42c74.83459,0 135.5,18.80404 135.5,42c0,23.19596 -60.66541,42 -135.5,42c-74.83458,0 -135.5,-18.80404 -135.5,-42z" fill="#000000" stroke="#e8c200" stroke-width="12.5"/><path d="M123.35825,182c0,-18.2197 52.22229,-32.98969 116.64176,-32.98969c64.41946,0 116.64175,14.76999 116.64175,32.98969c0,18.2197 -52.22229,32.98969 -116.64175,32.98969c-64.41946,0 -116.64175,-14.76999 -116.64175,-32.98969z" fill="#000000" stroke="#ffd600" stroke-width="26.5"/><path d="M126.85052,183.5c0,-18.5357 50.65875,-33.56185 113.14949,-33.56185c62.49073,0 113.14949,15.02615 113.14949,33.56185c0,18.5357 -50.65875,33.56186 -113.14949,33.56186c-62.49073,0 -113.14948,-15.02615 -113.14948,-33.56186z" fill="#000000" stroke="#ffee9a" stroke-width="9"/><path d="M159,180c0,-44.73506 36.26494,-81 81,-81c44.73507,0 81,36.26494 81,81c0,44.73506 -162,44.73506 -162,0z" fill="#000000" stroke="none" stroke-width="0"/><path d="M219.98486,147.09006c0.43504,0.74606 0.73773,1.55736 0.95829,2.39973c0.39227,1.21285 0.60421,2.50681 0.60421,3.85027c0.28968,2.8471 -0.12431,5.7263 0,8.5854c0.19392,4.46026 2.68355,12.17116 0.03593,16.14259c-2.91155,4.36732 -7.68648,6.75479 -12.92727,6.46363c-10.89962,-0.60553 -11.04191,-12.96824 -11.6568,-20.34691c-0.30046,-3.60555 -0.80712,-7.24416 -0.45186,-10.84472c0,-2.27307 0.60673,-4.40444 1.66706,-6.24098c0.99394,-2.14559 2.46354,-3.99702 4.52865,-4.55516c1.8508,-1.08309 4.00504,-1.70386 6.30428,-1.70386c2.49977,0 4.82815,0.73378 6.78151,1.99769c1.53667,0.77084 2.8229,1.96619 4.15599,4.25231z" fill="#ffffff" stroke="none" stroke-width="0.5"/><path d="M266.64377,139.69545c6.77357,4.45111 6.49278,14.28615 7.06635,21.21646c0.24042,2.90495 1.24641,9.28703 0.70525,12.76201c-0.59022,3.79009 -1.53892,8.41287 -5.27344,10.54688c-6.44085,3.68048 -14.3936,2.1426 -18.16406,-4.29687c-2.58457,-4.41411 -1.88636,-12.56054 -2.01436,-16.96392c-0.07992,-2.74933 -0.98237,-5.58375 -0.98237,-8.30742c-0.53301,-1.38954 -0.82508,-2.89844 -0.82508,-4.47555c0,-6.90356 5.59644,-12.5 12.5,-12.5c0.97868,0 1.93108,0.11247 2.845,0.32519c1.42892,0.27924 2.83138,0.83152 4.14271,1.69324z" fill="#ffffff" stroke="none" stroke-width="0.5"/><path d="M221.11166,127.26898c1.48012,0.35103 3.78042,1.44211 3.78042,4.8335c0,5 -5,5 -5,5l-3.22536,-0.83975c-3.0657,-2.12017 -3.91722,-1.34398 -7.4848,-2.61146c-3.29492,-1.17061 -5.50195,-4.0495 -8.39821,-5.74209c-0.70049,-0.40937 -3.34807,-0.73464 -3.85493,-0.81573c0,0 -4.93197,-0.82199 -4.10997,-5.75396c0.82199,-4.93197 5.75396,-4.10997 5.75396,-4.10997c2.60048,0.44646 4.53847,0.60286 6.98979,1.89545c2.31996,1.22333 4.40503,4.35217 6.96514,5.10263c3.33398,0.97732 5.6832,1.38603 8.58395,3.04138z" fill="#ffffff" stroke="none" stroke-width="0.5"/><path d="M270.90614,121.28101c2.23607,4.47214 -2.23607,6.7082 -2.23607,6.7082l-0.90373,0.45186c-2.70919,1.34204 -5.57715,1.98651 -8.28032,3.23347c-5.26802,2.43012 -10.57639,4.59703 -16.3806,5.38932c0,0 -4.96139,0.62017 -5.58156,-4.34122c-0.62017,-4.96139 4.34122,-5.58156 4.34122,-5.58156c4.75593,-0.51409 9.13812,-2.61886 13.44238,-4.55167c2.66097,-1.1949 5.36744,-1.76753 7.98676,-3.09261l0.90373,-0.45186c0,0 4.47214,-2.23607 6.7082,2.23607z" fill="#ffffff" stroke="none" stroke-width="0.5"/><path d="M248.40897,204.52437c-4.64238,1.85695 -6.49934,-2.78543 -6.49934,-2.78543l0.20312,-0.58074c-0.92967,-0.93377 -1.45358,-2.43269 -2.68523,-2.90095c-1.30325,-0.49548 -2.77787,0.30711 -4.1721,0.29864c-3.50244,-0.02128 -7.06754,-0.08023 -7.26834,4.4074c0,0 -0.82199,4.93197 -5.75396,4.10997c-4.93197,-0.82199 -4.10997,-5.75396 -4.10997,-5.75396c0.82349,-3.90034 2.98651,-8.91676 6.75027,-11.06779c3.58737,-2.05023 6.57032,-1.67629 10.38201,-1.69562c1.61726,-0.0082 6.69699,-0.04063 7.57635,0.29864c2.09999,0.81021 4.62975,3.51664 6.35204,5.23259l2.01058,3.9379c0,0 1.85695,4.64238 -2.78543,6.49934z" fill="#ffffff" stroke="none" stroke-width="0.5"/></g></g></svg>