<svg version="1.1" xmlns="http://www.w3.org/2000/svg" xmlns:xlink="http://www.w3.org/1999/xlink" width="45.66667" height="79.33333" viewBox="0,0,45.66667,79.33333"><g transform="translate(-217.16667,-140.33333)"><g data-paper-data="{&quot;isPaintingLayer&quot;:true}" fill-rule="nonzero" stroke="none" stroke-linecap="butt" stroke-linejoin="miter" stroke-miterlimit="10" stroke-dasharray="" stroke-dashoffset="0" style="mix-blend-mode: normal"><path d="M217.16667,196.66667c0,-5.70338 0,-22.22244 0,-32.66667c0,-5.27474 5.78361,-9 10.21491,-9c4.85547,0 16.2634,0 24.83626,0c6.00275,0 10.6155,4.28711 10.6155,8c0,5.38105 0,20.75834 0,31.33333c0,6.1438 -5.78361,10.66667 -10.21491,10.66667c-4.9315,0 -16.62227,0 -25.23684,0c-5.80616,0 -10.21491,-4.49454 -10.21491,-8.33333z" fill="#ff0000" stroke-width="none"/><path d="M229.83333,219.66667v-79.33333h20.33333v79.33333z" fill="#b1b1b1" stroke-width="0"/><path d="M218.95,164.4c-1.4,-1.05 -0.35,-2.45 -0.35,-2.45l1.30678,-1.64985c2.61582,-1.94111 3.92363,-1.71681 7.09322,-1.71681c0,0 1.75,0 1.75,1.75c0,1.75 -1.75,1.75 -1.75,1.75c-2.25194,0 -3.27162,-0.53749 -4.90678,0.94985l-0.69322,1.01681c0,0 -1.05,1.4 -2.45,0.35z" fill="#ff7373" stroke-width="0.5"/><path d="M218.91667,168.66667c0,-0.9665 0.7835,-1.75 1.75,-1.75c0.9665,0 1.75,0.7835 1.75,1.75c0,0.9665 -0.7835,1.75 -1.75,1.75c-0.9665,0 -1.75,-0.7835 -1.75,-1.75z" fill="#ff7373" stroke-width="0.5"/></g></g></svg>