<svg version="1.1" xmlns="http://www.w3.org/2000/svg" xmlns:xlink="http://www.w3.org/1999/xlink" width="283.5" height="206.5" viewBox="0,0,283.5,206.5"><g transform="translate(-98.25,-76.75)"><g data-paper-data="{&quot;isPaintingLayer&quot;:true}" fill-rule="nonzero" stroke-linecap="butt" stroke-linejoin="miter" stroke-miterlimit="10" stroke-dasharray="" stroke-dashoffset="0" style="mix-blend-mode: normal"><path d="M143,180c0,-53.57162 43.42838,-97 97,-97c53.57162,0 97,43.42838 97,97c0,53.57162 -43.42838,97 -97,97c-53.57162,0 -97,-43.42838 -97,-97z" fill="#000000" stroke="#e8c200" stroke-width="12.5"/><path d="M156.5,180c0,-46.11577 37.38423,-83.5 83.5,-83.5c46.11577,0 83.5,37.38423 83.5,83.5c0,46.11577 -37.38423,83.5 -83.5,83.5c-46.11577,0 -83.5,-37.38423 -83.5,-83.5z" fill="#000000" stroke="#ffd600" stroke-width="18"/><path d="M159,180c0,-44.73506 36.26494,-81 81,-81c44.73507,0 81,36.26494 81,81c0,44.73506 -36.26493,81 -81,81c-44.73506,0 -81,-36.26494 -81,-81z" fill="#000000" stroke="#ffee9a" stroke-width="9"/><path d="M104.5,186c0,-23.19596 60.66542,-42 135.5,-42c74.83459,0 135.5,18.80404 135.5,42c0,23.19596 -60.66541,42 -135.5,42c-74.83458,0 -135.5,-18.80404 -135.5,-42z" fill="#000000" stroke="#e8c200" stroke-width="12.5"/><path d="M123.35825,182c0,-18.2197 52.22229,-32.98969 116.64176,-32.98969c64.41946,0 116.64175,14.76999 116.64175,32.98969c0,18.2197 -52.22229,32.98969 -116.64175,32.98969c-64.41946,0 -116.64175,-14.76999 -116.64175,-32.98969z" fill="#000000" stroke="#ffd600" stroke-width="26.5"/><path d="M126.85052,183.5c0,-18.5357 50.65875,-33.56185 113.14949,-33.56185c62.49073,0 113.14949,15.02615 113.14949,33.56185c0,18.5357 -50.65875,33.56186 -113.14949,33.56186c-62.49073,0 -113.14948,-15.02615 -113.14948,-33.56186z" fill="#000000" stroke="#ffee9a" stroke-width="9"/><path d="M159,180c0,-44.73506 36.26494,-81 81,-81c44.73507,0 81,36.26494 81,81c0,44.73506 -162,44.73506 -162,0z" fill="#000000" stroke="none" stroke-width="0"/><path d="M224.36794,157.159c-2.69295,8.63452 -14.25108,14.00425 -25.8158,11.99362c-11.56472,-2.01063 -18.75671,-10.64023 -16.06376,-19.27475c2.69295,-8.63452 44.57251,-1.35339 41.87956,7.28113z" fill="#ffffff" stroke="none" stroke-width="0"/><path d="M297.85839,147.39662c3.3421,9.62116 -3.18532,19.7084 -14.5794,22.53047c-11.39408,2.82207 -23.34012,-2.68969 -26.68222,-12.31085c-3.3421,-9.62116 37.91952,-19.84079 41.26162,-10.21962z" fill="#ffffff" stroke="none" stroke-width="0"/><path d="M271.24897,155.78356c1.55392,2.78368 -3.10784,3.71157 -3.10784,3.71157l-1.91887,0.2992c-0.8895,0.46286 -1.55841,1.14991 -2.6685,1.38858c-3.23638,0.69582 -8.25689,0.22336 -11.70833,0.22336c-10.47978,0 -21.29126,-0.50048 -31.62408,0.54693c0,0 -4.84707,0.48239 -5.65491,-2.41194c-0.80784,-2.89433 4.03922,-3.37672 4.03922,-3.37672c10.91614,-1.06883 22.18347,-0.62677 33.23977,-0.62677c2.29317,0 4.59272,-0.10217 6.8795,0c0.37611,0.0168 0.73442,0.32859 1.06788,0.22336c0.602,-0.18998 0.84176,-0.63922 1.26264,-0.95883l3.97784,-0.8745c0,0 4.66176,-0.92789 6.21568,1.85579z" fill="#ffffff" stroke="none" stroke-width="0.5"/><path d="M279.24342,195.58114c-1.58114,4.74341 -6.32456,3.16227 -6.32456,3.16227l-4.04751,-1.49016c-0.32234,-0.30673 -0.64132,-0.60417 -0.95589,-0.89495c-0.48131,0.26744 -0.83432,0.38511 -0.83432,0.38511l-2.38439,0.74816c-4.1524,2.83249 -9.30763,5.69877 -14.39585,6.44386c-4.32548,0.63341 -9.43624,0.06456 -13.80091,0.06456c-4.05665,0 -8.82256,0.4572 -12.80091,-0.06456c-2.09028,-0.27415 -3.92103,-1.65024 -6,-2c-3.09142,-0.52009 -6.58377,0.84184 -9.64801,-0.14998c-1.60439,-0.5193 -2.88306,-1.75014 -4.32458,-2.62521c0,0 -4.16025,-2.7735 -1.38675,-6.93375c2.7735,-4.16025 6.93375,-1.38675 6.93375,-1.38675c2.90356,2.38256 6.36007,0.61695 10.02741,1.22481c2.07981,0.34473 3.90581,1.75745 6,2c3.50048,0.40542 7.6623,-0.06456 11.19909,-0.06456c3.82789,0 8.38954,0.5872 12.19909,0.06456c4.11377,-0.56437 8.24786,-3.36071 11.60415,-5.55614l0.94961,-0.32879c-0.28129,-0.72616 -0.51308,-1.51318 -0.68829,-2.37873c-0.25142,-1.24196 -0.04305,-2.53394 -0.06457,-3.80091c0,0 0,-5 5,-5c5,0 5,5 5,5c-0.10861,3.69946 1.12131,4.01281 3.62865,6.74675l1.95249,0.50984c0,0 4.74342,1.58114 3.16228,6.32456z" fill="#ffffff" stroke="none" stroke-width="0.5"/></g></g></svg>