<svg version="1.1" xmlns="http://www.w3.org/2000/svg" xmlns:xlink="http://www.w3.org/1999/xlink" width="31.43841" height="79.33333" viewBox="0,0,31.43841,79.33333"><g transform="translate(-224.28079,-140.33334)"><g data-paper-data="{&quot;isPaintingLayer&quot;:true}" fill-rule="nonzero" stroke="none" stroke-linecap="butt" stroke-linejoin="miter" stroke-miterlimit="10" stroke-dasharray="" stroke-dashoffset="0" style="mix-blend-mode: normal"><path d="M224.28079,196.66667c0,-5.70338 0,-22.22244 0,-32.66667c0,-5.27474 3.98162,-9 7.03227,-9c3.34266,0 11.19625,0 17.09808,0c4.13249,0 7.30806,4.28711 7.30806,8c0,5.38105 0,20.75834 0,31.33333c0,6.1438 -3.98162,10.66667 -7.03227,10.66667c-3.395,0 -11.44331,0 -17.37386,0c-3.99714,0 -7.03227,-4.49454 -7.03227,-8.33333z" fill="#ff0000" stroke-width="NaN"/><path d="M229.83333,219.66667v-79.33333h20.33333v79.33333z" fill="#b1b1b1" stroke-width="0"/><path d="M225.65819,164.4c-0.44169,-1.05 -0.11042,-2.45 -0.11042,-2.45l0.41227,-1.64985c0.82526,-1.94111 1.23786,-1.71681 2.23783,-1.71681c0,0 0.55211,0 0.55211,1.75c0,1.75 -0.55211,1.75 -0.55211,1.75c-0.71046,0 -1.03216,-0.53749 -1.54804,0.94985l-0.2187,1.01681c0,0 -0.33126,1.4 -0.77295,0.35z" fill="#ff7373" stroke-width="0.5"/><path d="M225.19927,168.11233c0,-0.9665 0.41122,-1.75 0.91848,-1.75c0.50726,0 0.91848,0.7835 0.91848,1.75c0,0.9665 -0.41122,1.75 -0.91848,1.75c-0.50726,0 -0.91848,-0.7835 -0.91848,-1.75z" fill="#ff7373" stroke-width="0.5"/></g></g></svg>