<svg version="1.1" xmlns="http://www.w3.org/2000/svg" xmlns:xlink="http://www.w3.org/1999/xlink" width="283.5" height="206.89809" viewBox="0,0,283.5,206.89809"><g transform="translate(-98.25,-76.35191)"><g data-paper-data="{&quot;isPaintingLayer&quot;:true}" fill-rule="nonzero" stroke-linecap="butt" stroke-linejoin="miter" stroke-miterlimit="10" stroke-dasharray="" stroke-dashoffset="0" style="mix-blend-mode: normal"><path d="M143,180c0,-48.09948 35.00941,-88.02207 80.93654,-95.6761c1.61957,3.57717 3.00174,7.36993 3.85549,10.66626c0.27003,1.04259 2.12303,2.83002 1.8049,3.9543c-0.7325,2.58869 -4.05221,4.30424 -5.35082,6.46858c-1.41643,2.36071 -1.43058,6.4608 -1.25,9.06677c0.23181,3.34517 1.72436,5.89991 2.5265,8.75042c1.90826,6.78125 4.32017,19.144 16.0124,13.29789c3.00463,-1.50231 4.47814,-5.21538 5.59017,-8.38525c0.63832,-1.81956 -3.24823,-12.01 -3.88159,-14.14533c-0.09578,-0.32293 2.54551,-3.30596 2.76356,-3.63099c2.00628,-2.99071 3.41497,-5.76863 3.76691,-9.44263c0.58448,-6.10166 -2.04684,-12.10165 -4.7784,-17.79749c51.24997,2.6 92.00433,44.97744 92.00433,96.87358c0,53.57162 -43.42838,97 -97,97c-53.57162,0 -97,-43.42838 -97,-97z" fill="#000000" stroke="#e8c200" stroke-width="12.5"/><path d="M156.5,180c0,-42.41559 31.62573,-77.44462 72.58291,-82.79277c0.37719,0.62739 0.65311,1.24569 0.51402,1.73723c-0.7325,2.58869 -4.05221,4.30424 -5.35082,6.46858c-1.41643,2.36071 -1.43058,6.4608 -1.25,9.06677c0.23181,3.34517 1.72436,5.89991 2.5265,8.75042c1.90826,6.78125 4.32017,19.144 16.0124,13.29789c3.00463,-1.50231 4.47814,-5.21538 5.59017,-8.38525c0.63832,-1.81956 -3.24823,-12.01 -3.88159,-14.14533c-0.09578,-0.32293 2.54551,-3.30596 2.76356,-3.63099c2.00628,-2.99071 3.41497,-5.76863 3.76691,-9.44263c0.1238,-1.29242 0.10333,-2.58027 -0.03182,-3.86164c41.52566,4.82536 73.75775,40.11745 73.75775,82.93772c0,46.11577 -37.38423,83.5 -83.5,83.5c-46.11577,0 -83.5,-37.38423 -83.5,-83.5z" fill="#000000" stroke="#ffd600" stroke-width="18"/><path d="M159,180c0,-41.10853 30.6235,-75.06456 70.3022,-80.29983c-1.0849,2.1825 -3.88805,3.76614 -5.05609,5.71287c-1.41643,2.36071 -1.43058,6.4608 -1.25,9.06677c0.23181,3.34517 1.72436,5.89991 2.5265,8.75042c1.90826,6.78125 4.32017,19.144 16.0124,13.29789c3.00463,-1.50231 4.47814,-5.21538 5.59017,-8.38525c0.63832,-1.81956 -3.24823,-12.01 -3.88159,-14.14533c-0.09578,-0.32293 2.54551,-3.30596 2.76356,-3.63099c2.00628,-2.99071 3.41497,-5.76863 3.76691,-9.44263c0.04255,-0.44418 0.06805,-0.88782 0.07772,-1.33084c40.08859,4.86083 71.14821,39.0067 71.14821,80.40692c0,44.73506 -36.26493,81 -81,81c-44.73506,0 -81,-36.26494 -81,-81z" fill="#000000" stroke="#ffee9a" stroke-width="9"/><path d="M104.5,186c0,-23.19596 60.66542,-42 135.5,-42c74.83459,0 135.5,18.80404 135.5,42c0,23.19596 -60.66541,42 -135.5,42c-74.83458,0 -135.5,-18.80404 -135.5,-42z" fill="#000000" stroke="#e8c200" stroke-width="12.5"/><path d="M123.35825,182c0,-18.2197 52.22229,-32.98969 116.64176,-32.98969c64.41946,0 116.64175,14.76999 116.64175,32.98969c0,18.2197 -52.22229,32.98969 -116.64175,32.98969c-64.41946,0 -116.64175,-14.76999 -116.64175,-32.98969z" fill="#000000" stroke="#ffd600" stroke-width="26.5"/><path d="M126.85052,183.5c0,-18.5357 50.65875,-33.56185 113.14949,-33.56185c62.49073,0 113.14949,15.02615 113.14949,33.56185c0,18.5357 -50.65875,33.56186 -113.14949,33.56186c-62.49073,0 -113.14948,-15.02615 -113.14948,-33.56186z" fill="#000000" stroke="#ffee9a" stroke-width="9"/><path d="M159,180c0,-41.10853 30.6235,-75.06456 70.3022,-80.29983c-1.0849,2.1825 -3.88805,3.76614 -5.05609,5.71287c-1.41643,2.36071 -1.43058,6.4608 -1.25,9.06677c0.23181,3.34517 1.72436,5.89991 2.5265,8.75042c1.90826,6.78125 4.32017,19.144 16.0124,13.29789c3.00463,-1.50231 4.47814,-5.21538 5.59017,-8.38525c0.63832,-1.81956 -3.24823,-12.01 -3.88159,-14.14533c-0.09578,-0.32293 2.54551,-3.30596 2.76356,-3.63099c2.00628,-2.99071 3.41497,-5.76863 3.76691,-9.44263c0.04255,-0.44418 0.06805,-0.88782 0.07772,-1.33084c40.08859,4.86083 71.14821,39.0067 71.14821,80.40692c0,44.73506 -162,44.73506 -162,0z" fill="#000000" stroke="none" stroke-width="0"/><path d="M208.67235,205.68862c-4.90291,0.98058 -5.88349,-3.92232 -5.88349,-3.92232l-0.49871,-2.53279c-0.5151,-4.10258 -1.85113,-7.24419 -2.28903,-11.55102c0,0 -0.45268,-4.97946 4.52678,-5.43214c4.97947,-0.45268 5.43215,4.52678 5.43215,4.52678c0.30847,4.04943 1.61486,7.05845 2.2296,11.04216l0.40502,1.98585c0,0 0.98058,4.9029 -3.92233,5.88348z" fill="#ffffff" stroke="none" stroke-width="0.5"/><path d="M234.35171,209.85249c-5,0 -5,-5 -5,-5l0.03861,0.16831c-0.73508,-5.89477 -2.95746,-10.87031 -4.40796,-16.5783c0,0 -1.21268,-4.85071 3.63804,-6.06339c4.85072,-1.21268 6.06339,3.63804 6.06339,3.63804c1.48832,6.07713 3.83969,11.46054 4.62931,17.76331l0.03861,1.07204c0,0 0,5 -5,5z" fill="#ffffff" stroke="none" stroke-width="0.5"/><path d="M253.32997,208.04503c-5,0 -5,-5 -5,-5l0.01258,-2.35673c-0.57562,-3.90934 -0.62708,-7.86841 -1.30014,-11.73276c0,0 -0.82199,-4.93197 4.10998,-5.75396c4.93197,-0.82199 5.75396,4.10997 5.75396,4.10997c0.67631,4.19725 0.82184,8.43676 1.41104,12.66786l0.01258,3.06562c0,0 0,5 -5,5z" fill="#ffffff" stroke="none" stroke-width="0.5"/><path d="M270.95264,204.43013c-5,0 -5,-5 -5,-5l0.40428,-3.32519c1.44838,-3.02314 0.95131,-5.97436 0.95131,-9.32699c0,0 0,-5 5,-5c5,0 5,5 5,5c0,4.90338 0.10478,8.62377 -1.75986,13.26618l0.40427,-0.614c0,0 0,5 -5,5z" fill="#ffffff" stroke="none" stroke-width="0.5"/><path d="M191.41831,150.00999c0.00499,-0.68004 0.12677,-1.43199 0.40319,-2.26126c1.97642,-5.92927 7.90569,-3.95285 7.90569,-3.95285c4.25382,1.43343 8.93303,2.90989 13.32141,3.88063c2.88834,0.63892 6.709,0.02445 9.0962,2.26757c7.1385,6.70765 1.76403,18.24737 -5.51535,21.72636c-5.65838,2.70427 -13.5275,1.95027 -18.76771,-1.40651c-3.99379,-2.55835 -5.72358,-6.87326 -7.02423,-11.14009c-0.20504,-2.46557 -1.90584,-5.28598 -0.61513,-7.3967c0.39138,-0.64002 0.79037,-1.21069 1.19592,-1.71715z" fill="#ffffff" stroke="none" stroke-width="0.5"/><path d="M273.18038,151.81197c1.25714,1.77893 1.21873,4.72998 1.76294,6.95046c0.32268,1.31662 0,2.71118 0,4.06677c-0.07559,1.45984 0.23383,2.99219 -0.22678,4.37952c-3.21702,9.68933 -12.96815,10.36188 -21.44565,9.02569c-4.87187,-0.76788 -10.18511,-2.4307 -12.93917,-6.95635c-3.62757,-5.96105 -2.80341,-15.00873 3.42521,-18.81698c1.37831,-0.84272 6.55578,-1.13094 8.50633,-1.47186c4.62953,-0.80914 8.59207,-2.80249 13.10676,-3.97186c0,0 6.06339,-1.51585 7.57924,4.54754c0.20801,0.83204 0.2733,1.57846 0.23112,2.24707z" fill="#ffffff" stroke="none" stroke-width="0.5"/></g></g></svg>