<svg version="1.1" xmlns="http://www.w3.org/2000/svg" xmlns:xlink="http://www.w3.org/1999/xlink" width="36.79711" height="79.33333" viewBox="0,0,36.79711,79.33333"><g transform="translate(-221.60145,-140.33334)"><g data-paper-data="{&quot;isPaintingLayer&quot;:true}" fill-rule="nonzero" stroke="none" stroke-linecap="butt" stroke-linejoin="miter" stroke-miterlimit="10" stroke-dasharray="" stroke-dashoffset="0" style="mix-blend-mode: normal"><path d="M221.60145,196.66667c0,-5.70338 0,-22.22244 0,-32.66667c0,-5.27474 4.66029,-9 8.23093,-9c3.91242,0 13.10466,0 20.01246,0c4.83687,0 8.55372,4.28711 8.55372,8c0,5.38105 0,20.75834 0,31.33333c0,6.1438 -4.66029,10.66667 -8.23093,10.66667c-3.97368,0 -13.39383,0 -20.33524,0c-4.67846,0 -8.23093,-4.49454 -8.23093,-8.33333z" fill="#ff0000" stroke-width="NaN"/><path d="M229.83333,219.66667v-79.33333h20.33333v79.33333z" fill="#b1b1b1" stroke-width="0"/><path d="M223.25012,164.4c-0.7857,-1.05 -0.19643,-2.45 -0.19643,-2.45l0.73337,-1.64985c1.46803,-1.94111 2.20198,-1.71681 3.98079,-1.71681c0,0 0.98212,0 0.98212,1.75c0,1.75 -0.98212,1.75 -0.98212,1.75c-1.26381,0 -1.83607,-0.53749 -2.75374,0.94985l-0.38904,1.01681c0,0 -0.58927,1.4 -1.37497,0.35z" fill="#ff7373" stroke-width="0.5"/><path d="M222.05797,168.29711c0,-0.9665 0.53531,-1.75 1.19565,-1.75c0.66034,0 1.19565,0.7835 1.19565,1.75c0,0.9665 -0.53531,1.75 -1.19565,1.75c-0.66034,0 -1.19565,-0.7835 -1.19565,-1.75z" fill="#ff7373" stroke-width="0.5"/></g></g></svg>